<svg enable-background="new 0 0 411 361.4" viewBox="0 0 411 361.4" xmlns="http://www.w3.org/2000/svg"><path d="m65.4 139.1c-.3.4-1.4 1.3-1 2.4s.9 1.8.7 2.2c-.1.4-.1 1.1.5 1.4s.2 1.2-.6 1.8-1.6 2 .4 2.8 5.2 1.8 5.2 1.8.9.1.8.8-2.3 1.2-3.3 1.2c-.3 0-.5 0-.8.1-2.9.2-3.5 1.1-3.5 2.2 0 1.4 1.2 2.1 1.2 2.1.4.3 1.1.5 2.4.6h.5s.5.1.7.2c.8.4 2.3 1.4 1.5 3.7-.9 2.8-2.6 4.2.1 5.9 2.6 1.6 10.8 2.3 15 .8 3.2-1.1 20.7-2.7 31.9-3.3 9.7.2 19.4-.1 28.9-.4 18.1-.6 34.1-2.7 54.3-2.7l21-.3c.8-.3.8-1.3-.1-1.8 0 0-1.6-.9-2.1-1.8-.8-1.8 1-1.8 1-1.8h.5c.3.1 9 0 9.4-.1h.3c.2 0 .4-.1.5-.2s.2-.3.3-.5v-.1c.1-.2 0-.4-.1-.5-.1 0-.1-.1 0-.2 0-.1.1-.2.2-.3.1 0 .2-.1.3-.1h.1l2.7-.7s.7-.2 1.1-.8.6-.6.9-2.1c0 0 .6-2.2-1.6-2.4 0 0-1-.1-1.7-.2-.1 0-.3 0-.4 0-5.4-.3-17.1-.6-18.3-.5-2 .2-.4-1.7-.7-2.2s-.8-1.2 0-2c.5-.5 2-.5 3.1-.4 2.9-.5 6.7-1.2 6.3-2-.5-1.2 3.4-2.1 3.6-2.1.6 0 1.2-.1 1.8-.1.2 0 .4-.1.6-.1 0 0 2.1 0 3.1-.5s1.2-1.3 1.2-1.7c0-.1 0-.2-.1-.3v-.1c-1.1-1.2-.3-2.2.5-2.1.8 0 2.9-.6 2.2-2.3-.4-.7-1.8-1.4-1.8-1.4-.7-.4-.3-1-.3-1s.1-.3.5-.7c.5-.5 1.1-.8 2.5-1.3.8-.4 2.5-.4 3.2-1.6 0 0 .7-.7.6-2-.1-.4-.2-.7-.3-1-.4-1-1.1-1.6-1.7-2.2s-.2-.9-.1-1l.1-.1c.3-.2.9-.5 1.6-.7 1-.3 2.7-.7 2.7-.7.5-.2.7-.3.8-.5.4-1-.4-1.5-.4-1.5s-1.5-.7 0-1.4c.9-.4 1.5-1.3 1.7-1.9.1-.1.3-.5.2-1.4 0 0 0 0 0-.1v-.1c-.1-.3-.7-1-2.3-1h-.1c-.3 0-.6 0-.9.1l-3.6.3c-.2 0-.4 0-.6.1-.3 0-.5.1-.8.1-.2 0-.4 0-.6.1-.2 0-.4 0-.5.1l-.5.1c-.4 0-.7.1-1.1.1-.2 0-.4 0-.6.1h-.1c-.4 0-.7.1-1.1.1-.5.1-.9.1-1.4.1-17.2 0-31.9-.4-47.1-.2s-16.9-.2-24.2-.2c-2 0-4.5.1-7.1.2-4.8.1-44 .5-44 .5-2.4 0-4.7 0-7.1.1-5 .2-9.5.3-14 .5h-.3c-4.5.2-9.1.3-14.1.5 0 0-3.1.2-4.8.2s-3.3 0-3.5 1.9 1.1 3.3 1.1 3.3c.1.2.4.4.7.5 1 .5.3 1.7.3 1.7s-.6.6-.6 1.2v.2s.1.2.1.2.2.4.8.5.6 1.3 0 1.8c-.6.6-1.2 1.5-.7 2.5s2.4 1.8 2.4 1.8 1 .5 1 1.2-.4 1.4-2.3 2.1-4 1.5-4.1 2.3c-.2.8-.2 1.6 1 2.2 1.1.6 1.2 1.6.9 2zm281.1 40.1c-.1 0-.2-.1-.3-.1-.2-.1-.4-.2-.6-.2-.7-.3-.6-1.1-.6-1.1 0-.2.1-.4.1-.5.2-1.1-.8-1.4-1.1-1.4-2.4-.3-4.8-.1-6.4-1.8-.3-.3-1.5 0-2.2-.1-3.1 0-6.2 0-9.2-.2-1.3-.1-2.7-1.1-3.7-.9-2 .4-3.1-.2-4.1-1.1-.9-.7-2.1-.5-2.1-.5-1.2.2-2.3.4-3 .9-2.5 1.7-4.9 1.3-7.3.1-1.5-.8-3.1-1.2-4.7-1.4s-.1 0-.2 0c-.3 0-.6-.1-.8-.1-2.6-.3-9.3-.9-10.2-1-1.2-.1-4 1.2-6 .8-2.1-.3-7.1-.3-7.1-.3s-5.4.2-9.6.3c-1.2 0-2.7.2-4.3.5-.3 0-.5 0-.7.1-3.7.7-7.7 2.4-9.4 2.8-.2.1-.4.1-.6.2-2.6.2-4.4-.9-4.8-2.1s-.1-2.4.3-3.4.1-1.5-.5-1.8-2.9-.3-2.9-.3c-.1 0-.3 0-.4 0-4.9.3-9.7.8-14.6 1.2-5.3.5-10.6 1.3-16 1.5l-14.1 1.4-10 .9c-9.4.5-18.8.2-28.3.7l-7.7.2h-1.3-.1c-5.3.2-20.2.9-20.2.9-4 .1-8 .6-11.9 1-12.8 1.5-25.2 4.5-37.8 6.9-5 .9-9.2 2.9-14 4-2.9.7-3.9 1.6-3.9 3.5 0 .2.3 2 2 1.9 1.3-.1 2.7-.2 3.9-.5s1-.2.9.5-.1.7-.7.8c-.6 0-1.2.1-2.1.3-.7.1-1.3.2-1.9.3-.4.2-.9.6-.8 1.4.5 1.7 2.9.8 4.3 1 .2 0 .5.2.4.9-.7 1.3-2.5.8-3.8 1.1-.6.2-1 .5-1.5.8 0 0-.9.8-.2 1.8.4.3.7.6 1.1.7 2.2.4 3.2 1.3 3.5 2.7 0 .1.1.7-.9 1.1-.6.1-1.2.3-1.7.4s-1 .2-1.5.3c0 0-1.2.5-.6 1.6s2.3 1.2 2.3 1.2 1 .2 1 .9c-.1.7 0 2.2 2.9 1.6 0 0 1.3-.1 2 1.5 0 0 1.1 2.6-.2 2.8-1.6.1-3.1.3-4.6.7-.3.1-.6.4-.6 1.2s.2 1 .9.8c.7-.1 1.2.1 1.2.1s.6.5-.7 1c-.6.2-1.1.5-1.7.7-.3.1-.8.4-.7.8.2.5 0 1 2 1.4 1.6.3 3.2.6 4.9.9.2 0 .4.1.6.1.3.1.5.2.5.5 0 .5.2.9-.4 1.1-.1 0-.2.1-.3.1s-.1 0-.1 0c-1.3.4-2.8.6-4.1 1 0 0-1.7.1-1.3 2.7s6 1.5 6.2 1.5c.2-.1 19.9-2.6 19.9-2.6s.3 0 .9 0c10-.1 36.5-1.5 36.5-1.5 2.8-.8 14-.5 15.6-.9s2.4-.7 4.7-.3c2.4.3 6.1 0 7.7-.2 1.7-.2 4.4 1.2 6.3.3 1.3-.6 3-.8 4.9-.9.8 0 37.7-1.3 48.9 0s2.2.5 3.7 1.8c.9 1 2.5 1.6 5.2.7 4.9-1.7 11-2.4 18.1-3 .4.1.8.1 1.2.1 2 .1 10.2.2 11.5 0s3.4-.1 4.7.1c1.2.2 5.5 1.3 7 1.4.2 0 .5 0 .8.1.6 0 1.1.1 1.7.1 1.8.1 4.2.2 5.8-.2 2.6-.5 3-.1 4.4.3s2.8.9 4.2 1c8.2.6 16.3 1.3 24.5 1.9 1 .1 2.5-.4 3.7-1.6.2-.2.4-.5.6-.7.4-.5.1-.6.1-2-.1-1.8 1.2-1.3 1.2-1.3s1.9 0 2.5-.9 0-1.6 0-2.3c0-.6.1-1.6 1.9-2.1.7-.2 1.1-.4 1.4-.7.2-.3.3-.5.5-.8 1.1-1.8-.8-2.3-.4-3.5s3.1-1.7 3.1-1.7c1.1-.3 2.1-.5 3.2-.6 2.4-.5 2.7-1.9 2.7-1.9.4-1.8-.3-2.5-.5-2.9s-.3-1.8 1.3-2.7c.9-.5 1.5-1.3 1.7-1.8.1-.2.2-.4.3-.6.9-2-.2-3.3-1-3.8-.5-.4-1.3-1.6-1.2-2.8.6-1.3 2.3-1.1 3.4-.8.3.1.6.3.9.3.7.2 1.4.1 1.8-.6.2-.4.3-.9.4-1.4.1-1-.1-1.4.9-2s1-.3 1.7-1.8c.6-1.6.8-2.1 1.7-2.9s1.9-1.3 1.9-1.3c.1-.1.2-.3.3-.5.6-1.1.2-1.6-.2-1.8z" fill="#fff000"/><path d="m77 97.3v-33h14.5c6.9 0 10.8 4.7 10.8 10.3s-3.9 10.3-10.8 10.3h-8.7v12.3zm19.3-22.7c0-3.2-2.4-5.2-5.6-5.2h-7.9v10.5h7.9c3.2 0 5.6-2.1 5.6-5.3z"/><path d="m129.3 97.3-7.3-12.3h-5.7v12.3h-5.8v-33h14.5c6.5 0 10.8 4.2 10.8 10.3 0 5.9-3.9 9-7.8 9.7l8.1 12.9zm.5-22.7c0-3.2-2.4-5.2-5.6-5.2h-7.9v10.5h7.9c3.2 0 5.6-2.1 5.6-5.3z"/><path d="m168.8 97.3-2.4-6.3h-15.1l-2.4 6.3h-6.6l12.9-33h7.2l12.9 33zm-10-27.1-5.9 15.7h11.9z"/><path d="m179.7 80.8c0-10.3 7.8-17 17.3-17 6.4 0 10.6 3.1 13.3 6.9l-4.7 2.7c-1.7-2.5-4.8-4.4-8.5-4.4-6.5 0-11.4 5-11.4 11.9s4.8 12 11.4 12c3.4 0 6.3-1.6 7.8-3v-5.1h-9.9v-5.1h15.6v12.4c-3.3 3.6-7.9 6-13.6 6-9.5-.2-17.3-7-17.3-17.3z"/><path d="m219.6 84.3v-20h5.8v19.8c0 5.2 2.9 8.6 8.4 8.6s8.4-3.4 8.4-8.6v-19.8h5.8v19.9c0 8.2-4.7 13.6-14.2 13.6-9.5.1-14.2-5.4-14.2-13.5z"/><path d="m257.7 97.3v-33h22.6v5.1h-16.8v8.6h16.5v5h-16.5v9.1h16.8v5.1h-22.6z"/><path d="m74.8 259.3c0-10.1 7.6-17 17.3-17 6.7 0 10.8 3.5 13.2 7.4l-4.9 2.5c-1.6-2.7-4.7-4.8-8.3-4.8-6.5 0-11.4 5-11.4 11.9s4.8 11.9 11.4 11.9c3.6 0 6.7-2 8.3-4.8l4.9 2.5c-2.5 4-6.6 7.4-13.2 7.4-9.7 0-17.3-6.9-17.3-17z"/><path d="m116.1 275.7v-33h22.6v5.1h-16.8v8.5h16.5v5.1h-16.5v9.1h16.8v5.1z"/><path d="m174 275.7-17.2-23.5v23.5h-5.8v-33h5.9l16.8 22.9v-22.9h5.8v33z"/><path d="m197.9 275.7v-27.9h-10v-5.1h25.7v5.1h-10v27.9z"/><path d="m240.8 275.7-7.3-12.3h-5.7v12.3h-5.8v-33h14.5c6.5 0 10.8 4.2 10.8 10.3 0 5.9-3.9 9-7.8 9.7l8.1 12.9h-6.8zm.5-22.6c0-3.2-2.4-5.2-5.6-5.2h-7.9v10.5h7.9c3.3-.1 5.6-2.1 5.6-5.3z"/><path d="m259.4 275.7v-33h22.6v5.1h-16.8v8.5h16.5v5.1h-16.5v9.1h16.8v5.1z"/><path d="m76.6 167.1s.1.1 0 0c0 .1.1.2.1.2.3.5.6 1 .9 1.4v.1c.3.4.6.9 1.1 1.3.1 0 .1 0 .1.1.8.8 1.6 1.6 2.6 2.2.1 0 .1.1.2.1s.3 0 .4.1c.2.1.3.2.6.3h.1.2c.1 0 .2 0 .3.1.3.2.6.3.8.4h.2c.2 0 .4 0 .9.1.2 0 .4.2.5.4 0 .1.1.1.2.1.2.1.4.1.6.1.1 0 .2 0 .3-.1s.3-.2.4-.2c.2 0 .3.1.5.2 0 0 .1.1.2.1s.3.1.4.2c.1 0 .1.1.2.1h.1s.2-.1.2-.2c0-.3.3-.5.6-.5s.6 0 1-.1h.1c.2-.1.3-.1.5 0h.1c.8 0 1.8-.5 2.3-.7.1 0 .1-.1.1-.1.1-.1.1-.2.2-.2.1-.1.3-.2.4-.3.2-.1.4-.1.6-.1h.1.2s.1 0 .2 0c.4-.3.8-.6 1.2-.9.1-.1.1-.1.2-.1h.1c.1-.1.2-.1.2-.2l.1-.1.2-.1c.1 0 .2-.1.2-.1h.1c.6-.4 1.1-1 1.7-1.6.2-.2.3-.4.5-.6.1-.1.3-.2.4-.2s.1 0 .2-.1c.1-.2.2-.2.3-.4 0-.2.2-.3.4-.4.1-.1.3-.1.4 0 .1 0 .2 0 .3-.1 0 0 0 0 0-.1s.1-.1.1-.2l.1-.2s.1-.1.1-.2v-.1c0-.1.1-.2.2-.3s.2-.2.3-.3.3-.2.4-.2.1 0 .2-.1c0 0 .1-.1.2-.2l.1-.1.1-.1c.1-.1.1-.2.2-.3 0-.1 0-.2 0-.2-.1-.1-.1-.3 0-.5 0-.2.1-.5.3-.6l.1-.1s.1 0 .1-.1c.1-.1.1-.2.2-.2.1-.3.4-.5.6-.5.1 0 .2 0 .2-.1.1-.1.2-.2.3-.4l.2-.2c.1-.1.1-.1.3-.2l.1-.1c.1-.1.2-.2.3-.3 0 0 .1 0 .1-.1.1 0 .1-.1.1-.2s.1-.3.2-.4.1-.1.1-.2 0-.2.1-.3c0-.1.1-.2.3-.5.1-.1.2-.2.3-.2h.1s.2-.1.3-.2.3-.1.4-.1.2-.1.3-.2l.3-.5c0-.1 0-.1 0-.2 0-.3.1-.5.4-.7 0 0 .1 0 .1-.1.1 0 .1-.1.1-.1.1-.2.4-.4.7-.3h.1.1c.1 0 .2-.1.2-.1.2-.3.3-.5.5-.8 0-.1.1-.3.2-.5v-.1c0-.1 0-.2.1-.3.2-.4.2-.8.2-1.1 0-.1 0-.1-.1-.2s-.2-.3-.2-.4c0-.2 0-.4-.1-.6v-.1c0-.3-.2-.7-.3-.9 0-.1-.1-.1-.2-.1s-.2-.1-.3-.2c-.2-.3-.5-.5-.7-.6-.3-.2-.5-.4-.7-.5l-.1-.1c-.2-.1-.4-.2-.9-.4-.3 0-.6 0-.9 0-.2 0-.3 0-.5-.1-.1 0-.1-.1-.2 0-.1 0-.1.1-.2.1-.2.3-.4.6-.5.9 0 .1-.1.2 0 .2.1.3 0 .6-.2.7s-.4.2-.6.1c-.1-.1-.3 0-.4.1l-.1.1v.1c0 .2-.1.4-.3.5-.1 0-.1.1-.2.1-.1.1-.2.2-.4.3-.1 0-.1.1-.1.2s-.1.2-.1.3l-.2.2c-.1.1-.2.2-.3.3s-.2.1-.3.2c-.1 0-.1 0-.2.1l-.4.5-.1.1c0 .2-.1.3-.3.4-.3.3-.6.5-1 .7-.1 0-.1.1-.1.2-.1.2-.2.3-.3.4 0 0-.1.1-.2.2s-.1.2-.2.2c0 0-.1 0-.1.1 0 0 0 .1-.1.1l-.4.4c-.1.1-.1.1-.3.2 0 0 0 0-.1 0-.1.1-.3.3-.5.7-.1.2-.2.3-.4.3 0 0-.1 0-.1.1l-.8.7s0 0-.1.1c-.5.4-1.3 1-1.7 1.5l-.1.1c-.1.1-.3.3-.5.6l-.1.1-1.1 1.2c-.1.1-.1.1-.2.1 0 0 0 0-.1 0-.4.4-.8.7-1.2 1.1-.3.3-.6.6-.9.9-.1.1-.2.1-.2.1s0 0-.1 0c-.4.3-.8.5-1 .7 0 0-.1 0-.1.1-.4.2-.8.5-1.2.9v.1s-.1.1-.2.2-.2.2-.3.2c-.2.1-.4.3-.6.3-.1.1-.3.1-.4 0-.1 0-.1 0-.2 0-.3.1-.6 0-.8-.1-.1 0-.2-.1-.3-.1l-.1-.1c-.1-.1-.2-.2-.3-.3s-.1-.2-.2-.4-.3-.6-.5-1c-.1-.3-.3-.8-.4-1.3-.1-.4-.2-.8-.2-1.1 0-.1 0-.1-.1-.2s-.2-.2-.2-.4l-.1-.7c-.1-.5-.2-1.1-.3-1.8 0-.1 0-.1-.1-.2s-.2-.3-.2-.4c0-.7.1-1.6.1-2.6v-.1c0-.1 0-.1 0-.2.2-.8.3-1.7.4-2.5v-.4c.1-1 .2-2 .5-2.8v-.1c0-.2.1-.5.2-.7 0-.1 0-.1.1-.2l.3-.6v-.1c.1-.1.2-.3.3-.4.1-.2.2-.4.3-.5 0-.1 0-.2 0-.3s-.1-.1-.1-.2v-.1c-.1-.2-.1-.5 0-.7s.2-.4.2-.6c.1-.3.2-.6.4-.9 0 0 .1-.1.1-.2s0-.3.2-1c.1-.3.2-.7.2-1 0-.1 0-.2.1-.3s.1-.3.2-.4c0-.1.1-.2.2-.3.1 0 .1-.1.1-.2.1-.6.3-1.1.6-1.5.2-.4.4-.7.5-1.1v-.1c0-.1 0-.3 0-.4l.2-.4c0-.1.1-.1.1-.2.2-.3.5-.7.9-1.7v-.1c0-.1 0-.3.1-.4s.1-.2.2-.2c0 0 0 0 0-.1.1-.3.2-.5.2-.6v-.1c0-.1 0-.3 0-.4s0-.2.1-.3c0-.1 0-.1.1-.2s.2-.3.2-.4c0 0 .1-.1.1-.2.3-.5.4-.7.4-.7v-.1l.3-.6s0 0 .1-.1l.2-.3c.1-.1.2-.2.3-.3.1 0 .1-.1.1-.1.4-.9.6-1.2 1.1-2l.1-.2c.1-.1.2-.3.3-.3 0 0 .1 0 .1-.1.3-.4.7-.9 1-1.4.1-.2.2-.3.2-.4v-.1c0-.1.1-.3.2-.4s.1-.1.2-.2c0-.1.1-.1.1-.2s0-.2.1-.3c.1-.2.4-.4.6-.4.1 0 .2-.1.2-.1l.2-.4s0-.1.1-.1l.2-.3c.2-.2.3-.4.5-.6.1-.1.2-.2.3-.2 0 0 .1 0 .1-.1s.1-.1.1-.2.1-.1.2-.1c0 0 .1 0 .1-.1.3-.4.5-.8.7-1.1 0 0 0-.1.1-.1.2-.2.3-.5.5-.6.1-.1.3-.2.5-.2.1 0 .1 0 .2-.1s.1-.1.2-.2c0 0 .1-.1.1-.2 0-.2.1-.4.3-.5s.4-.3.7-.4h.1c.2-.1.3-.1.5 0s.3.2.4.4.1.5 0 .7v.2s.1.3.1.4v.2.1.2s0 .1.1.2.2.2.2.4 0 .4-.1.6c0 0 0 .1-.1.2 0 .1 0 .2.1.3s.1.2.1.3v.2c.1.4 0 .9 0 1.3v.6c0 .5-.1 1 0 1.2 0 .2 0 .3-.1.5-.2.6-.2.8-.1 1.1v.2c0 .3-.1.6-.3.7-.1.1-.2.2-.1.4.1.1.1.2 0 .4v.4.3c0 .1-.1.2-.1.3-.1.1-.2.2-.3.3-.1 0-.1.1-.1.1-.2.5-.3.7-.3.8v.1c.2.3-.1.6-.2.7l-.1.1c0 .1-.1.2-.1.3v.1c-.1.2-.2.5-.3 1.2l-.2 1.1c-.1.5-.2.9-.3 1.3v.2s0 0 .1.1c.2.2.6.7 1.4 1.3.4.3.8.6 1.4.9.1 0 .2.1.3 0 .2-.1.4-.1.6 0s.5.2.7.3c.1 0 .2 0 .3-.1.2-.2.5-.2.7-.1h.2c.4-.1.6-.2.6-.3.2-.1.3-.2.4-.3.1-.2.2-.3.4-.5l.1-.1c.1-.1.2-.2.4-.4l.2-.2c.1-.1.2-.2.3-.2.2-.1.3-.2.4-.3.1 0 .1-.1.1-.1.1-.1.1-.2.1-.3s0-.2 0-.2c-.1-.2-.1-.4 0-.6.5-1 .6-1.8.8-3 0-.2.1-.3.2-.4s.1-.2.1-.3 0-.2.1-.3c0 0 0 0 0-.1.2-.7.3-1.4.4-2 0-.1 0-.2.1-.2v-.1c.2-1.1.2-1.7.2-2.1 0-.1 0-.3.1-.4v-.1-.1-.1c.2-1 .2-1.6.2-2.2s-.1-1.1-.2-1.8c0-.2 0-.3.1-.5 0-.1 0-.1 0-.2s0-.2 0-.4v-.1c0-.4-.1-1-.2-1.6-.1-.4-.4-1.9-1.4-2.9-.1-.1-.1-.1-.1-.2 0 0 0-.1-.1-.1-.6-.5-1.2-1-1.8-1.3-.3-.2-.5-.3-.8-.4l-.3-.1c-.3-.1-.5-.3-.8-.4l-.2-.1c-.5-.3-.9-.5-1.4-.7-.4-.1-.7-.1-1-.1s-.5.1-.9-.1c-.5-.2-.9-.1-1.1 0s-.7.1-1.5.1-1.8.6-1.8.6l-.8.2c-.4.1-.7.3-1 .6-.8.9-1.5 1.7-2.2 2.4 0 0 0 0-.1.1-.5.5-.9 1-1.4 1.5-1.3 1.4-2.4 2.6-3.4 3.9v.1c0 .1-.1.3-.2.4s-.3.3-.5.7c-.1.2-.2.3-.4.3-.1 0-.1.1-.1.1l-.4.6v.2s0 .2 0 .2c0 .1-.1.2-.1.3-.1.2-.2.3-.4.4-.1 0-.1.1-.1.1-.2.4-.3.5-.3.6s-.1.3-.2.4c0 0 0 0-.1.1 0 0 0 .1-.1.1 0 0-.1.1-.2.3-.3.5-.6 1-.8 1.5 0 .1-.1.1-.1.2-.4.7-.7 1.4-1.1 2.2v.2.3c0 .2-.1.4-.2.6s-.1.4-.1.5v.1c-.1.3-.3.7-.4 1l-.2.4c0 .1-.1.1-.1.2-.1.2-.2.5-.2.6v.1c-.1.1-.1.2-.2.3v.1c-.1.4-.2.8-.4 1.3 0 0 0 .1-.1.1l-.1.1c-.1.1-.2.3-.4.5-.1.1-.2.3-.3.4 0 .1-.1.2 0 .2.1.1.1.3 0 .4v.1c0 .2-.1.4-.2.6-.2.1-.4.5-.7 1.1-.2.3-.3.6-.4.8v.2.2c0 .2-.1.5-.3.6-.1 0-.1.1-.1.2l-.2.6c-.1.4-.2.7-.2.9s-.1.3-.2.4c0 0-.1.1-.1.2v.1c-.2.9-.5 1.8-.7 2.8-.4 1.5-.9 3-1.1 4.7v.2c.1.2.1.4 0 .6-.1.3-.3.6-.4.9v.1c0 .2 0 .3.1.4.1.3.1.6 0 1v.2c.1.1.1.3.1.4-.1.6-.2 1.1-.2 1.6l-.1 1.2v.9c0 1.5.4 2.9 1 4.3-.3.2-.1.7.2 1.2zm37.1-4v.1.2.4c0 .3.1.5.1.8.1.3.2.5.3.7s.2.4.3.5c0 .1.1.1.2.1s.2.1.3.1c0 0 .1 0 .1.1h.1c.1 0 .3.1.4.2s.1.1.2.2c0 0 .1.1.2.1.3 0 .5.2.6.4 0 .1.1.1.1.2.1 0 .1.1.2.1s.1 0 .2 0c.2-.1.4-.1.6.1h.2.1c.1 0 .2-.1.2-.2 0-.2.2-.4.4-.5.1-.1.3-.1.4-.2.3-.2.5-.6.5-1.1 0-.2 0-.4 0-.6s.1-.3.2-.4.1-.2.1-.3c-.1-.2 0-.5.1-.6 0 0 .1-.1.1-.2 0-.3.1-.8.1-1.1v-.1-.1-.1c0-.3.2-.5.5-.6.1 0 .2-.2.2-.3-.1-.3.1-.6.4-.7.1 0 .1-.1.1-.1s0-.1.1-.2c0-.1 0-.1.1-.1v-.1c0-.3 0-.4-.1-.5 0 0 0 0 0-.1-.1-.1-.2-.3-.2-.5s.2-.3.3-.4l.1-.1s0-.1.1-.1c.1-.1.1-.2 0-.3s-.1-.2-.1-.4.1-.4.3-.5c.1-.1.1-.1.2-.1.1-.1.2-.2.2-.3s0-.1 0-.2c-.1-.2 0-.5.2-.6.1 0 .1-.1.1-.2v-.1c0-.2 0-.3 0-.4v-.1c0-.1 0-.1 0-.2s0-.2 0-.3v-.1c-.1-.1-.1-.3-.1-.5v-.1c0-.1 0-.1 0-.3 0-.1.1-.2.2-.4l.1-.1c0-.1.1-.1.1-.2 0 0 .1-.1.1-.2v-.1s0 0 0-.1v-.1c0-.1 0-.3.1-.4 0-.1.1-.1.1-.2v-.1c0-.2 0-.4.2-.6 0-.1.1-.1.1-.2 0-.2.1-.4.2-.5 0 0 .1-.1.1-.2v-.2-.1c0-.2 0-.4.2-.6.1-.1.1-.2.1-.3s0-.2 0-.3 0-.2.1-.3c0-.2.1-.3.3-.4.1 0 .1-.1.1-.2 0-.2 0-.4-.1-.5v-.1-.1c0-.1 0-.3.1-.4.2-.3.3-.6.3-.8v-.1c0-.1 0-.1 0-.2s0-.1 0-.2v-.3c0-.1 0-.1 0-.2v-.1c0-.1 0-.2.1-.3 0-.1.1-.3.1-.5v-.1-.1c0-.1 0-.3.1-.4 0-.1.1-.2.2-.3s.1-.2.2-.3l.1-.1s0-.1.1-.1c0-.1 0-.1.1-.1.1-.1.1-.3.1-.4 0-.2 0-.3.1-.4 0 0 .1-.1.1-.2s0-.3.1-.4v-.1c0-.1.1-.2.2-.5.1-.2.2-.3.2-.4s.1-.2.2-.3c.2-.2.3-.6.4-.9.1-.2.1-.4.1-.6.1-.2.1-.4.1-.6 0-.1 0-.2 0-.2-.1-.1-.1-.2 0-.4.1-.3.1-.6.1-.9v-.1c-.1-.2 0-.5.1-.7.1-.1.1-.2.2-.3s.1-.3.3-.4c0-.1.1-.1.1-.2s0-.2.1-.3c.1-.2.1-.4.2-.7 0-.1 0-.1 0-.2s.1-.2.2-.3l.1-.2c.1-.2.1-.3.2-.4 0-.1.1-.2.2-.3.2-.2.3-.5.4-.8 0-.1.1-.2.2-.3s.1-.2.1-.3 0-.3 0-.4.1-.2.1-.3 0-.1 0-.2 0-.2 0-.3c0 0 0 0 0-.1s0-.1 0-.2c0-.2.1-.4.1-.7 0-.1 0-.1 0-.2-.1-.2-.1-.4 0-.6 0-.1.1-.2.2-.3s.1-.1.1-.2.1-.3.2-.4l.1-.1s0-.1.1-.1c0 0 0 0 0-.1.2-.3.2-.7.2-1 0-.4.1-.8.3-1.1 0 0 0-.1.1-.1 0-.1 0-.2.1-.3 0-.1.1-.1.1-.2l.1-.1.1-.1.2-.2c.1-.1.1-.3 0-.4-.1-.2-.1-.4-.1-.6l.2-.5v-.1c.2-.5.3-.8.5-1.1 0 0 0-.1 0-.2s0-.3.1-.4.1-.2.2-.2.1-.1.1-.2c.1-.4.1-.8.1-1.1 0-.3-.1-.5-.3-.7-.1-.1-.2-.3-.2-.5 0-.1 0-.2-.1-.2-.3-.3-.5-.4-.8-.3-.2.1-.4 0-.6-.2l-.1-.1c-.1 0-.2-.1-.2-.2l-.1-.1c-.4-.2-1.2-.5-1.5-.5-.1 0-.2 0-.3 0s-.1 0-.2 0-.1 0-.2 0l-.3-.1c-.3-.1-.4-.1-.8-.2-.1 0-.1 0-.2 0s-.3-.1-.4-.2l-.2-.1c-.1-.1-.2 0-.3 0l-.5.4s-.1.1-.1.2 0 .1-.1.2c0 0 0 .1-.1.1 0 .1-.1.1-.1.2s-.1.2-.2.2-.1.1-.1.2c0 .2-.1.4-.2.6 0 .1-.1.2-.1.3 0 .2-.1.3-.2.4-.1 0-.1.1-.1.2s0 .2 0 .2c0 .2-.1.4-.3.6l-.1.1c-.1.2-.1.2-.1.3v.1c0 .1 0 .3-.1.5 0 0 0 .1-.1.1v.1.3.3c0 .3 0 .6-.2.9 0 .1-.1.2 0 .3.1.2 0 .4 0 .5-.1.1-.1.2-.2.3-.1.2-.1.3-.2.5 0 .1 0 .1-.1.2v.2s0 .2 0 .3v.3.4c0 .2-.1.3-.2.5-.2.2-.3.6-.4 1l-.1.3c0 .2-.2.4-.4.5-.1 0-.1.1-.1.1-.1.2-.1.2-.1.3v.1c0 .2 0 .3-.1.5 0 0 0 .1-.1.1v.1.4.2.4c0 .1 0 .1-.1.2-.2.4-.3.6-.3.8v.4c0 .1 0 .2-.1.3 0 .1-.1.2-.2.2 0 0-.1.1-.1.2s0 .1-.1.2l-.1.1c-.2.4-.5 1-.6 1.6 0 .1 0 .1-.1.2v.1c0 .5-.3.9-.5 1.4l-.1.3c-.2.4-.3.8-.2 1.1.1.1.1.3.1.4v.3c0 .1 0 .2-.1.2-.1.2-.2.5-.3.7 0 .2-.1.3-.2.4l-.1.1c-.2.4-.2.7-.2 1 0 .1-.1.3-.2.4s-.2.2-.2.3-.1.2-.1.4c0 .1 0 .3-.1.4v.1c-.2.3-.3.6-.4.9-.1.5-.2.9-.2 1.2v.4.2c0 .1-.1.2-.2.3l-.1.1-.1.5v.1.2.1c0 .2-.1.3-.2.4 0 .1-.1.1-.1.2v.3l-.1.1v.2c.1.2.1.4 0 .6s-.2.6-.4 1.1l-.3 1.2c0 .1 0 .1-.1.2v.2.2c-.1.3-.1.6-.1.8s0 .3 0 .4v.1.1c0 .1-.1.2-.1.2 0 .1-.1.2-.2.2 0 0-.1.1-.1.2v.2c0 .2 0 .3-.1.4s-.1.2-.2.3c-.1.2-.1.3 0 .5v.1.2.3s0 .3 0 .4-.1.2-.1.4c-.1.2-.1.3-.1.4l-.1.2c-.1.2-.1.3-.2.6-.1.2-.1.5-.1.9 0 .1 0 .3-.1.4 0 0 0 .1-.1.1v.2c0 .1.1.3 0 .4v.2.2c.1.1.1.3 0 .5s-.1.4-.2.7c-.1.5-.1.9-.1 1.3v1.4c0 .2 0 .4.1.6 0 .3.1.5 0 .7zm62.2-39v.2c0 .2-.1.4-.3.5-.1 0-.1.1-.1.2l-.2.5c0 .1-.1.2-.1.2s0 0 0 .1c-.1.2-.1.4-.1.6s-.1.4-.3.5c0 0 0 0-.1.1s-.1.2-.1.3v.1c0 .1 0 .2-.1.4 0 0 0 .1-.1.1v.1.4s0 .4 0 .6c0 .1 0 .1-.1.2l-.1.1c-.2.3-.4.7-.5 1.2 0 .1 0 .1-.1.2v.1c-.1.4-.3.8-.5 1.2-.3.6-.5 1-.3 1.3.1.1.1.2.1.4v.2c0 .1 0 .2-.1.3v.1l-.2.6c0 .1-.1.2-.2.3v.1l-.1.1c-.3.8-.6 1.7-.9 2.5-.3.7-.6 1.5-.9 2.3 0 .1 0 .2-.1.2v.1s-.1.2-.2.3l-.1.1v.2.2c.1.2.1.4 0 .5v.1c0 .1-.1.1-.2.2l-.1.1v.1l-.2.5v.2.3.1.4c-.1.4-.3.8-.4 1.2-.1.2-.2.6-.2.7v.1.1c0 .2 0 .3-.1.4-.1.2-.2.5-.2.7v.2c0 .2-.1.3-.2.5-.1.1-.1.2 0 .3s.1.2.1.3c0 .3-.2.5-.5.6-.1 0-.2.1-.2.3v.3.2c0 .2-.1.3-.2.4s-.1.2-.1.3c.1.1.1.3 0 .5 0 .1-.1.3-.2.4-.1.3-.2.7-.3 1 0 .1-.1.2-.1.2v.1c0 .1-.1.2-.2.3-.1 0-.1.1-.1.2v.1.1.2c0 .1 0 .3-.1.4s-.1.2 0 .3.1.3.1.4 0 .3-.1.4c-.1.3-.1.5-.1.7 0 .1 0 .3-.1.4v.2c0 .2 0 .4-.1.5s-.1.2 0 .3c0 .1.1.2 0 .3l-.1.6v.2.1.2c0 .3-.1.6-.1.9v.1.1.1.3c0 .1-.1.2-.1.3-.1.2-.1.4-.2.6 0 .1 0 .2-.1.4 0 .1 0 .2.1.2.1.1.2.3.2.4s0 .2.1.2c.1.1.2.2.2.3v.1c.1.2.1.4 0 .6v.1.1.2c0 .1.1.2.2.2.2 0 .3.2.4.3 0 0 0 .1.1.1l.1.1s.1.1.2.1.3.1.4.1.1.1.2.1h.1s.2-.1.2-.1c.1-.2.3-.3.5-.4h.2c.2 0 .3-.1.6-.1h.1.2.1c.1 0 .1-.1.2-.1h.1c.2-.1.4-.1.6-.1l.2.1h.1.1.1l.6.2h.1s.3.1.5-.1.2-.2.1-.5c-.2-.3-.1-.6.1-.8l.1-.1.1-.4c.1-.2.2-.4.4-.4.1 0 .1-.1.2-.1 0-.1 0-.1 0-.2l-.1-.1c0-.1 0-.2 0-.2 0-.1 0-.1 0-.1-.1-.2-.1-.4 0-.6l.3-.3c.1 0 .2-.1.2-.3 0-.1 0-.2.1-.3s.2-.3.3-.3c.1-.1.2-.3.1-.4 0-.2 0-.4.1-.5s.2-.2.3-.3c.1 0 .2-.1.2-.3s0-.3-.1-.5v-.1c0-.1 0-.2 0-.3s0-.3 0-.4 0-.1 0-.2c-.1-.2-.1-.5.1-.7l.1-.1.1-.1c0-.1 0-.1.1-.2 0-.1.1-.1 0-.2 0-.1 0-.3 0-.4s0-.2-.1-.3c-.2-.2-.3-.4-.2-.7 0-.1 0-.1.1-.2 0 0 0 0 .1-.1s.2-.2.4-.2c.1 0 .2-.1.2-.2v-.1-.1-.3-.1c0-.2 0-.4.1-.6v-.1c.1-.1.1-.1.1-.2s0-.1 0-.2 0-.1.1-.3v-.1c0-.1.1-.2.1-.2s.1-.1.1-.2c0-.2.1-.3.2-.4s.1-.2.1-.2c0-.2 0-.3.1-.5 0 0 .1-.1.1-.2s.1-.2.2-.3.1-.1.1-.2c0-.2 0-.3-.1-.5v-.1-.1c0-.2 0-.3.1-.5s.1-.5.1-.7v-.1c0-.1 0-.1.1-.3 0-.1 0-.1.1-.2l.1-.1s0 0 0-.1.1-.1.1-.2c0 0 0-.1.1-.1.1-.2.2-.4.1-.6 0-.1 0-.2 0-.3v-.1c0-.1.1-.3.2-.4.1 0 .1-.1.1-.2s.1-.2.2-.4c.1-.1.1-.3.2-.4 0-.1.1-.2.2-.3.2-.2.4-.7.5-1.2.1-.3.1-.5.2-.6 0-.1 0-.2 0-.2-.1-.1-.1-.2 0-.4s.1-.5.2-.8v-.1c0-.1 0-.2 0-.3l.1-.4c0-.1 0-.1.1-.2.1-.2.1-.3.2-.4 0-.1.1-.1.1-.2.3-.3.4-.7.4-1.2v-.1c0-.1 0-.2.1-.3s.1-.2.1-.3 0-.1 0-.2c.2 0 .3-.2.2-.3s0 0 0-.1c0 0 0 0 0-.1 0-.1 0-.1.1-.1 0-.1.1-.1.1-.1l.2-.2c.1-.1.1-.2.1-.3-.1-.2 0-.5.1-.7.2-.3.3-.7.4-1.1.1-.3.1-.5.2-.6 0-.1 0-.2 0-.2-.1-.1-.1-.2 0-.4v-.2-.1s.1-.3.1-.5c0 0 0 0 0-.1s0-.2 0-.3 0-.1 0-.2 0-.2.1-.3l.1-.1c.1-.1.1-.2.2-.3 0-.1.1-.1.1-.2.3-.3.4-.7.4-1.3v-.1c0-.1 0-.1 0-.2.1-.2.1-.4.2-.6 0 0 0-.1.1-.1v-.1-.1l.1-.2c0-.1.1-.1.1-.2l.1-.1.1-.1.2-.2c.1-.1.1-.2 0-.4 0-.1-.1-.1-.1-.2-.1-.2 0-.5.2-.7.1 0 .1-.1.1-.2 0-.2.1-.4.1-.6 0-.1.1-.2.1-.3s.1-.3.2-.4.1-.1.1-.2c0-.3-.1-.5-.2-.6-.2-.1-.3-.4-.2-.6 0-.1 0-.1 0-.3v-.1c0-.2.1-.4.1-.8 0-.2 0-.6-.1-.7 0-.1-.1-.1-.1-.2s-.1-.2-.1-.3c0 0 0-.1-.1-.1-.1-.3-.2-.4-.3-.6-.1-.1-.2-.3-.4-.4l-.1-.1c-.1 0-.2-.1-.2-.1-.1-.1-.2-.2-.3-.2-.1-.1-.2-.1-.3-.2l-.1-.1c-.2-.2-.3-.2-.5-.2h-.1l-.2-.1c-.1 0-.1-.1-.2-.1 0 0-.1 0-.1-.1-.1 0-.1 0-.2-.1h-.1c-.2-.1-.3-.2-.5-.2-.1 0-.1 0-.2 0s-.2 0-.4 0c-.1 0-.2 0-.3 0s-.2 0-.3-.1c-.1 0-.2 0-.3 0-.2.1-.4.1-.6 0-.1 0-.2 0-.3 0-.2.1-.3.2-.3.3 0 0 0 .1-.1.1 0 .2-.1.3-.3.4s-.1.1-.1.2c0 0 0 .1-.1.1v.1s0 .2 0 .4v.6c0 .3 0 .5-.1.7v.2c.1.2.1.4 0 .6-.1.1-.2.3-.2.4s0 .1-.1.2c0 .1-.1.1 0 .2v.2.2.5c0 .2-.1.3-.2.5-.5.5-.5.8-.6 1.4zm-41.5 34.3v.3c0 .2 0 .4.1.6 0 .3.1.7.1 1l.4 2.6c.1.6.3.9.4 1l.5.6c.2.2.3.4.5.5.2.2.3.4.5.5l.4.4s.1.1.2.1.3.1.4.1c.1.1.2.1.3.2.1 0 .1.1.2.2 0 0 0 0 .1.1.5.3.9.4 1 .5h.2c.1-.1.3-.1.5 0h.1c.1 0 .1 0 .3.1.1 0 .2.1.4.1h.1.3s.2 0 .3.1h.1l.6.1c.1 0 .2 0 .2-.1.1-.1.2-.1.4-.1.1 0 .3 0 .4.1h.1c.2 0 .3.1.4.2.1 0 .1.1.2.1h.1c.1 0 .2-.1.2-.2.1-.2.3-.4.5-.4.1 0 .3 0 .4-.1.1 0 .1 0 .2-.1s.2-.1.3-.2.3-.1.4-.2h.1l.1-.1c.1-.1.2-.2.3-.2.3-.2.6-.3.8-.5.4-.3.8-.7 1-1 .1-.1.1-.2.2-.2l.1-.1c.1-.1.1-.2.1-.2 0-.1.1-.2.1-.2l.1-.1c.1-.1.1-.2.2-.2s.1-.1.1-.1c.1-.3.2-.5.3-.8 0-.1 0-.1.1-.2s.1-.2.2-.3c.1-.2.2-.3.4-.3.1 0 .1-.1.2-.1.2-.4.4-.9.6-1.4.3-.6.5-1.2.8-1.7 0-.1 0-.2 0-.2-.1-.1-.1-.3 0-.5.1-.3.2-.4.2-.5.1-.1.2-.2.3-.3.1 0 .1-.1.1-.1.1-.1.2-.2.4-.3h.4.2c.1 0 .1-.1.1-.2s0-.1.1-.2l.1-.1c0-.1 0-.1 0-.2 0-.2 0-.3 0-.5 0-.1.1-.2.2-.3.1-.2.2-.3.4-.3.1 0 .1-.1.1-.1s.1-.1.1-.2.1-.1.1-.1l.1-.1c0-.1.1-.2.1-.3s0-.2-.1-.2c-.1-.1-.1-.2-.1-.4 0-.1 0-.1-.1-.2s-.2-.3-.1-.5v-.1c-.1-.2 0-.4.2-.6.1-.1.2-.2.3-.2s.2-.1.2-.3.1-.3.2-.4l.1-.1c.1-.3.3-.5.5-.5.1 0 .2-.1.2-.1v-.1c.1-.1.2-.3.2-.4.1-.1.1-.2 0-.3s-.1-.3 0-.4v-.1c0-.1 0-.2 0-.3l.1-.6v-.1c.1-.2.2-.3.4-.3h.1l.2-.2c.1-.1.2-.2.3-.2s.2-.1.2-.2l.1-.6c0-.1 0-.1 0-.2-.1-.3-.1-.6.2-.8.1 0 .1-.1.1-.2 0-.3.2-.4.5-.4h.1.1c.1 0 .1-.1.2-.2.2-.4.2-.9.3-1.2 0-.1 0-.2 0-.2-.1-.2-.2-.5-.1-.7l.3-.5.1-.1c.1-.2.2-.3.3-.4 0-.1 0-.1 0-.2s0-.2 0-.4l.2-.5v-.1c.2-.3.3-.6.7-1v-.1-.1c0-.2.1-.3.3-.4.1 0 .1-.1.1-.2 0-.3 0-.5 0-.8-.1-.3 0-.5.1-.6.1-.2.3-.2.4-.2s.2-.1.2-.2v-.2-.1c-.1-.2 0-.4.2-.6.1-.1.1-.1.2-.3 0 0 0-.1.1-.1l.1-.2c.1-.1.1-.4.2-.6 0-.1 0-.1.1-.2l.1-.3c.1-.1.2-.3.3-.3s.1-.1.1-.2l.2-.6v-.1c0-.1 0-.3.1-.4v-.1c.2-.3.3-.6.6-1 0-.1.1-.1.1-.2 0-.2 0-.3.2-.5 0 0 0-.1.1-.3 0-.1 0-.2.1-.2 0 0 0-.1.1-.1v-.1l.2-.5c0-.1.1-.2.2-.3 0 0 0 0 .1-.1s.2-.3.2-.8c0-.2.1-.3.2-.4 0 0 0-.1.1-.1l.4-.9s0-.1.1-.1c.3-.5.8-1.4 1-1.9v-.1c.1-.2.2-.4.2-.7 0-.1 0-.1.1-.2l.6-1.5c0-.1.1-.1.1-.2 0 0 0 0 0-.1.1-.2.2-.4.2-.5s.1-.1.1-.2c0 0 .1-.1.2-.2l.6-1.4v-.1c0-.1.1-.2.1-.3s.1-.2.1-.2 0 0 0-.1c.1-.1.1-.2.3-.3.1-.1.2-.1.2-.2.4-.4.6-.8.7-.9.1-.2.1-.3.2-.4 0-.1 0-.2 0-.3 0-.2.1-.4.2-.5s.3-.2.5-.3c.1-.1.2-.1.4-.1h.2c.1-.1.2-.1.4-.2l.1-.1s.1 0 .1-.1l.3-.4c.1-.1.1-.1.1-.2l.2-.3c.1-.1.1-.2.2-.3s.2-.3.3-.4c0-.1.1-.1.1-.2s.1-.2.2-.2c.1-.1.2-.2.3-.3.1-.2.3-.4.4-.7l.9-2.3c0-.1 0-.2 0-.3l-.1-.1c-.2-.2-.4-.5-.6-.7l-.4-.5c-.1-.1-.2-.2-.3-.3-.3-.3-.6-.6-1-.8-.1-.1-.3 0-.3.1-.1.2-.3.3-.6.3-.2 0-.5-.2-.5-.4 0-.1-.1-.1-.2-.2-.1 0-.3-.1-.4-.1-.6-.1-1.2-.1-1.8 0-.1 0-.1 0-.1.1-.1.1-.2.1-.3.1-.2 0-.3.1-.4.1s-.1 0-.2 0h-.1c-.2 0-.4 0-.6.1-.3.1-.5.2-.8.4-.2.2-.3.2-.4.3l-.1.1c-.1.1-.3.2-.4.4l-.1.1s-.1.1-.2.1c-.2.2-.5.4-.6.5-.2.2-.3.4-.5.7-.3.4-.5.9-.8 1.3-.2.3-.4.7-.5 1-.3.5-.5 1.1-.9 1.5v.1c-.1.2-.2.4-.3.6 0 0-.1.1-.2.2l-.4.5s0 .1-.1.1l-.2.2c-.2.2-.3.3-.5.5-.1.1-.2.2-.2.3v.2c0 .1.1.2.1.3v.1s0 .2 0 .3-.1.3-.1.4-.1.2-.1.3l-.1.1c0 .1-.1.1 0 .2 0 .2 0 .4-.2.6l-.2.2c-.1.1-.1.1-.1.2 0 .2 0 .3-.1.4v.1s-.1.2-.1.3 0 .1-.1.2c-.1.2-.3.4-.4.6-.1.1-.1.2-.1.3s-.1.2-.2.3l-.3.3c-.1.1-.1.2-.1.2v.3.2s0 .2 0 .4v.2c0 .2-.1.3-.2.4s-.2.1-.3.2c-.1 0-.1.1-.2.1 0 .1-.1.1-.1.1-.1.1-.1.1-.1.2s0 .1 0 .2c0 0 0 .1.1.3v.1.3c0 .2-.1.3-.1.5 0 .1-.1.2-.1.3 0 0 0 .1-.1.1v.1l-.1.3c0 .2-.1.3-.3.4-.1.1-.2.1-.2.2-.2.2-.3.4-.3.7v.2.1c0 .1-.1.2-.1.3v.2c0 .1-.1.2-.2.3s-.2.4-.3.6c-.2.5-.5 1-.7 1.6l-.2.3c-.1.1-.1.2-.2.3v.1c0 .1 0 .2-.1.2l-.7 1.6-.5 1.1s-.1.1-.1.2c-.1.1-.2.2-.2.3s-.1.2-.2.2v.1c-.1.1-.1.3-.1.5 0 .1 0 .2-.1.2v.2c0 .2 0 .3-.2.4l-.1.1-.3.3c-.1.1-.1.1-.2.2-.1 0-.2.1-.2.2s0 .2-.1.3c-.1.3-.2.5-.2.7l-.2.5c0 .1-.1.2-.2.2 0 0-.1.1-.2.2s-.2.2-.2.3l-.1.3c-.1.2-.2.3-.4.4 0 0-.1 0-.1.1-.1 0-.1.1-.1.1-.1.2-.1.3-.2.4l-.1.3c0 .1 0 .2.1.3s.2.2.2.4 0 .4-.1.5v.1.1c0 .1-.1.2-.2.3 0 0 0 .1-.1.1l-.3.6c-.3.7-.6 1.4-.6 1.8 0 .3-.3.5-.6.5-.1 0-.2.1-.2.2v.1c0 .1 0 .1-.1.2l-.1.1v.2.5c0 .1-.1.2-.2.4s-.2.3-.4.4c-.1 0-.1.1-.1.1 0 .1-.1.2-.1.2 0 .1-.1.1-.1.1l-.1.1c0 .1-.1.2-.1.3s0 .2.1.2c.1.1.1.2.1.3 0 0 0 .1.1.1.1.1.1.3.1.5 0 .1 0 .2-.1.2v.1c0 .1-.1.1-.1.2-.2.4-.4.8-.5 1 0 .1-.1.1-.1.2l-.1.1c0 .3-.3.5-.5.5-.1 0-.2.1-.2.1v.1c-.1.2-.2.3-.2.4-.1.1-.1.2 0 .3s.1.3 0 .4v.1.3l-.1.6v.1c-.1.2-.2.3-.4.3h-.1c-.1 0-.1.1-.2.2s-.2.2-.4.2c-.1 0-.2.1-.2.2v.1c-.1.3-.3.5-.6.5s-.5-.1-.6-.4c0 0 0 0 0-.1-.1-.1-.1-.3-.1-.4 0-.2 0-.4 0-.6s.1-.3.2-.5c0-.1.1-.1.1-.2v-.7-.1c-.1-.1-.1-.3-.1-.4 0-.3.1-.7.3-1.2 0-.1 0-.1 0-.2s0-.2 0-.3v-.1s0-.1 0-.2 0-.2 0-.4c0 0 0-.2 0-.4l.1-.5c0-.1 0-.2.1-.3 0 0 .1-.1.1-.2v-.3c0-.2 0-.3 0-.4 0-.2 0-.3.1-.5v-.1c.1-.4.1-.9.1-1.2v-.1c.1-.3.1-.5.2-.7.2-.4.2-.8.2-1.1 0-.2 0-.3-.1-.5v-.1-.1c0-.1 0-.1 0-.2v-.2c0-.1 0-.1 0-.2l.1-.5c.1-.4.1-.7.1-1.1 0-.1 0-.1.1-.2 0 0 0 0 0-.1.1-.6.2-1.2.2-1.9v-.1c0-.3.1-.6.1-.9 0-.1 0-.2.1-.3 0 0 0 0 0-.1.1-.5.2-.9.3-1.2v-.1c.1-.4.3-.9.2-1.5 0-.1 0-.2 0-.2 0-.2 0-.3.1-.5 0-.1 0-.2.1-.2v-.1c0-.2.1-.4.1-.6 0-.1.1-.2.2-.3l.1-.1c0-.2.1-.5.2-.8.1-.2.1-.4.2-.7.1-.5.2-1 .2-1.2 0-.1 0-.2 0-.3.1-.2.1-.5.1-.7 0-.1 0-.1 0-.2s0-.3.1-.4c.3-.6.5-1.1.5-1.7 0-.2 0-.4 0-.7v-.2c0-.1 0-.2 0-.3l.1-.3c0-.1 0-.1 0-.2-.1-.1-.1-.3-.1-.4.1-.7.2-1.6.2-2.7v-.1c0-.1-.1-.2 0-.4l.6-3v-.1c.1-.5.2-1.1-.1-1.9-.2-.4-.4-.7-.8-1l-.1-.1h-.1l-.2-.2c-.4-.3-.9-.6-1.5-.9-.5-.2-1.1-.2-1.7-.1-.1 0-.2 0-.3 0h-.1-.1c-.1 0-.3 0-.5 0-.3 0-.6.1-.8.3-.1 0-.1.1-.1.2 0 .2-.2.3-.3.4 0 0 0 0-.1 0-.1.1-.3.5-.3 1 0 .1 0 .1-.1.2l-.1.2c-.1.3-.2.5-.3.6v.2s.1.2 0 .3v.1c0 .1.1.2.1.2 0 .4 0 .6-.1 1.3 0 .1-.1.2-.1.2 0 .1-.1.2-.2.3l-.1.2v.3.1l-.3 1.5c0 .1 0 .2.1.2.1.1.2.2.2.4v.3c-.3 1-.7 2.7-1 4.2-.2 1.2-.3 1.7-.4 2v.1c0 1-.2 2-.4 3.2v.1.3.1c0 .1-.1.2-.1.2-.1.2-.2.6-.3 1.1-.1.6-.3 1.1-.4 1.5v.2c0 .1.1.2 0 .3 0 .2 0 .4-.1.5 0 .5-.1.8-.1 1s0 .3-.1.4c0 0-.1.1-.1.2v.1c-.1 1.1-.3 2.3-.6 3.5-.2.6-.3 1.4-.4 2 0 .2-.1.4-.1.7 0 .1-.1.2-.1.3 0 0 0 .1-.1.1-.1.6-.1 1.1 0 1.4v.3s0 .2 0 .3 0 .2 0 .3l-.1.2v.1c0 .1 0 .3.1.4.1.3.1.5-.1.9v.2c.1.1.1.3 0 .4-.2 1-.4 2-.5 2.9-.1 1-.1 2.2-.2 3.3v.7.3c-.6.3-.6.5-.5.7zm50.9 4.8c0 .1.1.1.2.1.2 0 .3.2.4.3s.1.3.2.4v.1c0 .1.1.1.1.1l.1.1.3.3s.2.3.2.4v.1.1c0 .1.1.2.2.2l.1.1c.2.1.4.2.7.3.2.1.4.2.6.2h.1c.2 0 .4 0 .6.1 0 0 0 0 .1.1.2.2.4.3.5.3s.2.1.3.1h.1c.2.1.4.2.6.2h.3c.1-.1.2-.1.4-.1s.3.1.4.2l.1.1c.1 0 .2.1.3.2.1 0 .1.1.2.1h.1s.1 0 .2-.1.3-.1.4-.1h.1c.2-.1.5-.2.7-.4l.1-.1c.1-.2.3-.3.5-.3s.4.1.6.2c.1.1.3.1.4 0l.3-.3s0 0 0-.1c.1-.1.2-.3.4-.3.1 0 .1-.1.3-.1l.3-.1h.1s.1-.1.2-.2c0-.1.1-.2.2-.3l.3-.2c.1-.1.3-.2.5-.2.1 0 .1 0 .2-.1l.4-.4.1-.1c0-.1.1-.3.2-.3h.1c.1 0 .1-.1.2-.1s.3-.1.5-.2c.1-.1.1-.1.2-.1s.1-.1.1-.1c.1-.1.1-.2.3-.3 0 0 .1-.1.2-.2 0-.1.1-.1.2-.2 0 0 .1 0 .1-.1 0 0 0 0 .1-.1l.4-.3c.1-.1.2-.2.3-.2s.1-.1.1-.1l.1-.1.1-.1c.1-.1.2-.3.3-.3.1-.1.3-.2.4-.3.2-.1.4-.2.6-.1.1 0 .2 0 .3-.1 0 0 0 0 0-.1s.1-.1.1-.1l.1-.1.1-.2c0-.1.1-.3.2-.4l.1-.1c.1-.1.3-.2.5-.2h.2s.1 0 .1-.1c0 0 .1-.1.2-.1 0 0 .1 0 .1-.1l.2-.2c.1-.1.1-.2 0-.3 0-.1 0-.2 0-.4 0-.1.1-.3.1-.4.2-.2.3-.4.4-.5l.2-.2.5-.4c.2-.2.4-.2.7-.1h.2.1c.1-.1.2-.1.3-.2.1 0 .2-.1.2-.2s.1-.2.1-.3c0 0 0 0 0-.1s.1-.2.1-.2l.1-.1.1-.1.2-.1c.1-.1.2-.1.3-.1h.1c.1 0 .2 0 .3-.1.1 0 .3-.1.4 0 .1 0 .2 0 .3-.1l.3-.4v-.1c0-.2.1-.3.2-.5 0 0 .3-.2.5-.3s.3 0 .4 0h.1.1s.2 0 .2-.1c.3-.2.5-.5.6-.7 0-.1.1-.1.1-.2 0-.2.1-.4.3-.6l.1-.1.4-.2s.1 0 .1-.1c.3-.1.4-.2.5-.3s.1-.1.2-.2c.3-.2.6-.4 1-.7l.3-.2h.1.1l.1-.1c.1-.1.2-.2.4-.2.1 0 .2-.1.2-.1l.1-.1c0-.1.1-.1.2-.2.2-.1.4-.3.6-.4.1-.1.2-.1.3-.1s.1 0 .2-.1l.2-.2s0 0 .1-.1c.1-.2.3-.3.5-.3h.1c.1-.1.2-.1.4-.1.1 0 .2-.1.2-.1.1-.1.1-.2.2-.2l.1-.1c.1-.1.2-.1.4-.2.1-.1.3-.1.4-.1s.2 0 .2-.1c.1-.1.2-.2.4-.3l.1-.1c.1-.1.2-.2.3-.3.2-.1.5-.2.9-.3.1 0 .1 0 .2-.1s.2-.2.3-.2.1-.1.3-.1c.1 0 .1-.1.2-.1h.1.1l.4-.2c.1 0 .2-.1.3-.1s.1 0 .2-.1l.1-.1c.1 0 .2-.1.3-.1l.5-.3.5-.3c.1-.1.1-.1.2-.1l.1-.1h.1c.1 0 .1-.1.2-.1h.1c.1-.1.3-.3.4-.4l.1-.1c.3-.3.6-.6.6-1.1 0-.1 0-.2.1-.4 0-.1 0-.2 0-.2v-.1c0-.1 0-.2-.1-.3 0-.1-.1-.1-.1-.2-.2-.1-.5-.3-.9-.4-.1 0-.1 0-.2-.1l-.4-.2s-.1 0-.1-.1c-.1-.1-.1-.1-.2-.1s-.1 0-.2-.1c-.1 0-.1-.1-.2-.1-.3-.1-.6-.2-1-.3-.1 0-.1 0-.2-.1h-.1l-.5-.1c-.1 0-.2 0-.3 0-.2 0-.5 0-.7 0-.4 0-.9.1-1.4.2h-.1c-.1 0-.2 0-.3 0h-.1c-.4 0-.8.1-1.1.2h-.1c-.5.1-.9.2-1.3.4 0 0 0 0-.1.1s-.1.1-.2.2c-.3.2-.7.3-1.1.5-.1 0-.2.1-.4 0-.1 0-.1 0-.2 0-.2.1-.5.2-.8.4-.5.2-.9.4-1.1.5-.1.1-.2.1-.3.1-.7.1-1.8.8-2.8 1.5-.4.2-.7.4-.9.6-.1 0-.1.1-.1.2s-.1.3-.3.4c-.6.4-1.2.8-1.7 1.3 0 0-.1.1-.1.2s-.1.3-.2.4-.3.2-.4.1c-.1 0-.1 0-.2.1s-.2.2-.3.2c0 .1-.1.2-.2.3-.3.2-.5.3-.8.5-.1 0-.1.1-.2.1-.8.4-1.5 1-2.2 1.7l-.1.1s-.1.1-.2.1c0 0 0 0-.1 0l-.1.1c-.1.1-.1.1-.2.1h-.1c-.1.1-.3.2-.4.2s-.1 0-.2.1-.2.2-.3.3l-.2.1s0 0-.1 0l-.1.1s-.1.1-.1.2c0 .2-.2.3-.4.5-.1.1-.2.1-.4.1 0 0-.1 0-.3.1l-.1.1c-.1.1-.2.2-.3.2s-.2.1-.4.2c-.1 0-.2.2-.2.3s0 .1 0 .3-.1.3-.2.4c-.4.3-.6.6-.8.8-.1.1-.2.2-.3.2s-.1.1-.2.1c-.1.1-.2.2-.5.6-.2.3-.4.5-.6.7-.1.1-.2.2-.4.3-.1 0-.2.1-.2.2s-.1.3-.2.4-.1.1-.2.2l-.1.1c-.1.1-.3.2-.4.2s-.2.1-.2.1c-.1.2-.3.3-.5.3-.1 0-.1 0-.1.1-.2.1-.4.2-.7.1-.2-.1-.4-.4-.4-.6l.1-1.3v-.1-.2c.1-.4.2-.8.3-1.1s.2-.6.3-.8c0-.1 0-.1 0-.2s0-.3.1-.4c.1-.2.2-.4.2-.5s.1-.2.2-.3c0 0 .1-.1.1-.2.1-.3.1-.6.2-.8.1-.3.1-.5.2-.7s.2-.4.2-.6.1-.3.3-.4l.1-.1c.1 0 .1-.1.1-.2.1-.3.2-.6.2-.7s0-.2 0-.3c0-.2 0-.4 0-.5s0-.1-.1-.1c-.2-.2-.2-.4-.2-.7 0-.1.1-.2.1-.3s.1-.2.2-.3c0 0 0-.1.1-.1l.6-1.4c.3-.6.4-1 .4-1.3 0-.1 0-.2 0-.3 0 0 0-.1 0-.2 0 0 0-.1.1-.2 0-.2.1-.3.1-.4s0-.2 0-.2c0-.1 0-.1 0-.2v-.1s0 0 0-.1v-.1-.1c.1-.3.2-.5.4-1v-.1c0-.1 0-.2.1-.2.2-.5.4-.9.5-1.3 0-.1 0-.2 0-.3s0-.1 0-.2c.2-.4.2-.6.2-.7 0-.2.1-.5.5-1.2 0 0 0-.1 0-.2s0-.2 0-.3l.2-.6c.1-.4.3-.7.4-1l.1-.2c.1-.3.2-.6.3-.9 0-.1.1-.2.1-.3.1-.1.2-.2.2-.3.1-.1.2-.2.3-.2s.1-.1.2-.1c.1-.2.1-.3.2-.5v-.1l.3-1.1v-.1c0-.1.1-.2.1-.3s0-.2.1-.3c.1-.4.2-.6.2-.8.1-.6.2-1.3.4-1.8 0-.1 0-.2 0-.3-.1-.2-.1-.4 0-.6s.1-.3.2-.5c.2-.5.4-.9.5-1.4 0-.1.1-.2.1-.3 0 0 .1-.1.1-.2s0-.1 0-.1c0-.1 0-.2 0-.2 0-.2.1-.4.1-.6.1-.6.2-1.1.3-1.5 0-.1.1-.3.2-.4.3-.3.4-.8.5-1.3 0-.1 0-.1 0-.2 0 0 0 0 0-.1 0-.2.1-.4.1-.6.1-.4.2-.9.3-1.2 0-.1.1-.3.3-.3.1 0 .1-.1.1-.2l.2-.9.2-.8s0-.1.1-.2c.3-.9.3-1.4.3-1.6 0-.1 0-.1 0-.2v-.1c0-.1 0-.1.1-.3l.2-.6c0-.1 0-.2 0-.2-.1-.1-.1-.2-.1-.4s.1-.5.3-.6c.1 0 .1-.1.1-.2 0-.3 0-.7 0-1.3 0-.2.1-.3.2-.5 0 0 .1-.1.1-.2v-.1s0-.1 0-.3v-.1c0-.3.1-.8-.1-1.5-.1-.3-.2-.6-.4-.8s-.4-.4-.7-.7c-.3-.2-.7-.4-1-.6-.1 0-.1-.1-.2-.1 0 0-.1 0-.1-.1-.2-.1-.6-.2-1-.3-.2 0-.4-.1-.6-.1s-.5 0-.7 0c-.5 0-1 .1-1.4.3-.2.1-.4.3-.5.5s-.2.4-.3.6l-.2.9c0 .2-.1.4-.1.6 0 .3 0 .5.1.7 0 .1.1.2.1.3l-.1 1.2c0 .2 0 .3-.1.4-.1.2-.2.6-.4 1-.1.2-.1.5-.2.6 0 .1-.1.2-.2.2l-.1.1-.1.5v.1.1c-.6 2-1.2 4-1.8 5.9l-.1.2c-.3 1-.6 1.9-.9 2.8v.1c0 .1 0 .3-.1.4s-.1.3-.2.6c0 .2-.1.3-.2.4l-.1.1-.1.5v.2s0 .1 0 .2c0 .3 0 .6-.2 1.1v.1.1c-.1.1-.1.2-.2.3l-.1.1s-.1.1-.1.2v.1.1l-.4 1.2v.3c.1.2.2.5.1.7-.3.6-.6 1.5-.8 2.5-.3 1.1-.7 2.2-.9 2.6v.1c-.1.4-.2.8-.3 1.2l-.1.3v.1c-.2.6-.5 1.2-.8 1.8v.2.4l-.1.4c-.1.2-.2.4-.2.7-.1.2-.2.4-.2.5v.1c-.1.1-.1.1-.1.2v.3l-.1.3c0 .1-.1.2-.2.3 0 0 0 .1-.1.1-.1.3-.2.5-.3.8 0 .1-.1.2-.2.3s-.1.1-.1.2v.1.1c.1.1.1.3 0 .5-.2.7-.5 1.5-.7 2.2-.3.9-.6 1.9-.9 2.8v.2c.1.2 0 .4-.1.6l-.4.6v.1.3c.1.3 0 .5-.1.8 0 .1-.1.1 0 .2v.4c-.3.8-.6 1.6-.7 2.2-.1.2-.2.4-.4.4-.1 0-.2.1-.2.2v.2.1.2c.1.1.1.3 0 .5v.1c-.1.2-.2.3-.3.4-.1 0-.1.1-.2.2l-.1.1c0 .1-.1.1-.1.2 0 0 0 .1-.1.1v.4c0 .1 0 .2.1.2.1.1.2.2.3.4 0 .1.1.2 0 .3l-.1.6c0 .2-.2.4-.3.5-.1 0-.1.1-.1.2v.1c0 .1-.1.2-.1.3s0 .2 0 .3c.1.1.1.2.1.3v.1c0 .1.1.2 0 .4l-.1.5c0 .1-.1.3-.2.4s-.1.3-.1.4-.1.3-.2.4-.1.2-.1.3c.9.2 1 .4 1.1.6zm101 12.7h1 .2c.1-.1.3-.1.4-.1l1.2.1h.1c.1 0 .2 0 .2-.1.1 0 .3-.1.3-.1.8 0 1.6 0 2.4.1h1.6.3 1.9.4c.5 0 1 .1 1.2.2h.1.7s.1 0 .1-.1c.1-.1.3-.1.4-.1s.2 0 .2 0c.1 0 .2.1.3.1h.2.1c.3 0 .5.1.7.3 0 .1.1.1.2.1s.1 0 .2 0h.1c.7.2 1.6.2 2.3.3.4 0 .7 0 1 .1.3 0 .4.1.7.1l.7.1c.3.1.5.1.7.1h.1.1.3.2c.2 0 .4.2.5.5l.1.5c.2.6.5 1 .9 1.2.2.1.5.2.7.2h.3.2c.1 0 .2 0 .3.1l.2.1c.3.1.6.2.8.2h.3.1c.1 0 .1-.1.2-.1h.1s0 0 .1-.1.3-.2.4-.4c.1-.1.1-.1.2-.2l.5-.6c.1-.1.3-.3.4-.4 0-.1.1-.1.1-.2l-.1-.7c-.1-.6-.1-.9-.2-1.3-.1-.3-.2-.7-.3-1.1-.1-.3-.2-.7-.3-1-.2-.6-.4-1-.5-1.1-.3-.4-.5-.6-.8-.9l-.6-.6s0 0-.1-.1c-.1-.2-.3-.4-.5-.5 0 0 0 0-.1 0-.2-.1-.5-.1-.6-.1l-.5-.1c-.2 0-.2-.1-.3-.1l-.2-.1c-.1 0-.2-.1-.2-.1h-.1c-.1 0-.2 0-.3 0-.6-.2-1.1-.4-1.6-.5h-.1c-.6-.1-1.1-.2-1.5-.3-.9-.2-1.8-.3-3.9-.4h-.1-.1c-.8 0-1.8 0-2.9 0-.1 0-.2 0-.3-.1-.1 0-.2-.1-.5-.1-.1 0-.2-.1-.3-.2-.1 0-.1-.1-.2-.1h-2.3c-.5 0-.8 0-1 .1-.1 0-.2 0-.4.1-.3.1-.7.2-1.6.3-.1 0-.2 0-.2 0l-.5-.1h-.1l-.4.1c-.5.1-.8.1-1.8.1-.3 0-.5-.2-.6-.3 0-.1-.1-.1-.2-.1-1.1-.1-2.1-.1-3.2-.1-.9 0-1.8.1-2.6.2-1.4.2-2.6.4-3.7.2h-.1c-.1 0-.2.1-.3.1s-.1.1-.1.1c-.1.2-.4.4-.6.4-.1 0-.3 0-.3 0l-2.9-.1c-.2 0-.5 0-.9.1l-1.9.3c-.4 0-.8.1-1.1.1-.7.1-1.5.1-2.4.2h-.1c-.1 0-.2.1-.2.1-.1 0-.3 0-.4 0h-.1c-.5 0-1.3.2-2 .3l-.6.1c-.1 0-.3 0-.4 0s-.1 0-.2 0c-.7.3-1.6.4-2.7.5-.5 0-1.2.1-1.8.3-.4.1-.8.2-1.3.4-.1 0-.3 0-.4 0s-.2 0-.2 0c-.1 0-.3 0-.4 0s-.1 0-.2 0c-1.1.3-2.2.4-3.3.6-.9.1-1.8.2-2.7.4-.1 0-.2.1-.2.2-.1.2-.3.4-.5.4-.3 0-.6.1-.9.1-.5 0-.9.1-1.6.2-.4.1-.8.2-1.3.3l-.9.2s-.1 0-.3.1l-.5.1s-.1 0-.1.1c-.1.1-.2.1-.3.1-.4 0-.9.1-1.3.1-.8.2-1.4.3-1.6.4 0 0-.1 0-.1.1-.1.1-.2.2-.3.2-.4.1-.7.3-1.1.4-.3.1-.6.3-1 .4-.1.1-.3.1-.5 0-.1 0-.1 0-.2 0-2.2.6-2.4.8-2.6 1s-.4.2-.7.1c-.1 0-.1 0-.2 0l-1 .4c-.1 0-.3 0-.4 0s-.1 0-.2 0c-.5.2-.9.4-1.3.6l-.1.1c-1.1.5-1.9.9-3.3 1.4-.1 0-.1.1-.1.1-.1.2-.2.3-.4.3-.2.1-.3 0-.5 0-.1 0-.1 0-.2 0-.7.2-1.5.6-2.3.9-.7.4-1.4.8-2 1.1l-.1.1c0 .1-.1.2-.2.3-.5.3-.9.7-1.5 1.1-.1.1-.3.1-.4.1h-.1c-.2.1-.4.1-.6.1-.1 0-.2 0-.2.1l-1 .7c-.1.1-.2.2-.3.3s-.2.3-.2.5c-.1.4-.1.8-.1 1.3 0 .2.1.5.1.5 0 .2.1.3.1.4l.1.2c.1.3.2.5.3.8 0 0 0 .1.1.1 0 .1.2.4.3.7 0 .1.1.1.2.2.2 0 .3.1.4.2.1.2.2.4.1.7 0 .1 0 .2.1.3l.4.4c.2.2.4.4.6.5s.5.3.7.3c.5.1 1.2 0 1.7-.2l1.1-.6c.8-.4 1.6-.9 2.4-1.3.2-.1.4-.1.6 0 .3.1.4.3.4.4.1.2 0 .4-.1.6-.1.1-.2.2-.3.4s-.2.4-.2.5 0 .2 0 .2c.1.2.1.4 0 .6l-.2.4c-.3.5-.5.9-.6 1.2-.1.2-.2.3-.4.3-.1 0-.1 0-.2.1 0 0-.1.1-.2.3l-.1.2c-.2.6-.5 1.2-.8 2-.1.3-.4.4-.7.4-.1 0-.2 0-.2.1-.1.1-.2.3-.3.4 0 .1-.1.1-.1.2v.2c0 .2-.2.5-.5 1.2-.1.1-.1.2-.3.3l-2.8 1.6c-1.7 1-2 1.3-2.2 1.5-.1.2-.3.3-.6.3h-.1c-.6.3-1 .5-1.4.7-.3.2-.5.3-.9.8-.1.1-.2.3-.3.5-.1.3-.1.6-.1.9.1.3.2.7.4 1.1v.1c.1.3.2.5.3.8l.1.2c.1.1.1.3 0 .5v.2c.2.3.3.5.5.7.3.5.7.9 1.1 1.2.2.2.5.4.8.5.1 0 .2.1.4.1s.4.2.5.3c.1.2.1.4 0 .6v.2.2 1.6c0 .2 0 .3-.2.5 0 0 0 .1-.1.1-.3 1.1-.2 1.7.1 2.5.1.4.3.9.5 1.6v.1c0 .1.1.3 0 .4v.1c.2 1.5 1.2 3.1 2.9 5.1.1.1.2.1.3.1s.3 0 .4.1c.2.1.3.2.3.4 0 0 0 .1.1.1.3.3.5.6.8.9.1.1.2.1.3.1.2-.1.4-.1.6.1.1.1.3.3.3.4s.1.1.1.2c.8.4 1.2.5 1.6.6.3.1.5.1.9.1h.3.1c.5.1.9.1 1.3.1h.1c.3 0 .5.1.6.1.2.1.4.2.6.2.1 0 .2.1.2.1h.1.9.1.1c.1 0 .2-.1.2-.1.1-.2.3-.3.5-.3 1.4-.1 2.6-.5 3.6-.9.5-.2 1.1-.4 1.7-.6l.2-.1c.5-.2 1.1-.4 1.7-.8.1-.1.3-.1.5-.1h.2l1.1-.8c.1-.1.2-.1.3-.1h.1c.4-.3.5-.4.6-.5.1-.2.3-.4 1.1-.9 0 0 0 0 .1-.1 0 0 0-.1.1-.1.2-.2.5-.3 1.6-.8h.1c.2-.1.5-.2.7-.3.8-.4 1.4-.7 2-1.1.3-.2.5-.4.7-.6l.4-.4c.1-.1.3-.2.5-.2.1 0 .1 0 .2-.1.2-.1.4-.3.7-.5.5-.4 1-.8 1.3-1 .6-.5.8-.9 1-1.2.2-.4.3-.7.4-1.1 0-.2.1-.5 0-.8 0-.2-.1-.6-.4-.8l-.1-.1c-.3-.3-.7-.5-1.2-.6s-.9 0-1.2.1c-.5.1-1.1.4-2 .8l-.1.1-.1.1c-.1.2-.3.3-.6.3-.1 0-.2 0-.2.1-.1 0-.2.1-.3.2l-.2.1c-.1.1-.2.1-.3.1h-.5c-.1 0-.2 0-.2.1-.1.1-.2.1-.3.2l-1.9.7-2.1.8c-.3.2-.6.4-.9.6-.7.4-1.3.8-2 1.2-.2.1-.3.1-.5.1-.1 0-.1 0-.2 0l-.1.1c-.1 0-.3.1-.4 0-.1 0-.1 0-.2 0l-3.8 1.8c-.1.1-.2.1-.4.1-.1 0-.2 0-.6.2-.3.1-.7.2-1.1.3-.1 0-.1.1-.2.1-.1.1-.2.2-.3.3-.3.1-.6.2-1 .3-.2 0-.4.1-.6.1s-.3 0-.4-.1h-.1c-.8-.1-1.3 0-1.8.1-.6.1-1 .2-1.4-.1-.1-.1-.2-.3-.2-.5v-.1c-.4-.5-.7-1.5-.7-2.2 0-.1 0-.3.1-.4v-.1c0-.9.1-2 .3-3.1.2-1 .5-2.1.9-3.5s.8-2.4 1-3.2c.1-.2.2-.3.4-.4.1 0 .1-.1.2-.2.1-.3.1-.6.2-.9s.3-.5.6-.5c.1 0 .2-.1.2-.1.2-.3.4-.5.7-.6s.5-.2.8-.3l.4-.1h.1.1.1c.4-.1.9-.3 1.4-.5.6-.2 1.2-.5 1.9-.7.1 0 .1-.1.2-.1.1-.2.3-.3.5-.4.4-.1.6-.1 1-.2s.9-.2 1.8-.4c.1 0 .2-.1.2-.2.1-.2.2-.3.4-.3.2-.1.4 0 .5.1h.3l2.3-1.1c.2-.1.3-.1.5 0h.4c.1 0 .3 0 .6-.1 0 0 .1 0 .1-.1l.1-.1.1-.1c.1-.1.3-.1.4-.2s.2-.1.5-.1l.3-.1c.8-.2 1.6-.3 2-.4.1 0 .1 0 .1-.1.1-.1.2-.1.3-.2.9-.2 1.4-.5 2-.7.5-.2 1-.4 1.5-.5.3-.1.7-.2 1.2-.4.2-.1.5 0 .7.2.1.1.2.1.3.1h.1c.1 0 .3 0 .4-.1.1 0 .3-.1.8-.3h.1c.1-.1.3-.2.4-.4.1-.1.1-.4.1-.8 0-.1 0-.2 0-.3v-.1c0-.1 0-.1 0-.2 0-.2.1-.4.3-.5.1-.1.1-.2.1-.3 0-.2-.1-.3-.1-.5-.1-.1-.1-.3 0-.5 0-.1 0-.2 0-.3l-.1-.1c-.4-.5-.8-.8-1.3-1-.4-.2-.8-.3-.9-.3h-.1c-.2 0-.4-.1-.6-.1-.8-.2-1.7-.3-2.7-.3-.1 0-.1 0-.2 0s-.2.1-.2.1c-.2 0-.5.1-.8.1s-.6.1-.8.1c-.7.1-1.6.2-1.9.4-.2.1-.4.1-.6.1-.1 0-.1 0-.2 0-.3.1-.9.2-1.7.4-.1 0-.3 0-.4 0 0 0-.1 0-.2 0-.3 0-.4.1-.5.1-.2.1-.3.2-.7.3-.3.1-.5.2-.8.3-.4.2-.9.4-1.8.5-.1 0-.2.1-.4.1h-.1c-.3.1-.5.2-.7.2-.1.1-.3.1-.4.1s-.1 0-.1.1c-.1.1-.1.1-.2.1 0 0-.1.1-.2.1-.1.1-.2.1-.3.2h-.1s-.1 0-.1.1c-.1.1-.1.1-.3.1-.1 0-.1 0-.2 0h-.1c-.1 0-.1.1-.2.1l-1.2.3c-.2.1-.5 0-.7-.2s-.2-.5-.1-.7c.1-.3.3-.5.4-.8 0-.1.1-.2.2-.2 0 0 0 0 .1-.1s.2-.2.4-.2c.1 0 .1 0 .1-.1.1-.1.2-.2.3-.2l.1-.1s0-.1.1-.1c.1-.2.2-.3.2-.4s0-.1.1-.2l.1-.2c0-.1.1-.1.1-.2 0 0 0 0 .1-.1 0 0 .1-.1.1-.2 0 0 0-.1.1-.1 0 0 .1-.1.1-.2s.1-.2.2-.4c.1-.1.1-.2.2-.3l.1-.1.1-.2.1-.1v-.1c0-.1 0-.3.1-.4s.1-.2.2-.3l.1-.1c.2-.4.5-.8 1.1-1.5 0-.1.1-.1.1-.2s0-.3 0-.4c.1-.1.1-.3.3-.6l.4-.8s0-.1.1-.1c.3-.4.4-.8.6-1.3.1-.3.2-.5.3-.8 0-.1.1-.1.1-.2 0 0 0-.1.1-.1l.1-.1c.1-.1.2-.2.2-.3l.1-.1.1-.1c.1-.1.1-.3.1-.4-.1-.3.1-.7.4-.8.1 0 .2-.1.3-.1l4.3-1.2c.4-.1.7-.2 1-.2.5-.1.9-.2 1.3-.3h.2.3l.6-.1c.1 0 .2 0 .3.1h.2l.3-.1c.2-.1.4-.1.5 0h.1.2.2s.1 0 .1-.1c.3-.1 1.2-.4 2.8-.8.5-.1.9-.2 1.3-.3.1 0 .1-.1.2-.1.1-.2.3-.3.4-.3 2.3-.5 4.5-.9 6.5-1.3.7-.1 1.7-.3 2.9-.5.7-.1 1.4-.2 2.2-.4 1.1-.2 2.3-.4 3.5-.5l.7-.1c1.4-.2 2.7-.4 3.8-.5l1.2-.3h.2.1c.3 0 .5-.1.8-.1.2 0 .5.1.6.3s.2.4.1.6c-.1.1-.1.3-.2.5s-.2.4-.3.6c0 .1-.1.2-.1.3s0 .2 0 .3c-.1.3-.2.6-.4.9-.1.2-.2.4-.3.6 0 0 0 0-.1.1l-.3-.2c-.3.4-.5.8-.6 1.3 0 .1 0 .2-.1.3v.1.3c-.1.2-.2.4-.3.6s-.2.4-.3.6c-.2.6-.4 1.1-.7 1.7-.2.4-.3.8-.5 1.2-.1.3-.2.6-.2.9 0 .2-.1.4-.1.5s-.1.2-.2.3l-.1.1-.4 1.3c0 .1-.1.2-.2.3-.1 0-.1.1-.1.2v.1.1c0 .1 0 .2-.1.5v.1c-.3.7-.5 1.5-.8 2.2l-1.3 3.9v.1c-.2.7-.4 1.2-.6 1.8-.2.7-.4 1.3-.6 2-.2.6-.3 1.3-.5 1.9-.1.5-.3.9-.5 1.4-.2.6-.4 1.3-.6 1.9-.2.8-.4 1.7-.6 2.5-.1.6-.3 1.1-.4 1.7 0 .2-.1.4-.2.6-.1.3-.2.5-.2.8-.1.6-.2 1.3-.3 1.9-.1.5-.1 1-.2 1.5s-.2 1.1-.3 1.7c-.1.7-.3 1.5-.4 2.2-.2 1.1-.3 2.2-.4 3.2l-.1 1.3c-.1.5-.1 1-.1 1.4 0 1 .1 1.9.1 2.8 0 .4.1.6.2.7.5.4.9.6 1.4.8.8.3 1.6.5 2.4.7h.4c.4 0 .7-.2.8-.5.2-.5.3-1 .2-1.4 0-.3-.1-.6-.1-.9-.1-.7-.2-1.3.1-2 .2-.4.1-1 0-1.5v-.2c0-.2 0-.4.1-.5 0 0 .1-.1.1-.2v-.4c0-.3 0-.7 0-1 0-.2.1-.3.1-.5.1-.2.1-.3.1-.5s0-.3 0-.5c0-.4.1-.7 0-1s0-.7.1-1.1l.1-.3c0-.1 0-.3.1-.4.1-.6.1-.8.3-1l.1-.1c.4-.3.5-.7.4-1-.1-.2-.1-.3 0-.5l.1-.3c.2-.5.4-.9.5-1.3.1-.5.1-1 .2-1.5 0-.2 0-.3 0-.5s.1-.3.2-.5c.2-.2.2-.4.1-.6v-.1c0-.1 0-.2 0-.3.1-.2.1-.4.2-.7.1-.2.2-.5.2-.8.1-.4.2-.8.2-1.1 0-.2.1-.4.1-.6l.2-1c0-.2.2-.3.3-.4s.2-.2.1-.4-.1-.4 0-.6c0-.1.1-.2.2-.3s.1-.1.2-.2c0-.1.1-.2.2-.3v-.1-.1c0-.1 0-.2 0-.3s0-.2 0-.3c0-.5.3-.9.5-1.3.2-.5.5-1 .5-1.5 0-.1 0-.3.1-.4 0-.1.1-.1.1-.2 0 0 0-.1.1-.1.2-.2.3-.5.4-.8 0-.1.1-.1.1-.2.1-.1.1-.2.2-.2s.1-.1.1-.2 0-.1.1-.2c.1-.2.2-.4.2-.5 0-.2.1-.3.1-.4 0-.2.1-.4.2-.6 0 0 0-.1.1-.1l.1-.1c.1-.1.2-.3.2-.4.1-.2.1-.4.1-.6.1-.3.1-.6.3-.8.2-.3.4-.6.5-.8s.2-.4.2-.5.1-.2.1-.3 0-.1 0-.2v-.1c0-.1 0-.2.1-.3 0 0 0 0 0-.1.1-.2.2-.5.4-.7.1-.3.2-.5.3-.7 0-.1.1-.2.1-.2 0-.1.1-.2.2-.3.1 0 .1-.1.1-.2s0-.2 0-.3c0-.5.1-.9.3-1.2 0 0 0 0 0-.1.1-.2.2-.3.3-.5 0-.1.1-.2.1-.3s.1-.2.1-.2l.1-.3c0-.1.1-.3.1-.4s.1-.1.1-.2v-.1c.1-.3.2-.6.3-.6.2-.3.3-.7.4-1v-.1c0-.1.1-.2.1-.3s.1-.2.2-.3l.1-.1c.1 0 .1-.1.1-.2.1-.1.1-.2.2-.3 0-.1 0-.2.1-.3v-.2c0-.1 0-.1.1-.2l2.4-5.2c.1-.2.3-.3.5-.4h.2.4.5c.4.1.7 0 1.1 0zm48.9 1.8c-.7-.6-1.4-1.1-2.2-1.3-.1 0-.1 0-.2-.1l-.1-.1c-.1-.1-.3-.2-.3-.2-.1-.1-.1-.2-.2-.3 0-.1-.1-.2-.2-.2s-.3-.1-.4-.1c-.2-.1-.3-.1-.5-.1-.1 0-.2 0-.3-.1-.2-.1-.5-.1-1-.2-.4 0-.7.1-1 .3l-.6.4c-.2.1-.3.2-.5.4s-.4.3-.5.5c-.1.1-.2.1-.3.2-.1 0-.1.1-.2.1-.3.4-.7.7-1.4 1.3-.1 0-.1.1-.2.1 0 0-.1 0-.1.1-1.2 1.1-2.2 1.8-3.2 2.6-.5.4-1 .8-1.6 1.2-.1.1-.2.1-.2.2l-1.2 1.2-.3.2-.1.1c0 .2-.1.3-.3.4-.1.1-.2.1-.3.2l-.2.1-.1.1v.1c0 .1-.1.3-.2.3-.3.3-.6.5-.9.9l-.1.1c-1.9 1.8-2.2 1.9-2.4 1.9 0 0-.1 0-.1.1-.2.2-.2.2-.3.3v.1c0 .2-.1.3-.4.4 0 0-.1 0-.1.1-.1.1-.3.2-.5.3-.1 0-.1 0-.2.1 0 0 0 0-.1.1-.6.4-1.3 1.1-1.8 1.7-.2.2-.4.4-.5.5l-.1.1-.1.1c0 .1-.1.2-.2.3-.7.7-1.3 1.3-2 2l-.8.8c-1.2 1.2-2.6 2.6-3.7 3.8l-.1.1c0 .1-.1.2-.2.3-.6.6-1 .9-1.3 1.2-.4.3-.8.6-1.6 1.4l-.1.1s0 0-.1.1c-.3.3-.6.7-1.1 1.2-.1.1-.2.1-.2.2 0 0-.1 0-.2.1s-.2.1-.3.1-.1 0-.2.1c-1.1 1.2-1.1 1.3-1.3 1.5-.1.1-.2.3-.4.7-.1.1-.3.2-.4.3-.1 0-.1 0-.2.1-.2.2-.3.3-.7.5-.2.1-.5.1-.7 0-.1 0-.1 0-.2 0l-.5.2c-.2.1-.4.1-.6-.1-.2-.1-.3-.3-.3-.5v-.1c0-.2.1-.3.1-.4l.1-.1c0-.1.1-.1.1-.2v-.1c0-.1 0-.1-.1-.1-.2-.2-.3-.5-.1-.8l.1-.2c.3-.5.6-1.1.9-2 0-.1.1-.1.1-.2 0 0 0 0 0-.1.1-.3.2-.7.2-1.1v-.3c.1-.4.1-.7.4-1v-.1c0-.1.1-.2.2-.3 0 0 0 0 .1-.1.2-.2.3-.7.5-1.3 0-.1.1-.2.2-.3s.1-.1.1-.2c0-.5.2-1 .4-1.4.1-.1.1-.2.2-.3.1-.2.2-.3.3-.5s.2-.3.3-.5c.1-.1.2-.3.3-.3 0 0 .1 0 .1-.1.1-.1.1-.1.2-.2.1 0 .1-.1.1-.1l.2-.5c.1-.3.2-.5.2-.7.1-.4.3-.7.5-1.1.1-.2.3-.5.4-.7 0-.1 0-.2 0-.2-.1-.2 0-.5.1-.7l.2-.2c.4-.4.7-.7 1.4-2.1 0-.1.1-.1.1-.2v-.1s0-.2.1-.4c.1-.3.3-.6.3-.7v-.1c0-.1 0-.3 0-.4.1-.1.1-.3.2-.4 0-.1.1-.2.1-.4.1-.2.2-.3.3-.4l.1-.1c.2-.2.3-.4.4-.6l.2-.3c0-.1.1-.1.1-.1.1-.3.1-.4.1-.6s.1-.4.2-.6c.1-.1.1-.1.1-.2 0-.3-.1-.7-.2-1-.1-.1-.1-.3-.1-.4s0-.2-.1-.2l-.1-.1-.1-.1c-.2-.3-.5-.5-.7-.6l-.1-.1c-.3-.1-.5-.2-.7-.3-.5-.2-.9-.3-1.7-.4l-.8-.1c-.6-.1-1.5.2-2 .6-.3.2-.5.4-.8.7-.2.2-.3.3-.3.4l-.1.2v.2c0 .1 0 .2-.1.3l-.3.7c-.1.1-.2.3-.3.3 0 0 0 0-.1 0-.1.1-.2.1-.3.1s-.2.1-.2.1c0 .1-.4.9-.5 1.2-.1.2-.2.4-.2.4-.1.1-.2.2-.3.3l-.1.1c0 .1-.1.1-.2.1l-.1.1c-.3.5-.6 1.2-.8 1.9-.2.5-.4 1-.6 1.5-.1.2-.2.3-.4.3-.1 0-.1.1-.2.1-.1.1-.1.3-.2.4v.2c.1.1.1.3 0 .5v.1.1c-.2.4-.4.7-.6 1.1-.6 1-1.1 2-1.5 3.3 0 .1-.1.1-.1.2l-.6.8v.1c0 .1 0 .2-.1.2 0 .1 0 .2.1.2.1.2.2.4.1.6-.1.3-.1.4-.2.5-.1.2-.2.3-.4.4-.1 0-.2.1-.2.2v.2c0 .3-.1.6-.1.9-.1.3-.3.5-.6.5-.1 0-.2.1-.2.1 0 .1-.1.1-.1.2s-.1.2 0 .2v.3s-.1.6-.2.9c-.1.4-.2.9-.3 1.4-.1.7-.2 2 0 2.6.1.2.1.3 0 .5v.5c0 .2 0 .3.1.5.1.3.2.5.4.7.2.3.5.6 1 1.3l.1.1c.1.1.1.3.1.4s0 .2.1.2c.1.1.2.2.3.3.3.3.6.5 1 .8.1.1.2.1.2.2 0 0 0 .1.1.1s.1.1.1.1h.1c.3.2.5.4.8.5l.6.4c.1 0 .1.1.2.2s.1.1.2.1.1 0 .2 0c.2.1.4.1.7.2.2 0 .3.1.4.3 0 0 0 0 .1.1.5.5.9.5 1.5.5h.3.5c.1 0 .3.1.4.1h.1c.4.1.9.2 1.6.1.6-.1 1.2-.2 1.9-.3.1 0 .2-.1.2-.3 0-.1 0-.3.1-.4s.2-.2.3-.2h.1c.2-.1.5-.2.8-.4.1-.1.3-.1.5-.1h.2c.4-.3.5-.4.6-.5l.4-.5.1-.1.1-.1c.5-.3.7-.5 1-.6.2-.1.3-.1.4-.1s.1 0 .2-.1l.1-.1c.1 0 .1-.1.1-.2 0-.2.1-.4.3-.5.7-.4 1.2-.8 1.6-1.3.2-.3.5-.5.7-.8l.6-.7c.1-.1.3-.2.4-.2s.2-.1.2-.1c0-.1.1-.2.1-.3l.1-.1c.1-.1.2-.2.3-.3 0 0 .1 0 .1-.1.1-.1.2-.2.2-.2v-.1c0-.1 0-.2.1-.3 0-.1.1-.2.3-.4 0 0 0-.1.1-.1 0-.1.1-.1.1-.2.1-.1.4-.3.8-.6l.2-.2c.2-.2.6-.2.8 0s.3.5.2.7l-.1.4c0 .1-.1.2-.3.3-.1.1-.1.2-.3.5-.1.1-.2.3-.3.5v.1c0 .1-.1.3-.1.4l-.2.3s0 .1-.1.1c-.4.5-.7 1-1.1 1.9v.2c.1.2 0 .4-.1.6-.1.1-.1.2-.2.4l-.6 1.1c-.1.1 0 .2 0 .3.1.1.2.3.2.5s-.2.4-.4.6c-.1.1-.3.2-.4.3l-.1.1v.1c-.1.2-.2.4-.4.7-.2.4-.5.8-.6 1.1v.2.3c-.1.4-.2.8-.2 1.2-.1.4-.1.8-.3 1.3-.1.3-.4.5-.6.4-.1 0-.2.1-.3.2 0 .1-.1.2-.2.4v.1.3c0 .3-.2.6-.4.7 0 0-.1 0-.1.1l-.1.1s0 0-.1.1-.2.2-.3.2-.1 0-.2.1c0 0 0 0-.1.1l-.1.1c-.5 1.2-.6 1.6-.6 1.7s-.1.3-.2.4l-.1.1c0 .1-.1.3-.2.4s-.1.2-.1.2c0 .2 0 .4-.2.5v.1c-.2.4-.4.9-.5 1.5v.2c-.1.5-.2.9-.6 1.6-.1.1-.1.2-.3.3-.1.1-.1.1-.1.2s0 .2-.1.3l-.1.1v.3s.1.1.2.2c.1 0 .2.1.3.2.2.2.2.4.2.7 0 .1-.1.2-.2.3l-.1.1-.1.2v.1c0 .2-.1.4-.2.5s-.2.2-.5.2c-.1 0-.2 0-.2.1h-.1c-.1.1-.1.1-.1.2 0 .1 0 .2-.1.3v.1.4c0 .1-.1.3-.1.4v.1.3s0 .3-.1.6v.1.2.2c.1.1.1.2.1.3l.2 1.3c0 .1.1.2.2.2s.2.1.3.2l.2.2c.1.1.2.3.3.4l.1.1c.2.4.5.7.8.9l.1.1.2.1c.3.1.5.3.8.4.6.3 1.1.6 1.7.7.3.1.7.1 1 .1h.5c.4 0 .9 0 1.3-.3h.1c.1 0 .3-.2.5-.3 0 0 .1 0 .1-.1.1-.1.2-.2.1-.4 0-.1 0-.1 0-.2s-.1-.2-.2-.3-.3-.3-.6-.7l-.2-.2-.1-.1s0 0 0-.1c-.1-.1-.2-.3-.2-.5 0-.3.1-.4.1-.4v-.1c0-.1 0-.2 0-.3-.1-.1-.1-.3-.1-.5l.1-.5c.1-.9.2-1.8.4-2.6.1-.2.1-.4.1-.5 0 0 0 0 0-.1.1-.3.1-.6.1-.8s.1-.5.3-.6c.1 0 .1-.1.1-.2l.4-1.1c.1-.2.1-.4.2-.6s.1-.5.2-.7.1-.3.2-.5.2-.5.3-.7.1-.5.1-.7.1-.4.3-.6c.1-.1.2-.2.3-.3 0 0 0 0 0-.1.1-.2.1-.4 0-.5-.1-.2 0-.4.1-.5l.2-.3c.3-.4.5-.9.7-1.3.3-.6.5-1.2.8-1.8l.4-.8v-.1c0-.1.1-.2.1-.3.2-.2.3-.4.2-.7 0-.2 0-.4.2-.6.3-.3.3-.5.3-1 0-.3.1-.6.4-.7 0 0 .1 0 .1-.1.1-.1.3-.3.4-.5.1-.1.1-.2.2-.2s.1-.1.1-.2 0-.2.1-.3l.1-.1c.3-.3.4-.7.5-1.1 0-.1.1-.3.1-.4v-.1c0-.2 0-.4.2-.5.2-.2.4-.4.5-.6 0 0 0-.1.1-.1 0 0 .1-.1.2-.2v-.1s0 0 0-.1l.1-.1c.1-.1.1-.2.1-.3.1-.2.2-.4.3-.6s.2-.4.4-.6c.2-.3.4-.6.5-1l.1-.2c.2-.5.3-1 .8-1.5s.8-1.2 1.2-1.9c.2-.3.3-.7.5-1 .3-.5.6-1 .9-1.6l.1-.1c.2-.3.3-.6.5-.8l.8-1.4c.4-.6.8-1.3 1.2-1.9l.2-.4c.5-.8 1-1.7 1.6-2.5.3-.4.6-.8.9-1.2s.5-.7.8-1.1c.5-.7 1-1.5 1.5-2.2.8-1.1 1.5-2.3 2.3-3.4.9-1.3 2-2.6 3.1-3.9.2-.2.3-.5.4-.7.2-.3.3-.7.7-1s.7-.7 1-1.1c.1-.2.3-.3.4-.5 1 .1 1-.5.5-.9zm-121.8 7.6c0-.2.1-.4.2-.5.2-.3.4-.9.7-1.9.2-.7.4-1.4.7-2 0 0 0-.1 0-.2s0-.3.1-.4c0-.1.1-.2.2-.3 0 0 .1-.1.1-.2s0-.3 0-.4c0-.2 0-.4.1-.6 0-.2 0-.3 0-.4s0-.3 0-.4c0-.1 0-.2 0-.2-.2-.5-.4-.6-.6-.7-.1 0-.3-.1-.4-.2l-.1-.1c-.2-.2-.4-.3-.5-.5l-.1-.1c-.1 0-.1-.1-.2-.1-.2-.1-.3-.2-.5-.3s-.4-.2-.6-.2h-.1c-.1 0-.2-.1-.2-.1-.1 0-.1-.1-.2 0-.1 0-.2 0-.2 0-.1 0-.2 0-.2 0-.3-.1-.4-.1-.9-.2-.1 0-.1 0-.1 0-.1.1-.3.1-.5.1-.1 0-.2 0-.4 0-.1 0-.3.1-.3.1h-.1c-.2 0-.3.1-.4.2 0 0 0 0-.1 0 0 0 0 0-.1.1l-.1.1c-.1.1-.3.2-.5.4l-.1.1c0 .1-.1.2-.2.2v.1c-.2.3-.3.5-.4.8 0 .1-.1.1-.1.2 0 0 0 .1-.1.1 0 .1-.1.1-.1.2s-.1.3-.3.3c-.1.1-.2.1-.3.1s-.2.1-.2.1c-.1.1-.1.1-.1.2v.1c0 .2 0 .3-.2.5 0 0 0 .1-.1.1v.1s0 .2 0 .5c0 .6-.1.9-.2 1.2 0 .1-.1.2 0 .2.1.2 0 .4-.1.6s-.2.4-.3.6c0 .1-.1.1-.1.2s-.1.1 0 .2v.2c0 .1 0 .2-.1.2l-.3.7v.1c0 .1 0 .2-.1.4-.2.3-.4.7-.3 1.1 0 .2-.1.5-.3.7l-.1.1-.2.6c0 .1-.1.2-.1.2s0 0 0 .1c-.1.3-.2.6-.2.8 0 .1 0 .3-.1.4-.4.7-.4.9-.4 1.4 0 .2-.1.3-.2.4l-.1.1v.2c0 .1-.1.2-.2.3v.1c-.2.4-.4.8-.6 1.3 0 .1 0 .1-.1.2v.1c-.1.5-.3.9-.5 1.4-.3.6-.5 1.1-.4 1.4.1.1.1.3 0 .4v.2c0 .1.1.2.1.3s-.1.3-.1.4c-.1.1-.1.2-.2.4l-.1.2c0 .1-.1.2-.2.3l-.1.1c-.3 1-.7 1.9-1.1 2.8-.3.8-.6 1.5-.9 2.3 0 .1 0 .2-.1.3v.1c0 .1-.1.3-.2.4l-.1.1v.2.2c.1.1.1.2.1.3 0 .2-.1.5-.3.6-.1 0-.1.1-.1.2v.1l-.2.6v.2c.1.1.1.3 0 .4v.1c0 .1 0 .2-.1.3 0 .1-.1.2-.2.3 0 .1-.1.1-.1.2v.2c-.1.2-.2.5-.2.7-.1.2-.2.5-.2.6s-.1.1-.1.2c0 0-.1.1-.1.2 0 .5-.2.9-.3 1.4v.1c0 .1 0 .2-.1.3s-.1.2-.2.4v.2.2c0 .2-.1.5-.3.6-.1 0-.1.1-.1.2v.2c0 .1-.1.3-.2.4 0 0-.1.1-.1.2-.1.5-.3 1.1-.6 1.7-.2.5-.4 1-.6 1.6 0 .1 0 .1-.1.3v.1c0 .1-.1.2-.1.2-.1.1-.1.2 0 .3.1.2 0 .4-.1.6-.1.1 0 .3.1.4l.1.1c.2.2.3.4.3.7-.1.2-.1.4-.1.6l-.3 1.1c0 .2-.1.4-.1.7-.1.8.1 1.4.2 2.1.1.2.1.4.2.7v.2.1c0 .1.1.2.2.4 0 0 0 .1.1.1l.2.4c0 .1.1.1.2.2.1 0 .2.1.3.2 0 0 0 0 .1.1 0 0 .1 0 .1.1.1 0 .3.1.3.2s.1.1.2.2.1.1.2.1h.2c.1 0 .1.1.2.1.1.1.2.1.3.1.1.1.3.1.4.1h.1.3s.2 0 .3 0c.1-.1.2-.1.4 0 .1 0 .2 0 .3.1h.2.1c.3 0 .7-.2.9-.5.2-.2.3-.5.4-.7 0 0 0-.1 0-.2s0-.2 0-.3c.1-.2.1-.3.2-.5s.2-.4.4-.5c0 0 .1-.1.1-.2 0 0 0 0 .1-.1 0 0 .1-.1.1-.2l.2-.6v-.1c0-.1 0-.2 0-.3s.1-.3.2-.4.1-.2.1-.3 0-.2 0-.3v-.1c0-.2.1-.4.2-.5s.3-.2.4-.2.2 0 .3-.1c0 0 .1-.1.1-.2s0-.1 0-.2c-.1-.2-.1-.3 0-.5 0-.1.1-.2.1-.2 0-.1.1-.2.1-.3.1-.1.1-.1.1-.2.1-.1.1-.2.3-.4.1-.1.1-.1.1-.2s0-.1 0-.3c0-.1 0-.2.1-.2v-.1-.1s0-.1 0-.2c-.1-.2 0-.5.2-.7l.1-.1.1-.3c0-.1.1-.1.1-.2l.1-.1c.1-.1.1-.2 0-.3s-.1-.3-.1-.4c0-.3.2-.5.5-.5.1 0 .2-.1.2-.2s0-.1.1-.2c0 0 0-.1.1-.1 0-.1.1-.1.1-.2 0 0 .1-.1.2-.2s.1-.2.1-.3c-.1-.2 0-.4.1-.6 0-.1.1-.1.2-.2.1 0 .1-.1.1-.2s0-.1 0-.2c-.1-.2 0-.3.1-.5s.1-.3.1-.4c0-.2.1-.5.3-.6l.1-.1c0-.1.1-.1.1-.2.1-.1.1-.2.1-.3s0-.2 0-.3 0-.2 0-.3 0-.2 0-.3v-.1c0-.2 0-.3 0-.5v-.1c0-.1 0-.1 0-.2 0 0 0-.1 0-.2 0 0 0-.2.1-.3 0-.1 0-.1 0-.2s0-.1-.1-.2v-.1c0-.1 0-.2 0-.2v-.1c0-.1 0-.2 0-.3v-.1c0-.1 0-.1 0-.2l.1-.3c0-.1 0-.1.1-.2.2-.3.3-.6.4-.8v-.1c0-.1 0-.1 0-.2s0-.1 0-.2l.1-.6c0-.1.1-.2.1-.2s0 0 0-.1c.1-.2.1-.5.2-.8l.1-.3c0-.1.1-.2.2-.3s.2-.3.3-.4l.1-.1c.2-.2.2-.4.2-.7 0-.1 0-.1 0-.3 0-.1 0-.2.1-.2 0-.1.1-.2.3-.3.1 0 .1-.1.1-.1 0-.1.1-.2.2-.4s.2-.3.2-.5c0-.1.1-.2.2-.3.3-.2.4-.8.6-1.3.1-.3.1-.5.2-.7 0-.1 0-.2 0-.2-.1-.1-.1-.2 0-.4v-.1c0-.1.1-.2.1-.2.1-.1.1-.2.1-.2 0-.1 0-.2 0-.3v-.1c0-.1 0-.2 0-.3v-.1c0-.2.1-.3.1-.4s0-.1.1-.2c0-.1.1-.2.1-.3s.1-.1.1-.2c.4-.4.4-.9.5-1.3s.1-.8.3-1.1c0 0 0-.1.1-.1 0-.2.1-.3.2-.4s0 0 0-.1.1-.1.1-.1l.3-.2c.1-.1.1-.2.1-.3-.1-.2-.1-.4 0-.6v-.1c.1-.1.1-.2.3-.4 0-.1.1-.1.1-.2s0-.2.1-.3v-.1c0-.1 0-.1 0-.2.1-.2.1-.4.1-.5 0-.2.1-.5.3-.6l.1-.1v-.1-.1c0-.1 0-.3.1-.4 0 0 0-.1 0-.2 0-.3 0-.5 0-.7 0-.1 0-.1 0-.2s0-.2.1-.3v-.1c0-.8 0-.9 0-1zm-57.1 10.9.2-.7c0-.1 0-.1.1-.2.4-.6.3-1.3.3-2 0-.5 0-1 .1-1.5v-.1c0-.1 0-.2 0-.2 0-.1 0-.2.1-.2v-.1c0-.1 0-.1 0-.1v-.1c0-.1 0-.1.1-.2l.1-.2c0-.1.1-.2.1-.2 0-.1 0-.2-.1-.3s-.1-.1-.1-.2c0 0 0 0 0-.1-.2-.2-.1-.5.1-.8l.1-.1c0-.1 0-.1.1-.2v-.1-.1c0-.1-.1-.1-.1-.2-.2-.1-.3-.3-.3-.5 0-.3-.1-.5-.2-.7s-.1-.4 0-.5c.1-.2.2-.3.3-.4 0 0 .1 0 .1-.1v-.1-.1c0-.1 0-.2 0-.3-.1-.2-.2-.4-.2-.6v-.1l-.1-.2c-.1-.2 0-.3.1-.5 0-.1.1-.3.2-.4s.1-.2 0-.3-.1-.2-.2-.3l-.1-.1c-.2-.1-.3-.3-.3-.6-.1-.2 0-.4.1-.6l.1-.1c0-.1 0-.2 0-.3-.2-.3-.4-.5-.5-.6 0 0-.1-.1-.2-.1-.2 0-.5-.2-.6-.4l-.1-.2v-.1c0-.1 0-.2-.1-.2 0-.1-.1-.1-.2-.2-.1 0-.2-.1-.3-.2l-.1-.1-.1-.1c-.1-.2-.2-.4-.3-.6l-.1-.1-.1-.1c-.1-.1-.2-.2-.3-.3 0-.1-.1-.1-.2-.2-.1 0-.2 0-.3-.1-.1 0-.2-.1-.3-.2l-.1-.1-.1-.1c-.1-.1-.2-.2-.4-.1-.1.1-.3.1-.4 0h-.1c-.3-.1-.4-.4-.4-.7 0-.1 0-.2-.1-.3l-.5-.3-.1-.1s-.1 0-.1-.1l-.3-.1c-.2-.1-.3-.2-.4-.3 0-.1-.1-.1-.2-.1-.3-.1-.5-.1-.7-.1h-.1-.1c-.1 0-.3 0-.4 0s-.1 0-.2 0-.1 0-.2 0h-.1-.3c-.1 0-.2 0-.2-.1-.1-.1-.2-.1-.5 0-.1 0-.3 0-.4 0 0 0 0 0-.1 0h-.6-.1c-.4-.1-.9-.1-1.3-.1-.1 0-.1 0-.2 0s-.1 0-.3.1c-.1 0-.1 0-.2 0l-.8.1c-.1 0-.2 0-.3 0-.7 0-1.3.2-1.8.4-.1 0-.2 0-.4 0-.4 0-.7.1-.7.1s-.1 0-.2 0c-.4 0-.7.1-.9.4-.1.1-.1.1-.2.2s-.4.2-.7.3c-.1 0-.3.1-.4 0h-.1-.1c-.1 0-.1 0-.2 0h-.1s0 0-.1 0l-.1.1c-.1 0-.1.1-.2.2l-.1.1v.1c-.1.1-.2.3-.3.4 0 0-.1 0-.1.1-.1 0-.2.1-.4.4 0 .1-.1.1-.2.2-.2.1-.4.3-.6.5s-.3.4-.5.6l-.2.2s0 .1-.1.1-.1.1-.1.1 0 .1-.1.1c-.1.1-.1.1-.1.2l-.8 1.6v.2c0 .2 0 .4-.1.5s-.1.2-.2.2l-.1.1c-.1.1-.2.3-.4.3l-.3.1c-.1 0-.1 0-.2 0h-.1-.1c-.1 0-.2 0-.2.1-.1 0-.2 0-.3 0h-.1-.1-.1c-.1 0-.1 0-.2 0-.2-.1-.4-.1-.5-.2-.1 0-.2 0-.3.1-.1.2-.2.3-.4.3-.1 0-.2 0-.3 0h-.1c-.5.2-.8.4-1 .6 0 0-.1.1-.2.2s-.2.2-.3.2c-.5.3-.8.6-1.1.9-.1.2-.3.4-.4.7-.1.1-.2.3-.3.3l-.1.1c-.1.1-.1.2-.4.5-.4.4-.9 1-1.2 1.7 0 .1-.1.1-.1.2l-.1.1c-.2.5-.6 1-.9 1.5-.6.9-1 1.5-.9 2v.3l-.1.5c0 .1 0 .1-.1.2-.1.3-.3.5-.4.8v.2c0 .1 0 .3-.1.4l-.1.1c0 .1-.1.2-.2.2s-.1.1-.1.2c-.1.3-.2.6-.3.8s-.1.4-.2.5c0 .2-.1.3-.3.4-.1 0-.1.1-.1.2-.1.3-.1.5-.1.7v.3l-.2.6c-.4 1-.8 1.9-1.1 2.9v.1c0 .1 0 .2-.1.3s-.1.3-.1.4-.1.3-.2.4c0 0-.1.1-.1.2v.3.2c0 .1.1.1.1.2v.5c0 .2-.1.3-.2.4 0 0 0 0-.1.1 0 0 0 .1-.1.1 0 .1-.1.1-.1.1l-.3.3c-.1.1-.1.1-.1.2s0 .2.1.2c.1.1.2.1.2.2 0 0 0 .1.1.1.2.2.3.4.2.7s-.2.8-.3 1.5v.1c0 .1-.1.3-.2.4l-.1.1c-.1.2-.1.4-.1.5v.1c.1.2.1.3 0 .5v.1.2c0 .1 0 .3.1.6l.1.3c.1.3 0 .8-.1 1.1v.2c.1.1.1.3 0 .4v.2.2c0 .4 0 .6-.1.8v.3s.1.2.1.3v.2c0 .2 0 .3.1.4v.4.2c.1.3.1.6.1 1 0 .3.1.7.2 1l.1.3c.1.3.1.6.1 1v.1c0 .3.1.6.1.9 0 .1 0 .1.1.1.1.1.2.3.2.5v.4c0 .1 0 .2.1.2 0 0 .1 0 .1.1.2.1.3.3.3.5 0 .1.1.1.1.2.1.1.2.2.2.3.3.7.9 1.3 1.5 1.8.3.2.5.4.8.7.3.2.6.5.9.8.3.2.6.4 1 .6l.2.1c.1 0 .2.1.2.1l.4.2c.2.1.4.2.6.3l2.2 1h.2s.2-.1.3 0h.2.1.4l.3.1h.1.1.2.6.7.1c.2-.1.4-.2.6-.1h.1.1.2.4.4.2c.1 0 .2-.1.3-.1.5-.1.9-.1 1.4-.2h.3.1.1c.1 0 .2-.1.2-.1.1-.1.2-.1.3-.1h.3c.2 0 .3-.1.5-.1h.1c.1 0 .2-.1.3-.2 0 0 0 0 .1-.1.2-.1.3-.2.4-.2s.2-.1.2-.1c.2 0 .5-.1.8-.3s.1 0 .1-.1c.1-.1.2-.2.4-.2h.1c.2-.1.3-.2.3-.2.1-.1.2-.2.4-.2h.1l.3-.2c.1 0 .1-.1.1-.1 0-.2.2-.3.3-.4s.3-.1.4-.1.2 0 .3-.1c.1-.2.2-.3.3-.5 0-.1.1-.1.1-.2.1-.1.2-.1.3-.2l.3-.2c.1-.1.2-.1.3-.1 0 0 .1 0 .1-.1.2-.1.4-.2.6-.1.1 0 .2 0 .2-.1l.3-.3h.1c.1-.1.1-.1.1-.2 0-.2.1-.3.2-.5.1-.1.3-.2.5-.2.1 0 .2-.1.3-.2 0-.1.1-.2.2-.3.1-.2.1-.3.3-.5 0-.1.1-.1.2-.2 0 0 0 0 .1-.1.1-.2.3-.2.5-.2.1 0 .2 0 .3-.1l.1-.1.2-.2v-.1c.2-.3.4-.6.4-1 0-.1 0-.1.1-.2 0 0 0-.1 0-.2s0-.2.1-.4l.1-.1.1-.1c.1-.1.3-.2.5-.4l.1-.1c0-.1.1-.2.2-.3.1 0 .1-.1.1-.2v-.3c0-.3.2-.5.4-.6.1 0 .2-.1.2-.2v-.1c0-.1.1-.3.2-.4 0 0 .1 0 .1-.1l.1-.1c0-.1.1-.1.1-.2l.1-.1c0-.1 0-.1.1-.2 0-.2.2-.4.3-.4s.1-.1.1-.1l.1-.3v-.1c0-.1 0-.3.1-.4s.2-.3.4-.4c.1 0 .1-.1.1-.2s0-.2.1-.3c0 0 0-.1.1-.1 0-.1.1-.1.1-.2l.1-.1.1-.2c0-.1.1-.2.2-.2l.1-.1c0-.1 0-.2 0-.3s.1-.3.2-.4l.2-.5.1-.1c.3-.3.5-.8.6-1.1v-.1c0-.1.1-.2.1-.3s0-.1.1-.2l.3-.9c0-.1.1-.1.1-.2v-.1c0-.1 0-.1.1-.2 0 0 .1-.1.1-.2l.1-.3v-.1l.1-.3c.1-.2.2-.4.4-.7v-.1c0-.1 0-.2.1-.3v-.1s0-.1.1-.1c0 0 .1-.1.1-.2 0 0 0 0 0-.1.1-.1.1-.2.2-.5 0-.1 0-.3.1-.4l.1-.2c.1-.1.1-.2.2-.4 0-.1.1-.2.2-.2s.1-.1.1-.2 0-.2 0-.2c0-.1.1-.2.1-.3.1-.1.1-.1.1-.2s.1-.2.2-.2l.1-.1c.1-.1.3-.2.4-.2s.2-.1.3-.3l.1-2.1v-.1-.1c0-.2 0-.3.1-.5l.1-.1c.2-.3.3-.6.3-.9 0-.1 0-.2-.1-.3s-.1-.2-.1-.4c0-.1 0-.1 0-.2.1-.2.1-.4.2-.6zm-6.6-11c-.1.2-.1.5-.1.7s0 .3-.1.5l-.1.2c-.1.1-.2.2-.3.2s-.1.1-.2.2v.2.1c.1.1.1.2 0 .5v.1.2.1.2c0 .1 0 .3.1.4l.2.6v.4.2c.1.2.1.4 0 .5 0 .1-.1.1-.1.2-.1.2-.1.3-.1.5v.2.2c0 .1.1.2.1.3v.2.2.2c.1.2 0 .5-.1.7-.1.1-.1.2-.2.3v.1c0 .1-.1.2-.2.3-.1.3-.3.5-.4.9v.1.3s0 .3 0 .5v.2c0 .1 0 .2-.1.3v.1l-.1.3v.1c0 .1 0 .2-.1.2 0 .1-.1.2-.1.4-.3.5-.4.8-.4 1 0 .1 0 .2-.1.5v.1c0 .2 0 .3-.1.4l-.1.1v.1c0 .1-.1.2-.1.4v.1c-.1.3-.3.7-.4 1.1 0 .1-.1.2-.1.3v.1c-.3.7-.6 1.3-.9 1.8-.2.4-.4.8-.3 1.1.1.1.1.3 0 .4l-.1.5c0 .1-.1.3-.2.3-.1.1-.2.2-.2.3-.1.1-.1.2-.1.3v.1c0 .1-.1.2-.2.2 0 0-.1.1-.1.2v.1.1c0 .1-.1.2-.1.2s0 .1-.1.2l-1.1 2c-.4.7-.8 1.4-1.2 2.1v.1s-.1.2-.1.3v.1s-.1.3-.3.3l-.1.1-.1.1v.2.5c-.1.2-.2.3-.4.3-.1 0-.1.1-.2.1 0 0 0 .1-.1.1-.1.2-.2.3-.4.5 0 .1-.1.2 0 .2v.1c0 .2 0 .4-.2.5l-.1.1c-.1.1-.2.2-.2.3s-.1.1-.1.1 0 0 0 .1c0 0-.1.2-.1.3s0 .1-.1.2c0 .1 0 .1-.1.2 0 0 0 .1-.1.1l-.5.6c0 .1-.1.1-.2.2l-.1.1c-.2.5-.5.8-.9 1.2v.1c-.1.1-.2.2-.3.3s-.2.2-.4.3c-.1.1-.4.3-.4.3s-.1.1-.2.1-.2.1-.2.2-.1.2-.1.2c-.1.1-.2.2-.2.3-.1.1-.2.2-.3.3-.1 0-.1.1-.1.1-.4.6-1.1 1.1-1.7 1.6-.3.2-.5.4-.7.5 0 0 0 0-.1.1-.1.2-.3.3-.5.3-.1 0-.2.1-.2.2-.1.1-.1.2-.3.3l-.1.1c-.1.1-.2.2-.3.3l-1.3.4c-.2.1-.6.1-.9 0-.4-.1-.8-.3-1.1-.6-.6-.5-1.1-1.2-1.2-2.1 0-.1-.1-.1-.1-.2-.1-.1-.2-.1-.2-.3 0 0 0 0-.1-.1s-.2-.2-.2-.4v-.2-.1c-.1-.2-.1-.4 0-.6 0 0 0-.1 0-.2s0-.2-.1-.2c-.1-.1-.2-.2-.2-.3s0-.2 0-.3-.1-.3-.2-.3-.2-.1-.3-.2c-.1-.2-.2-.4-.1-.6v-.1-.1c-.1-.2-.1-.4 0-.6v-.1c0-.2 0-.4 0-.6v-.1-.1-.1c0-.1 0-.1 0-.2s0-.2.1-.3c0-.1.1-.1.1-.2 0-.4-.1-.7-.2-1l-.1-.3c0-.1 0-.2 0-.3v-.1c0-.2 0-.4.1-.5s.3-.2.4-.2h.1.1c.1 0 .2-.2.2-.3v-.1c0-.1 0-.1-.1-.2-.2-.2-.2-.6 0-.8 0 0 0-.1.1-.1 0-.1 0-.2 0-.3-.2-.2-.2-.5-.1-.8.1-.2.3-.4.6-.4h.1.1c.1 0 .3-.1.4 0 .2 0 .6 0 .7-.7 0 0 .1-.8-.1-1.5l-.1-.2c0-.1 0-.2-.1-.3-.1-.2-.1-.3 0-.6v-.1c0-.1.1-.3.2-.4l.1-.1c.1-.2.2-.3.5-.4h.1c.1 0 .2-.1.2-.3v-.7-.1s0-.1 0-.2c0-.2.1-.3.3-.4h.1v-.1s0 0 0-.1v-.3-.1c0-.2 0-.3.1-.5 0-.1.1-.2.2-.3s.1-.1.1-.2 0-.1 0-.2 0-.1.1-.3c0-.1.1-.2.2-.3 0-.1.1-.1.1-.2s0-.3.1-.4c0-.1.1-.1.1-.2l.2-.2c.2-.1.4-.3.6-.6 0 0 0-.1.1-.1 0-.1.1-.1.1-.2 0 0 0-.1.1-.1l.2-.3c.1-.1 0-.3 0-.4-.2-.2-.2-.4-.1-.7 0-.1.1-.1.1-.2s.1-.3.2-.3l.2-.1c.1 0 .1-.1.1-.2v-.2-.1c0-.2.2-.3.3-.4h.1s0 0 .1-.1.3-.2.4-.3.1-.2.1-.2c0-.1.1-.2.2-.2h.1c.3-.2.5-.7.7-1.2l.3-.7c.1-.2.1-.4.1-.6 0-.1 0-.2.1-.3 0 0 0-.1.1-.1l.2-.4c0-.1 0-.1 0-.2 0-.2 0-.4.1-.5 0-.1.1-.1.1-.2.1-.1.1-.1.2-.2.1 0 .1-.1.1-.1.1-.1.2-.2.4-.3.1 0 .1-.1.2-.1 0-.1.1-.1.1-.2 0 0 0-.1.1-.1v-.1c0-.1 0-.1.1-.2s.1-.2.2-.2c.1-.1.1-.2.1-.3s0-.3.1-.4.2-.3.2-.4.1-.1.1-.2l.1-.1.1-.1c0-.2.2-.3.3-.4l.2-.1.1-.1.3-.1c.1-.1.2-.2.1-.3 0-.1 0-.1 0-.2v-.1c0-.2 0-.3 0-.5l.3-.3c.1 0 .1-.1.1-.2v-.1c0-.1.1-.1.1-.2.1-.2.2-.5.2-.7s.2-.4.4-.5c0 0 .1 0 .1-.1l.1-.1.1-.1c.1-.1.2-.2.4-.3.2 0 .3-.1.4-.3.1-.1.2-.2.4-.3.1 0 .1-.1.1-.2s.1-.2.1-.3c0 0 .1-.1.1-.2s0-.2.1-.3.1-.2.1-.2c0-.2.1-.3.3-.4.1-.1.2-.1.4-.1s.3-.1.3-.3.1-.3.2-.4l.2-.2c.5-.5 1.2-.9 1.8-1 0 0 .1 0 .1-.1.2-.1.4-.2.6-.1h.2c.2-.1.4-.1.5-.1s.3 0 .4.1c.1 0 .2.1.3 0 .3-.1.6-.1.8.2 0 0 .1.1.2.3l.3.4c.1.2.3.4.5.5.1 0 .1.1.2.2l.1.1c.1 0 .1.1.1.2.1.2.2.3.3.5 0 .1.2.2.3.2.4 0 .6.2.7.6 0 .2 0 .4-.2.6-.1.1-.1.2-.1.2 0 .2.1.2.1.3.1.2.1.3.1.6 0 .1 0 .2.1.2-.3 0-.2.2-.3.4zm43.8 17c0-.1.1-.1.1-.2 0 0 0 0 0-.1.1-.1.1-.3.1-.4s0-.3 0-.4l-.1-.5s0-.1-.1-.1c-.1-.1-.1-.3-.1-.4v-.1c0-.2 0-.4 0-.6 0-.1 0-.1 0-.2l.2-.6c0-.1 0-.1 0-.2v-.1-.1c-.1-.1-.1-.2-.1-.4v-.1c0-.1 0-.2-.1-.3s-.2-.1-.3 0l-.3.2c-.2.1-.4.1-.6.1l-.4-.2c-.1 0-.2-.1-.3-.2l-.1-.1h-.1c-.1-.1-.3 0-.4.1l-.1.2c-.1.2-.4.4-.6.4-.1 0-.2.1-.3.2v.1c-.1.2-.3.3-.5.4-.1 0-.1 0-.2.1s-.1.2-.2.2l-.1.1-.3.3-.1.1c-.3.2-.6.5-.9.8-.1.1-.3.3-.4.5-.1.1-.2.3-.3.4 0 0 0 .1-.1.1-.1.1-.2.3-.3.4l-.1.1c-.1.1-.1.2-.2.3s-.1.2-.2.2c-.1.1-.2.2-.4.3-.1.1-.2.2-.3.3s-.2.1-.3.2c0 0-.1 0-.1.1-.1 0-.2.2-.4.5v.1c0 .2-.1.4-.3.5-.1.1-.3.2-.4.3l-.5.6c-.1.1-.1.1-.2.2 0 0 0 0-.1 0-.3.3-.6.6-.9.8 0 0 0 0-.1.1l-.3.2s-.1.1-.1.2c0 0-.1.1-.1.2 0 0 0 .1-.1.1l-.1.1v.1s-.1.2-.1.2c-.1.1-.3.3-.4.4-.3.4-.6.7-.8 1.1-.1.1-.1.2-.2.2l-.1.1v.1.1c0 .1-.1.1-.1.2l-.1.1c-.1.1-.2.1-.3.1-.3.1-.6.3-.8.4-.1.1-.2.2-.3.4 0 .1-.1.1-.1.2-.1.1-.2.2-.3.4-.1.1-.1.2-.1.2l-.2.3c-.1.1-.2.3-.6.7-.3.3-.6.6-.9.8-.2.1-.2.2-.4.3l-.1.1c-.2.1-.5.3-.7.6l-.1.1c0 .2-.1.3-.3.4-.1 0-.1.1-.2.1-.2.2-.4.4-.4.6 0 .1-.1.2-.2.2s-.1.1-.1.1c-.2.2-.3.3-.4.6v.1c0 .3-.2.5-.5.5 0 0-.1 0-.1.1-.2.1-.2.2-.3.2v.1s-.1.2-.2.3h-.1c-.2.2-.5.3-.7.5l-.2.2s-.1.1-.2.1c-.4.2-.8.4-1.1.6-.5.3-.9.7-1.2.9-.6.6-1.4 1.2-2.2 1.5h-.1c-.2.1-.3.2-.5.3-.1 0-.1 0-.2.1l-.2.1c-.2.1-.4 0-.6-.1h-.1c-.2 0-.5-.2-.5-.4 0 0 0 0 0-.1s-.1-.1-.1-.2c-.1-.2-.1-.6-.2-1v-.3-.1-.2-.1-.1c0-.1 0-.1 0-.2s0-.2 0-.3v-.1c.1-.3.1-.6.2-.9 0-.2.1-.3.2-.4s.1-.1.1-.2l-.1-.6c0-.3.1-.5.3-.6.1 0 .1-.1.1-.2v-.4c0-.1 0-.1 0-.2v-.1c0-.1 0-.2.1-.3 0-.1.1-.2.1-.3v-.2c0-.2.1-.4.1-.8 0-.1 0-.2.1-.3v-.1s0-.1 0-.2c0-.3.1-.9.4-1.1.4-.4.8-1.4 1.3-2.6l.3-.8c.6-1.5 1.4-3.2 2.1-4.5 0-.1 0-.1 0-.2 0-.2 0-.3.1-.4.1-.2.3-.4.4-.6.1-.1.1-.2.3-.3.1 0 .1-.1.1-.1.2-.6.4-1.1.6-1.4s.3-.6.4-.9c0-.2.1-.3.3-.4 0 0 .1 0 .1-.1.1 0 .1-.1.1-.1.4-.8.5-1.3.3-1.7-.1-.2-.1-.5.1-.7l.3-.4s0-.1.1-.1c0-.1 0-.1 0-.2s0-.2.1-.3l.1-.1c.1-.1.1-.3.2-.5.1-.1.1-.2.3-.4.1-.2.2-.3.4-.5.1-.1.1-.2.2-.3s.1-.2.1-.2c.2-.4.4-.7.4-.9 0-.1 0-.2.1-.3.1-.2.2-.5.3-.6v-.1c.1-.2.1-.3.2-.4l.3-.3c.1 0 .1-.1.1-.1.3-.4.6-.8.8-1.1l.8-.8c.1-.1.1-.3 0-.4s-.1-.2-.1-.2c-.1-.2 0-.4.1-.5l.1-.1.1-.1c.1-.1.1-.2.1-.3 0 0 0-.1.1-.1l.2-.3c.1-.1.1-.2.2-.3l.3-.4.1-.1c.1-.1.3-.5.3-.7v-.1c0-.2.1-.4.2-.5s.2-.1.3-.2l.1-.1c.1-.1.1-.1.2-.4 0 0 0 0 0-.1v-.1c0-.2.2-.4.4-.5.1-.1.2-.1.3-.1h.1c.2 0 .3-.1.3-.3 0-.1 0-.2.1-.3.1-.2.2-.3.4-.3.1 0 .1-.1.2-.1.3-.4.4-.6.4-.7v-.1c-.1-.4.2-.5.3-.6 0 0 .1 0 .1-.1l.1-.1.1-.1.1-.1c.1-.1.1-.2.2-.3.2-.2.4-.6.5-.8l.1-.2c.2-.3.3-.5.3-.5l.2-.2.1-.1c.1-.1.2-.1.4-.1s.4 0 .5.1c.2.1.3.3.3.5v.1.3.2c0 .1 0 .2.1.2 0 .1.1.2.1.2v1 .4c0 .1 0 .2-.1.3v.2.3s0 .2-.1.3-.1.3-.1.4v.2c0 .1-.1.3-.1.4-.1.1-.1.3 0 .4.2.2.2.5 0 .8 0 0 0 .1-.1.1-.1.1-.1.1-.1.2s0 .2-.1.3c0 .1-.1.2-.1.2 0 .1-.1.1-.1.2-.1.1-.1.1-.1.2s0 .2-.1.3v.2.1c0 .1 0 .1.1.1.1.1.2.3.2.5s-.1.4-.3.5c-.1.1-.1.2-.1.3v.2.1.2.3s.1.1.1.2c0 0 0 .1.1.1.1.1.2.3.2.4s0 .1.1.2.1.2.1.3.1.1.1.2c.1.1.2.1.2.2v.1c.2.3.4.5.8.5h.1.1c.2 0 .4 0 .5.1h.1c.1 0 .2.1.3.2l.1.1c.2.1.8.4 1.2.2h.1s.1 0 .1-.1c.2-.2.4-.2.7-.1.1 0 .2 0 .3-.1s.1-.1.2-.2.1-.2.1-.2c0-.1 0-.3.1-.4 0 0 .1-.1.1-.2.1-.2.3-.4.5-.4h.1c.1 0 .2-.1.2-.2 0-.2.2-.4.4-.5s.3-.2.5-.5c0-.1 0-.2 0-.3-.2-.3-.1-.6.1-.8l.1-.1c.1-.1.1-.4.1-1v-.5c0-.1 0-.1 0-.1s0-.1 0-.2v-.1c-.1-.1-.1-.1-.1-.3s0-.3.2-.5c0-.1.1-.1.1-.2s0-.1.1-.3c0-.1 0-.1.1-.1 0-.1.1-.1.1-.2.1-.1.1-.1.1-.2v-.1-.1c0-.1 0-.2-.1-.2-.1-.1-.2-.2-.2-.3 0-.2 0-.4.1-.5 0-.1.1-.1 0-.2 0-.2 0-.3.1-.5.1-.1.1-.2 0-.3-.1-.2-.1-.4 0-.6 0 0 0-.1.1-.1v-.1c0-.1 0-.1 0-.2v-.2s0-.1-.1-.2c0-.1-.1-.1-.1-.2-.1-.1-.1-.3-.1-.6v-.1c0-.2 0-.3 0-.4v-.1c0-.1 0-.2-.1-.3-.2-.1-.3-.3-.3-.5s0-.4 0-.5c0-.3-.1-.6-.2-.9 0-.1 0-.1 0-.2s0-.2-.1-.4c-.1-.1-.1-.3 0-.4 0-.1 0-.2-.1-.3-.2-.2-.4-.3-.6-.5 0 0-.1 0-.1-.1-.2 0-.4-.1-.5-.3l-.1-.1c-.1-.1-.1-.1-.1-.2l-.1-.1c-.2-.1-.4-.4-.3-.7v-.1-.1c0-.1 0-.2-.1-.2-.4-.3-.9-.6-1.5-.8-.3-.1-.5-.2-.8-.3-.1 0-.2 0-.3-.1-.9-.5-1.8-.7-2.4-.6-.1 0-.2 0-.3 0-.2-.1-.4-.2-.7-.3h-.1c-.1 0-.2 0-.3 0s-.3 0-.4-.1c-.1 0-.1-.1-.2-.1-.3 0-.6.1-.8.2-.1 0-.1.1-.1.1-.1.1-.3.2-.4.3h-.1c-.1 0-.2 0-.2 0-.2 0-.4 0-.6-.1-.1-.1-.2-.1-.3 0s-.2.1-.2.2c0 0-.1.1-.1.2 0 .2-.2.4-.4.5s-.3.1-.4.2-.2.2-.5.4c-.1 0-.1.1-.1.2s0 .2-.1.3c-.1.2-.2.3-.4.5-.1.1-.2.2-.4.2-.1 0-.1.1-.2.1l-.3.5v.1c0 .2-.1.3-.2.4l-.1.1c-.2.2-.4.5-.8.8-.1 0-.1.1-.1.2 0 .2-.1.3-.2.4 0 0-.1.1-.2.3 0 .1-.1.1-.2.2l-.1.1v.1l-.3.7c0 .1-.1.2-.2.2 0 0 0 0-.1 0-.1.1-.2.3-.3.6 0 .1-.1.1-.1.2l-.1.2-.1.1v.1l-.6.8s0 0-.1.1c-.7.7-1.1 1.3-1.3 1.8 0 0 0 .1-.1.1-.1.1-.1.2-.2.4 0 .1-.1.2-.2.3l-.1.1-.3.6v.2c0 .1 0 .2-.1.3l-.2.4c0 .1-.1.1-.1.2v.1c-.1.2-.2.4-.3.6-.1.1-.1.2-.1.2 0 .1-.1.2-.1.2s0 0-.1.1v.1.1c0 .1 0 .2-.1.3v.2c-.1.1-.2.2-.4.5-.1.1-.2.2-.3.3 0 0 0 .1-.1.1 0 .1-.1.2-.2.3s-.1.2-.2.2c-.2.2-.3.5-.4.8v.1s-.1.1-.1.2l-.1.2c0 .1 0 .2-.1.3l-.2.3c-.2.3-.4.7-.5 1.2 0 .2-.1.3-.2.4v.1c-.1.1-.1.1-.3.2 0 0-.1.1-.2.2s-.2.2-.2.2c-.1.1-.1.2-.2.3l-.1.2v.2c0 .2 0 .3-.1.5-.2.3-.5.8-.8 1.6-.1.3-.2.6-.4.8v.1c-.2.6-.5 1.1-.7 1.5v.2.4c-.1.3-.2.5-.4.8 0 0 0 .1-.1.1v.1.1c-.1.3-.3.7-.4 1.1v.1.2.2c0 .2-.1.3-.2.4l-.1.1v.1c-.2.6-.4 1.2-.8 2 0 0 0 .1-.1.1-.3.5-.6 1.1-.8 1.8v.1c-.4.8-.8 1.7-1.2 2.7v.2c0 .2 0 .3-.1.5 0 .1 0 .1-.1.2-.2.2-.3.4-.5.6v.1.3s0 .3-.1.4l-.2.3c-.1.2-.3.4-.4.6v.3s.1.1.1.3c.1.2.1.3 0 .5-.2.5-.3 1-.5 1.5 0 0 0 .1-.1.1v.1.1l-.1.2c0 .2-.1.3-.1.5-.3 1.5-.5 2.8-.5 4.1 0 .7 0 1.4.1 2.1.1.8.3 1.5.6 2.1.3.7.9 1.3 1.5 1.8.6.4 1.1.8 1.5 1.1.1 0 .1.1.2.1s.3 0 .4.1.2.1.4.2h.1c.1 0 .3 0 .4.1.3.2.6.4.8.5h.1.2.1c.2 0 .4.1.5.1.2 0 .3.1.5.1.6.1 1 .2 1.2.1h.3c.6.1 1.2.1 1.7.1.1 0 .1 0 .2-.1s.3-.1.4-.1h.1c.3 0 .6 0 .8-.1h.4.2c.4-.1.7-.2 1-.4.7-.2 1.2-.4 1.7-.7.1-.1.3-.1.5-.1h.1.2c.1-.1.2-.1.4-.2s.4-.3.5-.5c.1-.1.1-.1.1-.2.1-.2.2-.3.4-.4 0 0 .1 0 .1-.1.4-.3 1-.7 1.5-1.1.4-.3.8-.7 1.2-.9l.1-.1c0-.1.1-.2.2-.3l.1-.1c.1-.1.2-.1.3-.1s.1-.1.2-.1c.1-.2.2-.3.3-.4.2-.2.4-.2.6-.2.1 0 .2.1.3.2s.1.1.2.1.2-.1.2-.1l.1-.1.1-.1.1-.1c.1-.2.2-.4.4-.4.1 0 .2-.1.3-.1l.2-.1c.1 0 .1-.1.2-.1 0 0 .1 0 .1-.1l.4-.4.1-.1v-.1c0-.1.1-.2.2-.3s.1-.1.1-.2 0-.1 0-.2 0-.1 0-.2 0-.1 0-.2v-.1c-.1-.2 0-.4.1-.6s.3-.2.5-.3c.1 0 .1 0 .2-.1.2-.2.4-.2.7-.1h.2l.2-.1c.1 0 .1-.1.2-.2s.1-.1.1-.2.1-.1.2-.2l.1-.1c0-.1.1-.2.2-.3s.1-.2.1-.3c-.1-.2-.1-.4 0-.6l.3-.3s.2-.2.1-.3c-.1-.2 0-.4 0-.5l.2-.3c.1-.2.2-.3.4-.3 0 0 .1 0 .1-.1l.1-.1c.2-.2.5-.3.7-.2h.2c.1 0 .1-.1.2-.2v-.1l.1-.2s0-.1.1-.1c.1-.1.1-.2.2-.3s.2-.2.3-.2.1-.1.2-.1l.1-.1s0 0 0-.1c.1-.2.3-.6.5-.9l.1-.2c.1-.2.3-.4.4-.6l.1-.1.1-.1c.2-.1.3-.3.4-.4 0-.1.1-.1 0-.2 0-.1 0-.2.1-.4l.2-.5v-.1c.1-.1.1-.2.2-.2l.1-.1s0 0 .1-.1l.1-.1.2-.2c0-.1.1-.1.1-.1.1-.1.1-.1.2-.1.1-.1.2-.2.2-.3 0 0 0-.1.1-.1v-.1c0-.1 0-.1 0-.2s0-.2 0-.3 0-.3.1-.3v-.1c.1-.3.2-.6.3-1l.1-.2c0-.1.1-.1.1-.2 0 0 0 0 0-.1.1-.2.2-.3.4-.4h.1c.2-.2.2-.3.3-.4 0-.1.1-.1.1-.3 0-.1.1-.2.2-.4v-.1s0-.1 0-.2c0-.2 0-.4.2-.6.4.2.5.1.5 0zm-75.9-15.6c0-.1-.1-.3-.1-.4-.1-.2-.2-.4-.1-.6 0-.1.1-.2.1-.2.1-.2.1-.4.1-.6 0-.1 0-.2 0-.3s0-.3.1-.4v-.1c0-.4-.2-1.4-.5-2.3-.2-.7-.7-1.5-1-1.7-.1-.1-.1-.1-.2-.2-.1-.3-.4-.6-.6-.7l-.1-.1c-.4-.5-.7-.8-.9-1l-.7-.7c-.2-.3-.4-.5-.7-.8 0 0-.1-.1-.2-.1s-.3-.1-.4-.2c-.1 0-.1-.1-.2-.1-.4-.3-.8-.6-1.1-.6-.1 0-.3-.1-.4-.2 0-.1-.1-.1-.2-.1-.2 0-.5 0-.7 0l-1.7.1c-.3 0-.7.1-1.2.2-.1 0-.3 0-.4 0h-.1c-.1 0-.1 0-.1 0-.1 0-.1 0-.2 0-1 .2-1.6.4-1.8.8-.1.1-.2.2-.4.2s-.4.1-.6.2c-.1.1-.2.1-.4.1-.3 0-.6 0-.9 0-.2 0-.4 0-.5 0-.2 0-.3 0-.4-.1-.1 0-.1-.1-.2 0-.8.2-.9.3-1 .3l-.1.1c-.1.3-.4.5-.8.3-.1 0-.2 0-.2 0s-.1 0-.2.1h-.1c-.1 0-.4.1-.6.2l-1.7.7c-.7.3-1.3.7-1.9.8-.1 0-.2.1-.2.2-.1.2-.2.3-.4.4s-.5.2-.7.3c-.7.2-1.6.5-2.2.9-.1.1-.3 0-.5.1s-.2.1-.2.2-.1.1-.2.1c-.2.1-.5.3-.8.4-.9.5-1.5.8-1.9 1.1-.1.1-.2.1-.3.1-.6 0-1.5.6-2.7 1.3-.1.1-.3.1-.5.1-.1 0-.1 0-.2 0-.6.3-.8.4-.9.4l-.1.1c-.1.3-.4.5-.8.5-.1 0-.2 0-.5.2h-.1c-.2.1-.4.2-.7.4-.2.2-.5.4-.8.7 0 0-.1.1-.2.1-.3.2-.6.4-.8.6-.3.2-.5.3-.7.5-.1.1-.2.2-.2.2l-.1.1c-.1.1-.2.1-.3.2l-.1.1c0 .1-.1.1-.2.2-1 .7-1.6 1.2-2.1 1.7-.2.2-.3.3-.4.5 0 0-.1.1-.2.1-.1.1-.2.2-.3.3-.2.2-.2.3-.3.4 0 .1-.1.2-.1.3l-.1.2c-.1.1-.2.2-.3.2s-.1.1-.1.1l-.1.1c-.4.4-1 1.1-1.2 2.2-.2.8-.1 1.6.1 2.2.1.4.2.8.4 1.3l.1.2v.2.1l.2.4c.2.5.4 1.2.7 1.7.2.4.5.9.7 1.1.2.3.4.7.7 1 .5.7 1.1 1.3 1.6 1.6.6.4.9.4 1.2.4.1 0 .2 0 .2.1.2.1.4.2.5.2 0 0 .1 0 .1.1 0 0 .1 0 .1.1.1 0 .1.1.2.1 0 0 .1 0 .1.1l1.3.3c.1 0 .2.1.3.1h.1.1.1c.2.1.4.1.6.2s.8.3 1 .4c.1 0 .1.1.2.1l.1.1c.2.1.4.1.6.1l.9.1c.2 0 .6.1 1 .2l1.7.4c.1 0 .3.1.5.1h.1c.1 0 .2 0 .3.1s.3.2.4.2l.7.1c1.2.2 2.2.4 3.2.8.7.3 1.4.5 2 .6l.4.1c.5.1.9.2 1.3.4h.1c.1 0 .3 0 .4.1.2.1.5.2.9.4.2.1.3.2.4.3 0 .1.1.1.1.1l.7.3h.2s.2 0 .2 0c.4.1.7.2 1.5.6l.2.1c.1.1.2.2.3.4 0 0 0 .1.1.1.2.2.3.5.2.7v.2c.1.2.1.5-.1.7s-.4.4-.6.7l-.2.3c-.2.2-.3.4-.5.6l-.4.5c-.1.1-.2.2-.3.2-.2.1-.5.3-.8.5-.1.1-.2.3-.3.4s-.1.2-.3.3c-.4.2-.7.5-.9.7-.1.1-.2.1-.2.2-.1.1-.2.2-.3.2-.1.1-.2.1-.3.1h-.1c-.1 0-.1.1-.2.1h-.1c-.1 0-.2.1-.2.1-.2.1-.4.2-.5.3l-.3.2h-.1l-.2.1s-.1 0-.1.1c-.1.1-.3.2-.4.2-.2 0-.6.1-.9.3-.2.1-.4.1-.6 0-.1 0-.1 0-.2 0h-.2-.1l-1.8.6c-.1 0-.1 0-.2.1-.1 0-.2.1-.3.1s-.2.1-.2.1h-.1c-.1.1-.2.1-.4.1-.1 0-.3 0-.5 0-.3 0-.6.1-.9.2l-.5.2c-.1.1-.3.1-.4.1s-.1 0-.1 0h-.1c-.2.1-.5.1-.7 0h-.1c-.1 0-.3-.1-.4-.1-.2 0-.4 0-.7 0-.2 0-.4 0-.6 0s-.3 0-.4 0c-.4 0-.5-.1-.7-.2-.1 0-.2-.1-.5-.2l-.5-.1c-.2-.1-.4-.2-.4-.4-.1-.2-.1-.4.1-.6 0 0 0-.1 0-.2v-.1c0-.2.1-.3.2-.4l1-1c.1-.1.1-.2.1-.3s-.1-.2-.2-.2c-.2 0-.5-.2-.6-.4s-.1-.4.1-.6c0-.1.1-.2 0-.2 0-.1-.1-.1-.2-.2l-.4-.1c-.2-.1-.4-.2-.4-.4 0-.1 0-.2-.1-.3l-.1-.1s-.1-.1-.1-.2c-.3-.3-.6-.3-.8-.3s-.4 0-.5 0h-.2c-.1 0-.1 0-.2.1 0 0-.1 0-.2 0h-.1c-.1 0-.1 0-.2 0-.4.1-.8.4-1.3.7-.2.1-.4.3-.5.4l-.5.4c-.6.4-.9 1.1-.9 2 0 .2 0 .3.1.5l.4 1.2c.2.5.3 1 .5 1.5l.1.3c.2.4.3.8.6 1.2.2.3.4.6.6.9.1.2.2.3.3.5 0 0 .1.1.1.2.1.2.2.3.3.4.2.2.4.5.5.7.7.8 1.5 1.5 2.6 2.1h.2s.3 0 .4.1.4.2.7.3h.1c.2 0 .3 0 .5.1l.4.2c.2.1.4.2.6.3h.1.4c.1 0 .2 0 .4.1h.6.1c.2 0 .4.1.5.2 0 0 .1.1.2.1s.2 0 .4.1c.1 0 .2 0 .3-.1s.3-.2.5-.2.4.1.5.2.2.1.4.1h.2c.1 0 .2 0 .2-.1.1-.2.3-.3.5-.3.1 0 .1-.1.2-.1.1-.1.2-.2.4-.2l1.1-.2h.3.2.5s.2-.1.3-.1l2-.6c.3-.1.6-.2.8-.2h.4s.2 0 .2 0l.8-.4s.1 0 .2-.1l.4-.1c.2 0 .3-.1.5-.1h.4.2c.1-.1.2-.1.4-.2l.1-.1c.1-.1.2-.1.3-.2l.1-.1c.1 0 .1-.1.1-.1.1 0 .1-.1.2-.1 0 0 .1 0 .2-.1l.5-.2c.1 0 .1-.1.1-.1.1-.2.2-.3.4-.3.1 0 .3-.1.5-.1.1 0 .2-.1.3-.1s.1-.1.2-.2l.1-.1s.1 0 .1-.1c.1-.1.3-.2.4-.3.2 0 .4 0 .5.1h.1s.1.1.1.1c.1.1.1.1.2.1s.1 0 .2-.1l.2-.2c.1-.1.2-.1.2-.2.1 0 .1-.1.1-.1l.3-.4.2-.2c.1 0 .1-.1.2-.2s.1-.2.2-.2c0 0 0-.1.1-.1l.6-.7c.1-.1.3-.2.5-.2.1 0 .1 0 .2-.1h.1s.2-.1.3-.3c.1-.1.1-.2.2-.3l.1-.1.1-.1v-.1c0-.1.1-.2.1-.2 0-.1 0-.2 0-.2-.1-.1-.1-.2-.1-.4v-.1c-.1-.2-.1-.3 0-.5v-.1c0-.2 0-.4.2-.5 0 0 0 0 0-.1.1-.1.1-.3.2-.4v-.1c-.1-.2 0-.4.1-.6l.1-.1s0 0 0-.1c.1-.2.2-.3.3-.4s.2-.2.1-.3c0-.1 0-.2 0-.3 0-.2.1-.5.3-.6.1-.1.1-.1.1-.2s0-.2 0-.3 0-.2 0-.3c-.1-.1-.2-.3-.2-.4s0-.3 0-.4c0 0 0-.1-.1-.1 0-.1-.1-.1-.1-.2-.1-.3-.2-.7-.4-1 0 0 0 0 0-.1-.1-.1-.1-.3 0-.5v-.1-.1c0-.1 0-.2-.1-.4-.1-.1-.1-.3 0-.5 0-.1 0-.2-.1-.3-.2-.2-.4-.4-.6-.6l-.9-.9s0 0-.1-.1c-.1 0-.1-.1-.2-.2-.1-.2-.2-.4-.1-.6v-.1-.1c0-.1 0-.2-.1-.2-.5-.5-.9-.8-1.4-1.2-.2-.2-.4-.3-.7-.5h-.1c-.2 0-.4-.1-.5-.2l-.1-.1s0 0-.1-.1c0 0 0 0-.1-.1-.2-.3-.4-.4-.5-.5 0 0-.1 0-.1-.1-.1 0-.2-.1-.3-.1h-.1c-.1 0-.1 0-.2-.1s-.3-.2-.4-.3c0 0 0 0-.1 0-.2-.1-.4-.3-.5-.4 0 0-.1-.1-.2-.2 0 0-.2-.2-.3-.2 0 0 0 0-.1 0l-.1-.1-.1-.1c-.2-.1-.3-.1-.4-.2-.1 0-.2-.1-.3-.2 0-.1-.1-.1-.2-.1-.3-.1-.5-.1-.8-.1-.1 0-.1 0-.2 0-.2.1-.4.2-.6.1-.1 0-.1-.1-.2-.1-.2-.1-.4-.3-.4-.6 0-.1-.1-.2-.2-.3l-1.4-.3c-.2 0-.3-.1-.6-.3h-.1-.1-.1c-.1 0-.2 0-.4 0-.1 0-.3-.1-.5-.1-.2-.1-.5-.3-.5-.3-.1-.1-.4-.2-.4-.2l-.6-.1h-.1c-.2 0-.4-.1-.5-.2s-.1-.1-.2-.1h-.5c-.1 0-.2 0-.2 0-.1-.1-.3-.1-.4-.2-.1 0-.1 0-.2 0s-.2 0-.3 0h-.1s-.1 0-.2-.1c-.1 0-.2 0-.4-.1h-.1c-.2 0-.4-.1-.5-.3 0-.1-.1-.1-.2-.1-.6-.1-1.2-.1-1.7-.2-.2 0-.4 0-.6-.1-.1 0-.1 0-.2-.1l-1.2-.3h-.1c-.7-.3-1.8-.6-2.4-.6h-.1c-.2-.1-.5-.1-.9-.1-.1 0-.1 0-.2 0h-.1c-.2 0-.4-.2-.5-.4s-.1-.5.1-.6v-.1c.2-.2.3-.4.4-.6.1-.1.2-.3.3-.3.2-.1.6-.4.8-.5 0 0 .1 0 .1-.1.4-.2.9-.6 1.4-1 0 0 0 0 0-.1s.1-.2.2-.2l.3-.2c.2-.2.5-.3.9-.5l.2-.1c.1-.1.2-.1.4-.1.1 0 .1 0 .2-.1.3-.2.7-.5 1.1-.7.5-.3 1.1-.7 1.3-.9.1-.1.2-.1.3-.1.5-.1 1.1-.5 2.2-1.2 1-.6 2-1.2 2.7-1.4.1 0 .1-.1.1-.1l.3-.3c.5-.2 1.1-.5 1.7-.8l1-.5.1-.1c.1-.1.2-.2.4-.3.3-.1.6-.2.9-.3h.1c.5-.1 1.1-.3 1.6-.6 0 0 .1-.1.2-.1l.3-.1h.2c.6-.1 1.1-.3 1.6-.5.4-.2.9-.3 1.4-.6h.1.1c.6-.2 1.1-.3 1.4-.5.1 0 .2-.1.3-.1.3 0 .7-.1 1.5-.2l.3-.1h.1.1.2c.3-.1.5-.1.7-.2l.4-.1h.1s.2-.1.3-.1h.2.1.1.3c.2 0 .4.2.5.4s0 .5-.2.7l-.4.4c-.1.1-.2.2-.4.4-.3.3-.6.5-.8.8-.1.1-.1.1-.2.1 0 0-.1 0-.1.1l-.5.5s0 .1-.1.1c-.2.2-.5.5-.8.7-.1.1-.2.2-.4.2-.1 0-.1 0-.2.1-.1 0-.1.1-.1.2s-.1.3-.3.4c-.3.2-.6.5-.9.9-.2.5-.1.9 0 1.3v.2.1l.1.2v.1c0 .2.1.4.1.6v.1c.1.9.2 1.3.2 1.5 0 .1.1.1.2.2.1 0 .2.1.3.2 0 0 .1 0 .1.1.1 0 .2.1.3.3.4.6.8 1 1.3 1.2.2.1.3.1.5.2.2 0 .3.1.5.1h.2.1.1.1.1s.1 0 .1-.1c.1 0 .2-.1.2-.1.4-.2.7-.4 1-.6.1 0 .1-.1.2-.1.5-.1.9-.4 1.4-.8.3-.2.7-.5 1.1-.7.1 0 .1-.1.1-.2 0-.2.2-.4.4-.5l.4-.2c.1 0 .1-.1.2-.2 0-.2.2-.4.4-.4h.1c.1-.1.3-.2.4-.2s.1 0 .1-.1c.3-.3.6-.6.9-.9.1-.2.3-.3.4-.5l.3-.3.3-.3.4-.6c.1-.1.2-.2.3-.3 0 0 .1 0 .1-.1l.1-.1c.1 0 .1-.1.1-.1.9-2 .8-2.6.8-2.8z"/></svg>