<?xml version="1.0" encoding="utf-8"?>
<svg version="1.1" id="圖層_1" xmlns="http://www.w3.org/2000/svg" xmlns:xlink="http://www.w3.org/1999/xlink" x="0px" y="0px"
	 viewBox="0 0 305 34" style="enable-background:new 0 0 305 34;" xml:space="preserve">
<path id="XMLID_6875_" d="M104,9.2c-0.2,0.9-0.7,1.5-1.3,1.8c-0.5,0.2-1.1,0.3-1.3,0c-0.2-0.3,0.1-0.6,0.4-0.8
	c0.9-0.3,1.7-1.2,1.6-2.3h0.4c0.1,0.3,0.1,0.5,0.1,0.8h15.3L120,8l1.3,1.1c-0.2,0.1-0.4,0.2-0.8,0.2c-0.4,0.5-1.3,1.2-2,1.6
	l-0.3-0.2c0.3-0.4,0.7-1,1-1.5H104z M119.4,15.4c0,0,1,0.6,1.6,1.1c-0.1,0.2-0.3,0.3-0.6,0.3h-18.2l-0.2-0.5h8.9v-1.5h-5.7l-0.2-0.6
	h5.9v-1.5l1.6,0.2c0,0.2-0.2,0.4-0.6,0.4v0.9h4.2l0.7-0.7c0,0,0.9,0.5,1.5,1c-0.1,0.2-0.3,0.3-0.6,0.3h-5.9v1.5h6.7L119.4,15.4z
	 M102.4,1.6h8.5V0.1l1.8,0.2c0,0.2-0.3,0.4-0.8,0.5v0.8h6.2l0.9-0.9c0,0,1,0.6,1.6,1.1c-0.1,0.2-0.3,0.3-0.6,0.3h-8.2v1.4h4.6
	l0.8-0.8c0,0,1,0.6,1.6,1.1c-0.1,0.2-0.3,0.3-0.6,0.3h-14.1l-0.2-0.5h6.7V2.1h-8.3L102.4,1.6z M104.5,12.1c0.9,0,1.4,0,3,0
	c0.4-0.4,0.8-0.8,1.1-1.3h-3.5l-0.2-0.6h10.8l0.7-0.6c0,0,0.8,0.5,1.4,0.9c0,0.2-0.2,0.3-0.6,0.3h-7.4c-0.5,0.5-1.1,0.9-1.6,1.3
	c2.3,0,4.4-0.1,7.3-0.1c-0.4-0.2-1.1-0.5-1.8-0.7L114,11c5.2,0.8,4.4,2.5,3.3,2.1c-0.4-0.3-0.7-0.6-1-0.7c-2.8,0.1-5.3,0.3-10.5,0.5
	c-0.1,0.2-0.4,0.3-0.6,0.4L104.5,12.1z M116,8V7.6h-9.1v0.3c0,0.1-0.4,0.3-0.8,0.3h-0.1V4.7l1.1,0.5h8.8l0.6-0.6l1.4,0.9
	c-0.1,0.1-0.5,0.3-0.9,0.3v1.8c0,0.1-0.5,0.3-0.8,0.3H116z M116,7V5.8h-9.1V7H116z M140.5,7.1c0.4,0,0.6-0.2,0.7-0.4l-1.5-0.3
	c-0.2,1-0.5,2-0.9,2.7l0.4,0.2C139.8,8.6,140.2,7.8,140.5,7.1z M137.8,4.4l-0.5,0.5h-2.6l0.2,0.5h3.5c0.3,0,0.5-0.1,0.5-0.3
	C138.5,4.8,137.8,4.4,137.8,4.4z M134.5,0.9l0.2,0.6h2.5c0-0.2,0-0.4,0-0.6H134.5z M137.7,0.3l-0.6,0.6H137c0,0.2,0,0.4,0,0.5h1.5
	c0.3,0,0.5-0.1,0.5-0.3C138.5,0.7,137.7,0.3,137.7,0.3z M130.7,3.7c0.7,0.4,1.3-0.5,0.2-1.1c0.4-0.5,0.9-1.1,1.2-1.7
	c0.4,0,0.7-0.1,0.7-0.3l-1.4-0.5c-0.3,0.8-0.7,1.6-1,2.2c-0.2-0.1-0.5-0.2-0.8-0.2l-0.2,0.2C130,2.6,130.6,3.2,130.7,3.7z
	 M137.7,9.3c0.3,0,0.8-0.2,0.8-0.3V6.8c0.3,0,0.5-0.2,0.6-0.2l-1.1-0.8l-0.5,0.5h-1.5l-1-0.4v3.8h0.1c0.5,0,0.8-0.2,0.8-0.3V8.8h1.9
	v0.6H137.7z M135.7,8.2V6.8h2v1.4H135.7z M143.1,2.5c0.4,0.1,0.7-0.1,0.8-0.3l-1.5-0.5c-0.5,1-1.3,2.4-1.9,3.3c-0.6,0-1.1,0-1.5,0
	l0.5,1c0.2,0,0.4-0.1,0.5-0.4l1.3-0.1v4.1h0.1c0.4,0,0.7-0.2,0.7-0.3V5.4c0.4,0,0.9-0.1,1.2-0.1c0.1,0.2,0.2,0.4,0.2,0.6
	c0.8,0.6,1.7-0.9-0.8-1.9l-0.3,0.1c0.3,0.2,0.5,0.5,0.7,0.8c-0.7,0-1.5,0-2.1,0C141.9,4.2,142.6,3.2,143.1,2.5z M137.6,3l-0.5,0.5
	h-2.4l0.2,0.5h3.4c0.3,0,0.5-0.1,0.5-0.3C138.3,3.4,137.6,3,137.6,3z M126.6,7.3c1.2,0.6,1.9-1.5-1.9-2.3l-0.2,0.2
	C125.2,5.7,126.3,6.6,126.6,7.3z M133.2,6.4l-0.3,0.1c0.3,0.5,0.6,1.2,0.6,1.8C134.3,8.9,135.2,7.7,133.2,6.4z M128,2.8
	c1.2,0.6,1.9-1.5-1.9-2.3l-0.2,0.2C126.7,1.1,127.8,2,128,2.8z M142.8,6.4l-0.3,0.1c0.4,0.6,0.9,1.5,0.9,2.2
	C144.3,9.4,145.3,7.8,142.8,6.4z M139.2,2.3L139.2,2.3l-0.9-0.7l-0.7,0.6h-3.5l0,0l-1.5-0.5c-0.5,1-1.3,2.4-2,3.4
	c-0.5,0-0.9,0-1.1,0l0.5,1c0.2,0,0.4-0.1,0.5-0.4l0.9-0.1v1.2l-1.4-0.3c-0.2,0.9-0.5,1.9-0.8,2.6l0.4,0.2c0.5-0.5,0.9-1.3,1.2-2
	c0.3,0,0.6-0.1,0.7-0.3v2.8h0.1c0.4,0,0.7-0.2,0.7-0.3V5.4l1-0.2c0.1,0.2,0.1,0.4,0.1,0.6c0.8,0.6,1.7-0.8-0.6-1.8l-0.3,0.1
	c0.2,0.2,0.4,0.5,0.6,0.8c-0.6,0-1.2,0.1-1.8,0.1c0.7-0.8,1.5-1.8,2-2.5c0.3,0,0.5,0,0.7-0.1l0.1,0.4h4.9c0.2,0,0.4-0.1,0.5-0.2
	C139.3,2.4,139.2,2.3,139.2,2.3z M141.5,13.7h-10l0.4-1.1h8.6V13h0.1c0.3,0,0.8-0.2,0.8-0.3v-1.8c0.3,0,0.6-0.2,0.7-0.3l-1.3-0.8
	l-0.6,0.5h-10.6l0.2,0.6h10.6v1.3h-8.2l-1.1-0.5c-0.3,0.9-0.9,2.4-1.3,3.4c0.5,0.2,0.8,0.1,1.1,0l0.3-0.8h10.2
	c-0.3,0.8-0.7,1.5-1.1,1.7c-0.2,0.1-0.4,0.1-0.8,0.1c-0.5,0-2.3-0.1-3.2-0.2l0,0.3c0.9,0.1,1.8,0.2,2.1,0.4c0.3,0.2,0.4,0.4,0.4,0.7
	c0.8,0,1.6-0.2,2-0.4c0.7-0.4,1.4-1.4,1.7-2.5c0.4,0,0.7-0.1,0.9-0.2l-1.3-0.9L141.5,13.7z M127.8,11.1c0.2-1,1-5.1,1.5-7.1L129,3.9
	c-1.5,5.7-2,7.2-2.3,7.8c-0.2,0.4-0.2,0.4-0.4,0.4h-0.9v0.4c0.5,0.1,0.7,0.1,1,0.2c0.4,0.3,0.5,1.7,0.3,3.6c0,0.6,0.1,0.9,0.5,0.9
	c0.6,0,0.9-0.4,0.9-1.2c0.1-1.5-0.4-2.5-0.4-3.3C127.6,12.4,127.7,11.6,127.8,11.1z M139.5,2.6C139.5,2.5,139.5,2.5,139.5,2.6
	l-0.3-0.3l-0.1,0C139.2,2.3,139.3,2.4,139.5,2.6z M139.5,2.6c0.3,0.3,0.8,0.7,1,1.2c0.7,0.4,1.3-0.5,0.1-1.2
	c0.4-0.5,0.9-1.1,1.2-1.7c0.4,0,0.7-0.1,0.7-0.3l-1.4-0.5c-0.3,0.8-0.7,1.6-1,2.2c-0.2-0.1-0.5-0.2-0.8-0.3l-0.2,0.1L139.5,2.6
	C139.5,2.5,139.5,2.5,139.5,2.6z M167.6,4c-0.2,0.1-0.4,0.2-0.8,0.2c-0.5,0.6-1.3,1.3-1.9,1.8l-0.3-0.2c0.3-0.5,0.6-1.2,0.9-1.8h-15
	c0,1.1-0.6,1.9-1.2,2.2c-0.5,0.3-1.1,0.4-1.4,0.1c-0.2-0.3,0-0.6,0.4-0.8c0.9-0.4,1.7-1.6,1.5-3l0.4,0c0.1,0.3,0.2,0.7,0.2,1h6.7
	V0.2l1.8,0.2c0,0.3-0.3,0.5-0.8,0.5v2.6h2.1c0.8-0.9,1.8-2.2,2.4-3.2l1.8,0.5c-0.1,0.2-0.4,0.4-0.9,0.3c-0.7,0.7-1.7,1.6-2.6,2.3
	h4.5l0.8-0.7L167.6,4z M163.7,10.1l1.5,1c-0.2,0.2-0.5,0.3-0.9,0.4v5.4c0,0.1-0.5,0.3-0.9,0.3h-0.1v-0.9h-11.4v0.7
	c0,0.1-0.4,0.3-0.8,0.3h-0.2v-7l1.1,0.5h11L163.7,10.1z M151.7,0.4c4,1.2,3.2,3.6,2,2.9c-0.2-0.9-1.3-2.1-2.3-2.7L151.7,0.4z
	 M151.9,11.2v1.9h5.1v-1.9H151.9z M151.9,15.7h5.1v-2h-5.1V15.7z M161.4,9.6V9H154v0.5c0,0.1-0.4,0.3-0.8,0.3h-0.2V5.1l1.1,0.5h7.1
	l0.6-0.5l1.4,0.9c-0.1,0.1-0.5,0.3-0.8,0.3v3c0,0.1-0.5,0.3-0.9,0.3H161.4z M161.4,8.4V6.1H154v2.3H161.4z M158,11.2v1.9h5.3v-1.9
	H158z M163.3,15.7v-2H158v2H163.3z M177.4,0.7c-0.1,0.2-0.3,0.4-0.8,0.4c-0.5,1.2-2,3.7-2,3.7s0,0.5,0,0.9s0,11.3,0,11.3
	c0,0.1-0.4,0.3-0.8,0.3h-0.2v-11c-1,1.4-2,2.6-3.1,3.6l-0.4-0.2c2-2.3,4.1-5.9,5.4-9.5L177.4,0.7z M188.8,15.9
	c0.6,0.6,0.6,0.7,0.5,1c-0.2,0.6-1.5,0.1-2.6-0.6c-2.6-1.6-4.4-4.8-5.1-9.5l-5.6,0.5l-0.2-0.5l5.7-0.5c-0.3-1.9-0.5-3.8-0.5-5.8
	l1.9,0.2c0,0.2-0.2,0.5-0.8,0.5c0,1.7,0.1,3.3,0.4,4.9l4.6-0.5l0.8-1c0,0,1.1,0.6,1.7,1c0,0.2-0.2,0.3-0.5,0.4l-6.5,0.6
	c0.4,3.4,1.9,6.8,4.6,8.7c0.4,0.3,0.6,0.3,0.7-0.1c0.3-0.5,0.8-2.6,0.9-3.7l0.3,0.1L188.8,15.9z M184.3,0.9c4.2,0.9,3.6,3.1,2.4,2.5
	c-0.4-0.7-1.7-1.8-2.6-2.3L184.3,0.9z M199.1,4.5h12.9c0.3,0,0.5-0.1,0.6-0.3c-0.7-0.5-1.8-1.3-1.8-1.3l-1,1h-6.1V0.8
	c0.5-0.1,0.8-0.2,0.8-0.5l-1.8-0.2V4h-9.1l0.2,0.6h4.6c0.8,2.7,2,5.7,4.7,8c2.4,2.1,5.1,3.7,8.8,4.6c0.2-0.4,0.7-0.7,1.2-0.7
	l0.1-0.2c-3.7-0.7-7.5-2.8-9.5-4.5C200.7,9.1,199.7,6.2,199.1,4.5z M208.3,4.5H207c-0.9,3.2-2.7,5.7-3.7,7c-2.3,2.8-7.8,4.7-9.9,5.4
	l0.2,0.3c4.6-1.2,8-2.6,10.4-5.1C205.8,10.3,207.3,7.4,208.3,4.5z M216,9.7c2.2-2.2,4.6-5.8,6-9.5l1.8,0.6c-0.1,0.2-0.4,0.4-0.8,0.3
	c-0.7,1.5-1.7,3.1-2.6,4.4c0,0,0,0.2,0,0.6s0,10.8,0,10.8c0,0.1-0.4,0.3-0.8,0.3h-0.2V6.7c-1,1.2-2,2.3-3.1,3.2L216,9.7z
	 M235.2,15.6c0.5,0.1,0.6,0.3,0.6,0.5c0,0.5-0.9,0.6-5,0.6h-2.6c-1.9,0-2.4-0.4-2.4-1.4V0.4l1.8,0.2c0,0.3-0.3,0.5-0.8,0.5v7.4
	c2.6-1.4,5.4-3.4,6.9-5l1.6,0.9c-0.2,0.2-0.4,0.2-0.8,0.1c-1.7,1.4-4.7,3.2-7.6,4.5V15c0,0.5,0.2,0.7,1.5,0.7h2.5
	c1.5,0,2.4,0,2.9-0.1c0.3,0,0.4-0.1,0.5-0.3c0.2-0.3,0.4-2.6,0.7-4.2h0.3L235.2,15.6z M292.5,10.2c-1.5,0.8-3.6,1.9-6.3,3.1
	c0,0.2-0.2,0.4-0.4,0.5l-0.7-1.2c0.6-0.2,1.7-0.6,3.1-1.1V5.8h-2.7l-0.2-0.5h2.8V0.4l1.8,0.2c0,0.3-0.3,0.5-0.8,0.5v4.2h0.7l0.9-1
	c0,0,1,0.7,1.6,1.2c-0.1,0.2-0.3,0.3-0.6,0.3h-2.6v5.4c1-0.4,2.1-0.8,3.2-1.2L292.5,10.2z M296.1,8.8c-0.3,0.5-0.7,1.1-1.2,1.5h7.7
	l0.6-0.6l1.4,1c-0.2,0.1-0.4,0.2-0.9,0.3c-0.3,3.1-0.9,5.1-1.8,5.8c-0.5,0.4-1.2,0.5-1.9,0.5c0-0.2-0.1-0.5-0.4-0.7
	c-0.3-0.2-1-0.3-1.7-0.3l0-0.4c0.8,0.1,2.1,0.2,2.5,0.2c0.4,0,0.6,0,0.8-0.2c0.6-0.4,1.1-2.2,1.4-5h-2.1c-1.2,2.7-3.3,4.8-6.5,6.3
	l-0.2-0.3c2.8-1.5,4.6-3.6,5.6-6h-2c-1.5,2.4-4,4.3-7.2,5.6l-0.3-0.3c2.8-1.3,4.9-3.2,6.3-5.3h-1.9c-1.2,1.1-2.6,2-4.3,2.7l-0.3-0.3
	c2.2-1.2,3.9-2.8,5-4.5h-3.6l-0.2-0.6h11.3l0.9-0.9c0,0,1,0.7,1.7,1.2c-0.1,0.2-0.2,0.3-0.6,0.3H296.1z M295,7.1
	c0,0.1-0.4,0.3-0.8,0.3H294V0.6l1.1,0.5h5.5l0.7-0.6l1.5,1c-0.2,0.1-0.5,0.3-1,0.4v5.2c0,0.1-0.5,0.4-0.8,0.4h-0.1V6.5H295V7.1z
	 M295,1.6v1.9h5.8V1.6H295z M300.8,5.9V4H295v1.9H300.8z M263.2,11.6c1,5.1-2.4,4.6-1.5,3.4c0.7-0.6,1-1.8,1.1-3.4L263.2,11.6z
	 M270.9,9.9c-0.2,0.2-0.3,0.2-0.7,0.3c-0.4,4-0.8,5.7-1.6,6.4c-0.5,0.4-1.2,0.6-1.9,0.6c0-0.2-0.1-0.5-0.3-0.6
	c-0.2-0.1-0.9-0.2-1.5-0.3v-0.4c0.7,0.1,1.9,0.2,2.3,0.2c0.4,0,0.5,0,0.7-0.2c0.6-0.5,1-2.1,1.4-5.7h-4.7l-0.2,0.6
	c0,0.1-0.4,0.3-0.8,0.3h-0.1V0.9l1.4,0.5h3.7l0.7-0.9c0,0,1,0.6,1.6,1.1c-0.1,0.2-0.3,0.3-0.6,0.3h-3.1v2h1l0.8-0.8
	c0,0,0.9,0.6,1.5,1.1c0,0.2-0.2,0.3-0.6,0.3h-2.7v2.1h0.9l0.8-0.8c0,0,0.9,0.6,1.5,1.1c-0.1,0.2-0.3,0.3-0.6,0.3h-2.6v2.3h1.7
	l0.6-0.6L270.9,9.9z M264.4,2v2h1.9V2H264.4z M266.2,4.5h-1.9v2.1h1.9V4.5z M264.4,9.5h1.9V7.2h-1.9V9.5z M264.3,11.5
	c1.9,2.4,0.6,4.3-0.2,3.4c0.2-1.1,0.1-2.5-0.2-3.4L264.3,11.5z M265.5,11.2c2.6,1.8,1.6,3.6,0.7,2.8c0-0.8-0.5-2-1-2.7L265.5,11.2z
	 M266.7,10.8c2.9,1,2,2.8,1.1,2.1c-0.1-0.6-0.7-1.5-1.3-2L266.7,10.8z M274.7,12.3c-0.1,0.2-0.3,0.3-0.8,0.3
	c-0.2,0.4-0.4,0.9-0.7,1.3c2.9,0.7,2.3,2.4,1.3,1.9c-0.2-0.5-0.8-1.1-1.5-1.6c-0.7,1.1-1.8,2.2-3.3,3l-0.2-0.3
	c1.8-1.2,3-3.3,3.4-5.1L274.7,12.3z M277.1,0.6c-0.1,0.2-0.2,0.3-0.7,0.3c1.3,1.7,3.5,3.1,5.8,4l0,0.2c-0.4,0.1-0.7,0.5-0.9,0.9
	c-2.2-1.1-4.1-2.9-5.2-4.9c-1.3,1.9-3.7,3.9-6.2,5.1L269.7,6c2.3-1.4,4.6-3.8,5.5-5.8L277.1,0.6z M272.1,7.1h2l0.5-0.5l1.3,0.9
	c-0.2,0.1-0.4,0.2-0.8,0.3v3.6c0,0.1-0.4,0.3-0.8,0.3h-0.1v-0.7h-2.3v0.5c0,0.1-0.3,0.3-0.8,0.3h-0.1v-5L272.1,7.1z M271.9,7.6v2.6
	h2.3V7.6H271.9z M277.7,4.2c0,0,0.8,0.6,1.3,1c0,0.2-0.2,0.3-0.6,0.3h-5.6L272.7,5h4.3L277.7,4.2z M279.6,12.4
	c-0.1,0.2-0.3,0.3-0.8,0.3c-0.2,0.5-0.5,0.9-0.9,1.5c4.5,1.5,4,3.5,2.8,3c-0.5-0.8-1.9-2-3-2.7c-0.7,1-1.8,2.1-3,2.8l-0.2-0.3
	c1.6-1.3,2.8-3.5,3.3-5.1L279.6,12.4z M279.7,11.5v-0.7h-2.3v0.5c0,0.1-0.3,0.3-0.8,0.3h-0.1v-5l1.2,0.5h2l0.5-0.5l1.3,0.9
	c-0.2,0.1-0.4,0.2-0.8,0.3v3.6c0,0.1-0.4,0.3-0.8,0.3H279.7z M279.7,10.3V7.6h-2.3v2.6H279.7z M239.6,17l0.1,0.4
	c2.8-0.3,5-1,6.7-1.8c0.5,0.1,0.8,0.1,0.9,0l-1.4-0.9C244.6,15.6,242.3,16.6,239.6,17z M241.2,4.3c0.4-0.3,0.8-1,0.9-1.9h14.4
	c-0.2,0.5-0.6,1.1-0.8,1.5l0.3,0.1c0.6-0.4,1.4-1.1,1.8-1.5c0.4,0,0.7-0.1,0.8-0.2l-1.4-1.1l-0.7,0.6h-7.2v-1
	c0.5-0.1,0.8-0.2,0.8-0.5l-1.8-0.2v1.7h-6.2c0-0.3-0.1-0.6-0.1-0.9h-0.4c0,1.1-0.6,2.3-1.3,2.7c-0.3,0.2-0.5,0.6-0.3,0.8
	C240.2,4.8,240.8,4.6,241.2,4.3z M257.2,4.5l-0.8,0.8h-1.8l0-1.1c0.4,0,0.8-0.2,0.9-0.3l-1.5-1l-0.6,0.6h-9L243.4,3
	c0,0.6-0.2,1.4-0.3,2.2h-4l0.2,0.5h3.8c-0.1,0.7-0.2,1.5-0.3,2.1c0.5,0.1,0.7,0.1,1-0.1l0-0.3h9.7l0,0.4c0.5,0.1,0.7,0,1-0.1
	c0-0.6,0.1-1.4,0.1-2.1h3.6c0.3,0,0.5-0.1,0.6-0.3C258.1,5.1,257.2,4.5,257.2,4.5z M248,7.1h-4.2c0.1-0.4,0.1-0.8,0.1-1.2h4.2
	C248.1,6.3,248,6.7,248,7.1z M248.2,5.3H244l0.1-1.2h4.2C248.3,4.4,248.3,4.8,248.2,5.3z M253.5,7.1H249c0-0.3,0.1-0.8,0.2-1.2h4.5
	C253.6,6.2,253.5,6.7,253.5,7.1z M253.6,5.3h-4.4c0.1-0.4,0.1-0.9,0.1-1.2h4.3C253.7,4.4,253.6,4.8,253.6,5.3z M253.8,14.8
	c0.3,0,0.8-0.2,0.8-0.3V9.4c0.3,0,0.6-0.2,0.7-0.3l-1.3-0.9l-0.6,0.5h-9.6l-1.1-0.5v6.8h0.2c0.4,0,0.8-0.2,0.8-0.3v-0.3h9.8v0.4
	H253.8z M243.8,9.3h9.8v1.1h-9.8V9.3z M243.8,11h9.8v1.2h-9.8V11z M243.8,13.9v-1.2h9.8v1.2H243.8z M250.5,14.8l-0.1,0.3
	c2.7,0.5,4.8,1.2,6.1,1.9C257.9,17.8,259.4,15.6,250.5,14.8z M103.9,25.9h-2.3v-0.8h5.5v0.8h-2.3v5.9h-1V25.9z M108.6,30.4
	c0-1.2,1.1-1.5,2.1-1.5c0.5,0,1.1,0.1,1.5,0.2v-0.5c0-0.8-0.1-1.4-1.2-1.4c-0.9,0-1.3,0.4-1.3,1.1h-0.9c0-1.5,1.2-1.9,2.3-1.9
	c1.4,0,2.1,0.7,2.1,2v2.4c0,0.2,0.1,0.3,0.3,0.3c0.2,0,0.4,0,0.6-0.1v0.7c-0.2,0.1-0.5,0.2-0.9,0.2c-0.6,0-0.8-0.4-0.8-0.7v-0.1
	c-0.3,0.4-0.9,0.8-1.9,0.8C109.4,31.9,108.6,31.5,108.6,30.4z M112.2,30.6v-0.8c-0.3-0.1-0.8-0.1-1.3-0.1c-0.8,0-1.3,0.2-1.3,0.7
	c0,0.5,0.3,0.7,1,0.7C111.2,31.1,111.8,30.9,112.2,30.6z M115.7,31h1.9v-3.6h-1.9v-0.8h2.8V31h1.7v0.8h-4.5V31z M117.5,24.2h1.2v1.2
	h-1.2V24.2z M121.7,26.6h0.9l0.6,4.4l0.9-3.3h1l0.9,3.3l0.6-4.4h0.9l-0.9,5.2h-1.2l-0.9-3.2l-0.9,3.2h-1.2L121.7,26.6z M129.2,30.5
	c0-1.2,1.1-1.5,2.1-1.5c0.5,0,1.1,0.1,1.5,0.2v-0.5c0-0.8-0.1-1.4-1.2-1.4c-0.9,0-1.3,0.4-1.3,1.1h-0.9c0-1.5,1.2-1.9,2.3-1.9
	c1.4,0,2.1,0.7,2.1,2v2.4c0,0.2,0.1,0.3,0.3,0.3c0.2,0,0.4,0,0.6-0.1v0.7c-0.2,0.1-0.5,0.2-0.9,0.2c-0.6,0-0.8-0.4-0.8-0.7v-0.1
	c-0.3,0.4-0.9,0.8-1.9,0.8C130,31.9,129.2,31.5,129.2,30.5z M132.8,30.6v-0.8c-0.3-0.1-0.8-0.1-1.3-0.1c-0.8,0-1.3,0.2-1.3,0.7
	c0,0.5,0.3,0.7,1,0.7C131.8,31.1,132.4,30.9,132.8,30.6z M136.5,26.6h0.8v0.7c0.2-0.4,0.8-0.8,1.7-0.8c0.9,0,1.7,0.4,1.7,2.1v3.2
	h-0.9v-3c0-1-0.2-1.5-1.1-1.5c-0.7,0-1.1,0.3-1.3,0.5v4h-0.9V26.6z M147.8,28.5c0-2.3,1-3.5,2.8-3.5c1.2,0,2.4,0.5,2.5,2.3h-1
	c-0.1-1-0.7-1.4-1.6-1.4c-1.5,0-1.7,1.3-1.7,2.6c0,1.2,0.2,2.6,1.7,2.6c1,0,1.5-0.5,1.5-1.4h1c-0.1,1.7-1.3,2.3-2.5,2.3
	C148.6,31.9,147.8,30.6,147.8,28.5z M154.7,29.2c0-2.1,1.4-2.7,2.5-2.7c1.2,0,2.5,0.6,2.5,2.7c0,2.1-1.4,2.7-2.5,2.7
	C156,31.9,154.7,31.3,154.7,29.2z M158.8,29.2c0-1.3-0.6-1.9-1.6-1.9s-1.6,0.6-1.6,1.9c0,1.3,0.6,1.9,1.6,1.9S158.8,30.5,158.8,29.2
	z M161.9,26.6h0.8v0.7c0.2-0.4,0.8-0.8,1.7-0.8c0.9,0,1.7,0.4,1.7,2.1v3.2h-0.9v-3c0-1-0.2-1.5-1.1-1.5c-0.7,0-1.1,0.3-1.3,0.5v4
	h-0.9V26.6z M169.5,29.7v-2.3h-1.7v-0.8h1.7v-2.4h0.9v2.4h2.5v0.8h-2.5v2.2c0,1.1,0.2,1.4,1.1,1.4c0.5,0,0.9-0.1,1.3-0.2v0.8
	c-0.2,0.1-0.7,0.2-1.4,0.2C170.2,31.9,169.5,31.5,169.5,29.7z M174.7,29.2c0-2.1,1.3-2.7,2.5-2.7c1.2,0,2.5,0.6,2.5,2.7v0.2h-4.1
	c0,1.1,0.6,1.7,1.7,1.7c0.8,0,1.4-0.4,1.5-1h1c-0.2,1.4-1.5,1.8-2.5,1.8C175.9,31.9,174.7,31.2,174.7,29.2z M178.7,28.7
	c-0.1-0.9-0.7-1.4-1.6-1.4s-1.4,0.5-1.6,1.4H178.7z M181.8,26.6h0.7v0.7c0.1-0.3,0.5-0.9,1.3-0.9c0.6,0,0.9,0.4,1.1,0.8
	c0.2-0.3,0.6-0.8,1.3-0.8c0.7,0,1.2,0.6,1.2,1.7v3.6h-0.9v-3.4c0-0.7-0.1-1.1-0.5-1.1c-0.4,0-0.7,0.3-0.9,0.6v3.9h-0.9v-3.4
	c0-0.7-0.1-1.1-0.5-1.1c-0.4,0-0.7,0.3-0.9,0.6v3.9h-0.9V26.6z M189.9,26.6h0.8v0.7c0.3-0.4,0.8-0.8,1.7-0.8c1.1,0,2.2,0.7,2.2,2.7
	c0,1.9-1,2.7-2.2,2.7c-0.8,0-1.3-0.4-1.5-0.6v2.7h-0.9V26.6z M193.6,29.2c0-1.1-0.4-1.9-1.5-1.9c-0.6,0-1,0.2-1.3,0.5v2.8
	c0.3,0.3,0.7,0.5,1.3,0.5C193.2,31.1,193.6,30.4,193.6,29.2z M196.3,29.2c0-2.1,1.4-2.7,2.5-2.7c1.2,0,2.5,0.6,2.5,2.7
	c0,2.1-1.4,2.7-2.5,2.7C197.6,31.9,196.3,31.3,196.3,29.2z M200.4,29.2c0-1.3-0.6-1.9-1.6-1.9s-1.6,0.6-1.6,1.9
	c0,1.3,0.6,1.9,1.6,1.9S200.4,30.5,200.4,29.2z M203.2,31h1.3v-3.6h-1.3v-0.8h2.1v1.2c0.2-0.5,0.7-1.3,1.8-1.3
	c0.4,0,0.8,0.1,0.9,0.2v1c-0.2-0.1-0.5-0.2-0.9-0.2c-0.9,0-1.4,0.5-1.7,0.9V31h2.2v0.8h-4.5V31z M209.8,30.5c0-1.2,1.1-1.5,2.1-1.5
	c0.5,0,1.1,0.1,1.5,0.2v-0.5c0-0.8-0.1-1.4-1.2-1.4c-0.9,0-1.3,0.4-1.3,1.1h-0.9c0-1.5,1.2-1.9,2.3-1.9c1.4,0,2.1,0.7,2.1,2v2.4
	c0,0.2,0.1,0.3,0.3,0.3c0.2,0,0.4,0,0.6-0.1v0.7c-0.2,0.1-0.5,0.2-0.9,0.2c-0.6,0-0.8-0.4-0.8-0.7v-0.1c-0.3,0.4-0.9,0.8-1.9,0.8
	C210.6,31.9,209.8,31.5,209.8,30.5z M213.3,30.6v-0.8c-0.3-0.1-0.8-0.1-1.3-0.1c-0.8,0-1.3,0.2-1.3,0.7c0,0.5,0.3,0.7,1,0.7
	C212.4,31.1,213,30.9,213.3,30.6z M216.9,31h1.3v-3.6h-1.3v-0.8h2.1v1.2c0.2-0.5,0.7-1.3,1.8-1.3c0.4,0,0.8,0.1,0.9,0.2v1
	c-0.2-0.1-0.5-0.2-0.9-0.2c-0.9,0-1.4,0.5-1.7,0.9V31h2.2v0.8h-4.5V31z M223.4,33.2c1.1,0,1.7-0.4,2.1-1.3l-2.3-5.3h1l1.1,2.8
	l0.6,1.7l0.6-1.6l1.1-2.8h1l-2.2,5.1c-0.7,1.7-1.5,2.3-3.1,2.3V33.2z M235.2,28.5c0-2.3,1-3.5,2.8-3.5c1.2,0,2.4,0.5,2.5,2.3h-1
	c-0.1-1-0.7-1.4-1.6-1.4c-1.5,0-1.7,1.3-1.7,2.6c0,1.2,0.2,2.6,1.7,2.6c1,0,1.5-0.5,1.5-1.4h1c-0.1,1.7-1.3,2.3-2.5,2.3
	C236.1,31.9,235.2,30.6,235.2,28.5z M242.5,29.8v-3.2h0.9v3c0,1,0.2,1.5,1.1,1.5c0.7,0,1.1-0.3,1.3-0.5v-4h0.9v5.2H246v-0.7
	c-0.2,0.4-0.8,0.8-1.7,0.8C243.4,31.9,242.5,31.5,242.5,29.8z M248.7,31h1.8v-6h-1.8v-0.8h2.7V31h1.8v0.8h-4.5V31z M255.9,29.7v-2.3
	h-1.7v-0.8h1.7v-2.4h0.9v2.4h2.5v0.8h-2.5v2.2c0,1.1,0.2,1.4,1.1,1.4c0.5,0,0.9-0.1,1.3-0.2v0.8c-0.2,0.1-0.7,0.2-1.4,0.2
	C256.6,31.9,255.9,31.5,255.9,29.7z M261.3,29.8v-3.2h0.9v3c0,1,0.2,1.5,1.1,1.5c0.7,0,1.1-0.3,1.3-0.5v-4h0.9v5.2h-0.8v-0.7
	c-0.2,0.4-0.8,0.8-1.7,0.8C262.2,31.9,261.3,31.5,261.3,29.8z M267.8,31h1.3v-3.6h-1.3v-0.8h2.1v1.2c0.2-0.5,0.7-1.3,1.8-1.3
	c0.4,0,0.8,0.1,0.9,0.2v1c-0.2-0.1-0.5-0.2-0.9-0.2c-0.9,0-1.4,0.5-1.7,0.9V31h2.2v0.8h-4.5V31z M274.4,29.2c0-2.1,1.3-2.7,2.5-2.7
	c1.2,0,2.5,0.6,2.5,2.7v0.2h-4.1c0,1.1,0.6,1.7,1.7,1.7c0.8,0,1.4-0.4,1.5-1h1c-0.2,1.4-1.5,1.8-2.5,1.8
	C275.6,31.9,274.4,31.2,274.4,29.2z M278.4,28.7c-0.1-0.9-0.7-1.4-1.6-1.4c-0.9,0-1.4,0.5-1.6,1.4H278.4z M286.6,25.1h1V31h3.4v0.8
	h-4.4V25.1z M292.7,30.5c0-1.2,1.1-1.5,2.1-1.5c0.5,0,1.1,0.1,1.5,0.2v-0.5c0-0.8-0.1-1.4-1.2-1.4c-0.9,0-1.3,0.4-1.3,1.1h-0.9
	c0-1.5,1.2-1.9,2.3-1.9c1.4,0,2.1,0.7,2.1,2v2.4c0,0.2,0.1,0.3,0.3,0.3c0.2,0,0.4,0,0.6-0.1v0.7c-0.2,0.1-0.5,0.2-0.9,0.2
	c-0.6,0-0.8-0.4-0.8-0.7v-0.1c-0.3,0.4-0.9,0.8-1.9,0.8C293.5,31.9,292.7,31.5,292.7,30.5z M296.2,30.6v-0.8
	c-0.3-0.1-0.8-0.1-1.3-0.1c-0.8,0-1.3,0.2-1.3,0.7c0,0.5,0.3,0.7,1,0.7C295.3,31.1,295.9,30.9,296.2,30.6z M300.7,31.1v0.7h-0.8
	v-7.6h0.9v2.9c0.2-0.2,0.7-0.6,1.5-0.6c1.1,0,2.2,0.7,2.2,2.7c0,1.9-1,2.7-2.2,2.7C301.5,31.9,301,31.5,300.7,31.1z M303.6,29.2
	c0-1.1-0.4-1.9-1.5-1.9c-0.6,0-1,0.2-1.3,0.5v2.8c0.3,0.3,0.7,0.5,1.3,0.5C303.2,31.1,303.6,30.4,303.6,29.2z M76.7,29.8l-2.4-1.7
	H50.8L28.3,12L0.6,19.5L0,17.3l26-7l-6.9-4.9h71.3v2.2h-41L78,28l0,0L76.7,29.8z M51.5,25.9h19.7L45.6,7.6h-1.1L31,11.3L51.5,25.9z
	 M25.9,7.6l2.8,2l7.4-2H25.9z"/>
</svg>
