<svg viewBox="0 0 1400 146" preserveAspectRatio="xMinYMin">
            <g stroke="none" stroke-width="1" fill="none" fill-rule="evenodd">
                <path d="M797.849462,36.4995004 C797.849462,16.3412404 781.451432,0 761.220644,0 C740.989855,0 724.587814,16.3412404 724.587814,36.4995004 C724.587814,56.6577604 740.989855,72.9990008 761.220644,72.9990008 C740.989855,72.9990008 724.587814,89.3422396 724.587814,109.5005 C724.587814,89.3422396 708.187778,72.9990008 687.956989,72.9990008 C708.187778,72.9990008 724.587814,56.6577604 724.587814,36.4995004 C724.587814,16.3412404 708.187778,0 687.956989,0 C667.728206,0 651.326165,16.3412404 651.326165,36.4995004 C651.326165,56.6577604 667.728206,72.9990008 687.956989,72.9990008 C667.728206,72.9990008 651.326165,89.3422396 651.326165,109.5005 C651.326165,129.65876 667.728206,146 687.956989,146 C708.187778,146 724.587814,129.65876 724.587814,109.5005 C724.587814,129.65876 740.989855,146 761.220644,146 C781.451432,146 797.849462,129.65876 797.849462,109.5005 C797.849462,89.3422396 781.451432,72.9990008 761.220644,72.9990008 C781.451432,72.9990008 797.849462,56.6577604 797.849462,36.4995004 Z M488.74552,0 L562.006166,73 L635.268817,0 L488.74552,0 Z M488.74552,146 L635.268817,146 L562.006166,73 L488.74552,146 Z M235.842294,73 L309.103943,73 L309.103943,0 L235.842294,0 L235.842294,73 Z M162.580645,146 L235.842294,146 L235.842294,73 L162.580645,73 L162.580645,146 Z M813.90681,73 L887.168459,0 L813.90681,0 L813.90681,73 Z M960.430108,73 L960.430108,0 L887.168459,0 L960.430108,73 Z M960.430108,146 L960.430108,73 L887.168459,146 L960.430108,146 Z M813.90681,146 L887.168459,146 L813.90681,73 L813.90681,146 Z M398.922726,109 C378.693942,109 362.293907,92.6569849 362.293907,72.4990008 C362.293907,52.3430151 378.693942,36 398.922726,36 C419.153514,36 435.555556,52.3430151 435.555556,72.4990008 C435.555556,92.6569849 419.153514,109 398.922726,109 Z M398.421936,0 C357.962918,0 325.16129,32.6824808 325.16129,72.9990008 C325.16129,113.315521 357.962918,146 398.421936,146 C438.88296,146 471.684588,113.315521 471.684588,72.9990008 C471.684588,32.6824808 438.88296,0 398.421936,0 Z M48.172043,97 L97.3476703,97 L97.3476703,48 L48.172043,48 L48.172043,97 Z M0,146 L146.523297,146 L146.523297,0 L0,0 L0,146 Z M1092.91997,130.282273 L1043.07984,0 L1020.64917,0 L1020.64516,146 L1034.56253,146 L1034.56453,15.925565 L1083.98943,146 L1101.85052,146 L1150.24235,15.7177273 L1150.24034,146 L1164.15369,146 L1164.15771,0 L1141.52042,0 L1092.91997,130.282273 Z M993.548387,16 L1006.59498,16 L1006.59498,0 L993.548387,0 L993.548387,16 Z M1208.31541,88 L1236.91959,11 L1265.51971,88 L1208.31541,88 Z M1228.11611,0 L1172.18638,146 L1187.83977,146 L1204.95046,100.707365 L1270.89586,100.707365 L1288.00655,146 L1303.65591,146 L1248.5667,0 L1228.11611,0 Z M1324.5971,133.591689 L1324.60111,0 L1310.68502,0 L1310.681,146 L1400,146 L1400,133.591689 L1324.5971,133.591689 Z M993.548387,146 L1006.59301,146 L1006.59498,47 L993.550356,47 L993.548387,146 L993.548387,146 Z" id="imal_logo_RGB" fill="#000000"></path>
            </g>
        </svg>