<?xml version="1.0" encoding="utf-8"?>
<!-- Generator: Adobe Illustrator 18.0.0, SVG Export Plug-In . SVG Version: 6.00 Build 0)  -->
<!DOCTYPE svg PUBLIC "-//W3C//DTD SVG 1.1//EN" "http://www.w3.org/Graphics/SVG/1.1/DTD/svg11.dtd">
<svg version="1.1" id="Layer_1" xmlns="http://www.w3.org/2000/svg" xmlns:xlink="http://www.w3.org/1999/xlink" x="0px" y="0px"
	 viewBox="0 0 76.8 39.2" enable-background="new 0 0 76.8 39.2" xml:space="preserve">
<g>
	<polygon fill="#231F20" points="26.1,19.7 25.2,19.7 25.2,15.1 0,15.1 0,0 65.7,0 65.7,0.9 0.9,0.9 0.9,14.2 26.1,14.2 	"/>
	<g opacity="0.7">
	</g>
	<g>
		<path fill="#231F20" d="M6.2,9.2h2.3v1H5.1V4.8h1.1V9.2z"/>
		<path fill="#231F20" d="M11.3,9.2l-0.4,1.1H9.8l2-5.5h1l2,5.5h-1.1l-0.4-1.1H11.3z M12.2,6.4l-0.6,1.8h1.2L12.2,6.4z"/>
		<path fill="#231F20" d="M16.2,4.8h2.3c1.1,0,1.7,0.6,1.7,1.6c0,0.5-0.2,0.9-0.5,1.1c0.4,0.3,0.6,0.7,0.6,1.2c0,1-0.6,1.6-1.8,1.6
			h-2.4V4.8z M18.5,5.8h-1.3V7h1.3c0.4,0,0.7-0.2,0.7-0.6C19.1,6,18.9,5.8,18.5,5.8z M18.6,9.2c0.4,0,0.7-0.2,0.7-0.6
			C19.3,8.2,19,8,18.6,8h-1.4v1.2H18.6z"/>
		<path fill="#231F20" d="M23.9,10.4c-1.3,0-2.1-0.8-2.1-2V6.7c0-1.2,0.8-2,2.1-2c1.3,0,2.1,0.8,2.1,2v1.6
			C26,9.5,25.2,10.4,23.9,10.4z M24.9,6.7c0-0.6-0.4-1-1-1c-0.6,0-1,0.4-1,1v1.6c0,0.6,0.4,1,1,1c0.6,0,1-0.4,1-1V6.7z"/>
		<path fill="#231F20" d="M28.6,8v2.3h-1.1V4.8h2.3c1.1,0,1.7,0.6,1.7,1.6c0,0.8-0.4,1.4-1.2,1.6l1.4,2.3h-1.2L29.3,8H28.6z
			 M29.9,5.8h-1.3V7h1.3c0.4,0,0.7-0.2,0.7-0.6C30.6,6,30.3,5.8,29.9,5.8z"/>
		<path fill="#231F20" d="M34.4,9.2L34,10.3h-1.1l2-5.5h1l2,5.5h-1.1l-0.4-1.1H34.4z M35.4,6.4l-0.6,1.8H36L35.4,6.4z"/>
		<path fill="#231F20" d="M40.7,5.8v4.5h-1.1V5.8h-1.5V4.8h4.2v1.1H40.7z"/>
		<path fill="#231F20" d="M45.4,10.4c-1.3,0-2.1-0.8-2.1-2V6.7c0-1.2,0.8-2,2.1-2c1.3,0,2.1,0.8,2.1,2v1.6
			C47.5,9.5,46.7,10.4,45.4,10.4z M46.4,6.7c0-0.6-0.4-1-1-1c-0.6,0-1,0.4-1,1v1.6c0,0.6,0.4,1,1,1c0.6,0,1-0.4,1-1V6.7z"/>
		<path fill="#231F20" d="M50.1,8v2.3h-1.1V4.8h2.3c1.1,0,1.7,0.6,1.7,1.6c0,0.8-0.4,1.4-1.2,1.6l1.4,2.3h-1.2L50.8,8H50.1z
			 M51.4,5.8h-1.3V7h1.3c0.4,0,0.7-0.2,0.7-0.6C52.1,6,51.8,5.8,51.4,5.8z"/>
		<path fill="#231F20" d="M54.8,10.3v-1H56V5.8h-1.2V4.8h3.4v1.1H57v3.4h1.2v1H54.8z"/>
		<path fill="#231F20" d="M61.9,10.4c-1.3,0-2.1-0.8-2.1-2V6.7c0-1.2,0.8-2,2.1-2c1.3,0,2.1,0.8,2.1,2v1.6
			C64,9.5,63.3,10.4,61.9,10.4z M63,6.7c0-0.6-0.4-1-1-1c-0.6,0-1,0.4-1,1v1.6c0,0.6,0.5,1,1,1c0.6,0,1-0.4,1-1V6.7z"/>
		<path fill="#231F20" d="M31.3,19.7h-1.1v-5.5h2.3c1.3,0,1.9,0.9,1.9,1.9c0,1-0.6,1.9-1.9,1.9h-1.2V19.7z M32.5,16.9
			c0.6,0,0.9-0.4,0.9-0.9c0-0.4-0.3-0.9-0.9-0.9h-1.2v1.7H32.5z"/>
		<path fill="#231F20" d="M36.3,18.6l-0.4,1.1h-1.1l2-5.5h1l2,5.5h-1.1l-0.4-1.1H36.3z M37.2,15.8l-0.6,1.8h1.2L37.2,15.8z"/>
		<path fill="#231F20" d="M42,17.4v2.3h-1.1v-5.5h2.3c1.1,0,1.7,0.6,1.7,1.6c0,0.8-0.4,1.4-1.2,1.6l1.4,2.3h-1.2l-1.3-2.3H42z
			 M43.3,15.2H42v1.2h1.3c0.4,0,0.7-0.2,0.7-0.6C43.9,15.4,43.7,15.2,43.3,15.2z"/>
		<path fill="#231F20" d="M47.6,18.6l-0.4,1.1h-1.1l2-5.5h1l2,5.5h-1.1l-0.4-1.1H47.6z M48.6,15.8L48,17.6h1.2L48.6,15.8z"/>
		<path fill="#231F20" d="M55.6,18.6h2.3v1h-3.4v-5.5h1.1V18.6z"/>
		<path fill="#231F20" d="M60.6,18.6l-0.4,1.1h-1.1l2-5.5h1l2,5.5h-1.1l-0.4-1.1H60.6z M61.6,15.8l-0.6,1.8h1.2L61.6,15.8z"/>
		<path fill="#231F20" d="M9.2,27.2c0,1.2-0.8,1.9-2.1,1.9c-1.3,0-2.1-0.8-2.1-2v-1.6c0-1.2,0.8-2,2.1-2c1.3,0,2,0.8,2.1,1.9H8.2
			c-0.1-0.6-0.5-0.9-1-0.9c-0.6,0-1,0.4-1,1v1.6c0,0.6,0.4,1,1,1c0.5,0,1-0.3,1-0.9H9.2z"/>
		<path fill="#231F20" d="M10.9,29.1v-1H12v-3.4h-1.2v-1.1h3.4v1.1h-1.1V28h1.1v1H10.9z"/>
		<path fill="#231F20" d="M20.2,23.5v3.6c0,1.2-0.8,2-2.1,2c-1.3,0-2.1-0.8-2.1-2v-3.6h1.1v3.6c0,0.6,0.4,1,1,1c0.6,0,1-0.4,1-1
			v-3.6H20.2z"/>
		<path fill="#231F20" d="M22.2,29.1v-5.5h2.1c1.3,0,2.1,0.8,2.1,2V27c0,1.2-0.8,2-2.1,2H22.2z M25.3,25.6c0-0.6-0.5-1-1-1h-1V28h1
			c0.6,0,1-0.4,1-1V25.6z"/>
		<path fill="#231F20" d="M28.8,27.9l-0.4,1.1h-1.1l2-5.5h1l2,5.5h-1.1l-0.4-1.1H28.8z M29.8,25.1l-0.6,1.8h1.2L29.8,25.1z"/>
		<path fill="#231F20" d="M33.5,29.1v-5.5h2.1c1.3,0,2.1,0.8,2.1,2V27c0,1.2-0.8,2-2.1,2H33.5z M36.6,25.6c0-0.6-0.5-1-1-1h-1V28h1
			c0.6,0,1-0.4,1-1V25.6z"/>
	</g>
	<polygon fill="#231F20" points="68.2,15.9 68.2,24.8 41.8,24.8 41.8,34.8 5.1,34.8 5.1,35.7 42.7,35.7 42.7,25.7 68.2,25.7 
		68.2,39.2 69.1,39.2 69.1,16.8 76.8,16.8 76.8,15.9 	"/>
</g>
</svg>
