<?xml version="1.0" encoding="UTF-8"?> <svg xmlns="http://www.w3.org/2000/svg" width="357" height="65" viewBox="0 0 357 65" fill="none"> <g clip-path="url(#clip0)"> <path d="M212.672 39.4104C213.766 40.0825 215.912 40.6705 217.974 40.6705C222.982 40.6705 225.381 37.9403 225.381 34.748C225.381 31.9338 223.74 30.2116 220.373 28.9515C217.764 27.9435 216.628 27.2294 216.628 25.7173C216.628 24.5412 217.596 23.3651 219.868 23.3651C221.678 23.3651 223.067 23.9111 223.782 24.2891L224.624 21.3909C223.614 20.8869 222.057 20.3828 219.952 20.3828C215.66 20.4248 212.966 22.861 212.966 26.0953C212.966 28.9095 215.029 30.6317 218.269 31.8078C220.752 32.6899 221.72 33.5719 221.72 35.0841C221.72 36.6802 220.457 37.7723 218.185 37.7723C216.375 37.7723 214.566 37.1842 213.429 36.5122L212.672 39.4104Z" fill="black"></path> <path d="M234.893 25.8838C230.642 25.8838 227.57 28.74 227.57 33.4024C227.57 37.9808 230.685 40.711 234.64 40.711C238.26 40.711 241.879 38.4009 241.879 33.1924C241.921 28.824 239.101 25.8838 234.893 25.8838ZM234.767 28.446C237.208 28.446 238.175 31.0082 238.175 33.2344C238.175 36.1327 236.745 38.1068 234.725 38.1068C232.578 38.1068 231.19 36.0487 231.19 33.3184C231.232 30.9242 232.242 28.446 234.767 28.446Z" fill="black"></path> <path d="M254.714 37.2668C253.999 37.5608 253.115 37.8128 251.894 37.8128C249.454 37.8128 247.56 36.1747 247.56 33.2344C247.518 30.6302 249.159 28.656 251.894 28.656C253.157 28.656 253.999 28.908 254.588 29.2021L255.219 26.5138C254.419 26.1778 253.073 25.8838 251.768 25.8838C246.802 25.8838 243.898 29.1601 243.898 33.4024C243.898 37.7708 246.76 40.627 251.179 40.627C252.946 40.627 254.419 40.249 255.177 39.913L254.714 37.2668Z" fill="black"></path> <path d="M261.444 40.3345V26.1793H257.867V40.3345H261.444ZM259.676 20.2988C258.498 20.2988 257.656 21.1389 257.656 22.231C257.656 23.2811 258.456 24.1632 259.634 24.1632C260.897 24.1632 261.654 23.2811 261.654 22.231C261.654 21.1389 260.897 20.2988 259.676 20.2988Z" fill="black"></path> <path d="M276.26 31.8483C276.26 28.74 274.956 25.8418 270.411 25.8418C268.18 25.8418 266.329 26.4298 265.319 27.1019L266.034 29.4121C267.002 28.782 268.433 28.362 269.822 28.362C272.305 28.362 272.683 29.9161 272.683 30.8402V31.0922C267.465 31.0502 264.309 32.8984 264.309 36.4267C264.309 38.5689 265.908 40.6271 268.769 40.6271C270.621 40.6271 272.094 39.829 272.936 38.7369H273.02L273.272 40.291H276.513C276.345 39.4089 276.26 38.1488 276.26 36.8887V31.8483V31.8483ZM272.81 35.3766C272.81 35.6286 272.81 35.9226 272.725 36.1747C272.389 37.1828 271.379 38.1068 269.906 38.1068C268.769 38.1068 267.886 37.4768 267.886 36.0907C267.886 33.9485 270.284 33.4024 272.81 33.4444V35.3766Z" fill="black"></path> <path d="M280.043 40.3327H283.62V19.709H280.043V40.3327Z" fill="black"></path> <path d="M287.664 40.2924C288.59 40.4185 290.063 40.5445 292.041 40.5445C295.66 40.5445 297.933 39.9144 299.321 38.7383C300.415 37.7722 301.173 36.4281 301.173 34.664C301.173 31.9757 299.279 30.3796 297.217 29.8336V29.7496C299.321 28.9515 300.458 27.3553 300.458 25.5492C300.458 23.8691 299.658 22.5669 298.438 21.8529C297.133 20.9708 295.492 20.5928 292.882 20.5928C290.862 20.5928 288.8 20.8028 287.664 21.0128V40.2924V40.2924ZM291.199 23.407C291.578 23.323 292.167 23.239 293.219 23.239C295.492 23.239 296.88 24.0791 296.88 25.9272C296.88 27.5654 295.534 28.7415 293.009 28.7415H291.199V23.407ZM291.199 31.3457H292.967C295.45 31.3457 297.428 32.2698 297.428 34.58C297.428 36.9742 295.365 37.8562 293.093 37.8562C292.293 37.8562 291.662 37.8562 291.199 37.7722V31.3457Z" fill="black"></path> <path d="M310.639 25.8838C306.389 25.8838 303.316 28.74 303.316 33.4024C303.316 37.9808 306.431 40.711 310.386 40.711C314.006 40.711 317.625 38.4009 317.625 33.1924C317.667 28.824 314.847 25.8838 310.639 25.8838ZM310.555 28.446C312.996 28.446 313.964 31.0082 313.964 33.2344C313.964 36.1327 312.533 38.1068 310.513 38.1068C308.366 38.1068 307.02 36.0487 307.02 33.3184C307.02 30.9242 308.03 28.446 310.555 28.446Z" fill="black"></path> <path d="M327.01 25.8838C322.76 25.8838 319.688 28.74 319.688 33.4024C319.688 37.9808 322.802 40.711 326.758 40.711C330.377 40.711 334.038 38.4009 334.038 33.1924C334.038 28.824 331.218 25.8838 327.01 25.8838ZM326.926 28.446C329.367 28.446 330.335 31.0082 330.335 33.2344C330.335 36.1327 328.904 38.1068 326.884 38.1068C324.738 38.1068 323.391 36.0487 323.391 33.3184C323.391 30.9242 324.401 28.446 326.926 28.446Z" fill="black"></path> <path d="M336.105 39.6619C337.158 40.25 338.673 40.67 340.398 40.67C344.143 40.67 346.164 38.8219 346.164 36.2176C346.121 34.1175 344.985 32.8153 342.376 31.9333C340.566 31.2612 339.893 30.8412 339.893 29.9591C339.893 29.077 340.608 28.447 341.871 28.447C343.133 28.447 344.27 28.909 344.859 29.245L345.574 26.7668C344.733 26.3048 343.386 25.9268 341.787 25.9268C338.504 25.9268 336.442 27.8589 336.442 30.3371C336.442 32.0173 337.578 33.5294 340.314 34.4535C342.039 35.0835 342.628 35.5456 342.628 36.5117C342.628 37.4357 341.913 38.1078 340.356 38.1078C339.093 38.1078 337.536 37.5617 336.737 37.0577L336.105 39.6619Z" fill="black"></path> <path d="M349.653 23.5325V26.1787H347.633V28.867H349.653V35.5455C349.653 37.3937 349.99 38.6958 350.789 39.5358C351.462 40.2499 352.515 40.7119 353.861 40.7119C354.955 40.7119 355.923 40.5439 356.428 40.3339L356.386 37.6457C355.965 37.7717 355.629 37.7717 354.998 37.7717C353.651 37.7717 353.188 36.8896 353.188 35.1675V28.867H356.597V26.1787H353.188V22.5244L349.653 23.5325Z" fill="black"></path> <path fill-rule="evenodd" clip-rule="evenodd" d="M205.475 11.2675L187.168 29.623V19.1221L205.475 0.808594V11.2675ZM206.232 26.5148L185.316 47.4325V36.9316L206.232 16.0139V26.5148Z" fill="black"></path> <path fill-rule="evenodd" clip-rule="evenodd" d="M202.063 17.8202L180.559 39.368V28.9091L202.063 7.36133V17.8202ZM202.063 43.8204L181.064 64.8222V54.3633L202.063 33.3615V43.8204Z" fill="black"></path> </g> <path d="M111.791 8.67871C111.791 8.67871 106.019 10.8456 103.848 11.7124L105.589 17.7994C106.645 17.5433 108.661 17.1099 108.661 17.1099V45.5751H116.956V8.67871H111.791Z" fill="black"></path> <path d="M116.971 48.4883H108.676V56.5255H116.971V48.4883Z" fill="#FFF000"></path> <path d="M48.2565 9.40547C47.7673 9.14938 47.2587 8.93269 46.75 8.716C45.7326 8.30232 44.6761 7.96743 43.6001 7.73104C42.9153 7.57345 42.211 7.45526 41.5262 7.37646C39.9024 7.19917 38.2589 7.19917 36.6351 7.41586C34.9525 7.63255 33.2895 8.06593 31.7048 8.7357C30.0418 9.42517 28.4375 10.3313 26.9701 11.4936C26.3441 11.986 25.7375 12.5179 25.1506 13.1089C24.505 13.759 23.8985 14.4484 23.3702 15.1576C22.3529 16.4971 21.5312 17.9155 20.9051 19.4126C20.6312 20.0627 20.3964 20.7324 20.1812 21.4022C19.8682 22.466 19.6334 23.5297 19.4769 24.6132C19.3986 25.1647 19.3595 25.7163 19.3203 26.2679C19.2812 27.1937 19.3008 28.1196 19.379 29.0455C19.4182 29.5379 19.4769 30.0107 19.5551 30.5032C19.6921 31.3305 19.8877 32.1776 20.1225 32.9853C20.2594 33.4186 20.3964 33.8717 20.5529 34.2854C20.8464 35.0537 21.179 35.7825 21.5507 36.5114C21.7659 36.9054 21.9811 37.2994 22.2159 37.6933C22.6463 38.3828 23.0963 39.0526 23.6246 39.683C23.8985 40.0375 24.2115 40.3921 24.5245 40.727C24.7202 40.9437 24.9158 41.1604 25.131 41.3574C25.5223 41.7514 25.9332 42.1256 26.3441 42.4802C26.7158 42.7954 27.1071 43.0909 27.4788 43.3864C28.2223 43.938 29.0048 44.4304 29.7874 44.8441C30.2766 45.1002 30.7657 45.3366 31.2548 45.5533C32.2526 45.9867 33.2699 46.3412 34.2873 46.5973C34.9525 46.7746 35.6177 46.8928 36.2829 46.9913C36.4198 47.011 36.5568 47.0307 36.6938 47.0504L32.4287 51.3251L37.8872 56.8015L53.265 41.3771C61.0517 33.5762 61.0517 20.9097 53.265 13.1089C51.8172 11.5724 50.0955 10.351 48.2565 9.40547ZM47.4739 35.5068C47.2 35.7825 46.9261 36.0189 46.6326 36.275C44.7153 37.8509 42.4262 38.7374 40.0784 38.895C38.7089 38.9935 37.3198 38.8556 35.9894 38.4616C35.4416 38.304 34.8938 38.0873 34.346 37.8509C33.5243 37.4767 32.7417 36.9842 31.9982 36.3932C31.6461 36.1174 31.3135 35.8219 31.0004 35.5068C30.9809 35.4871 30.9613 35.4674 30.9417 35.4477C30.3548 34.8567 29.8461 34.2066 29.4157 33.5171C29.1809 33.1429 28.9462 32.7489 28.7505 32.3352C28.3788 31.5866 28.1049 30.7987 27.9092 30.0107C27.7918 29.5379 27.7136 29.0652 27.6549 28.5924C27.5375 27.6468 27.5571 26.7013 27.6745 25.7754C27.7527 25.1844 27.8701 24.5738 28.0462 24.0025C28.457 22.5645 29.1614 21.1855 30.1396 19.9642C30.4135 19.6293 30.6874 19.3141 31.0004 18.9989C32.8004 17.1866 35.0699 16.1032 37.4176 15.7289C38.9241 15.4925 40.4502 15.5516 41.9371 15.9062C42.524 16.0441 43.0914 16.241 43.6588 16.4577C44.5196 16.8123 45.3413 17.2654 46.1044 17.8367C46.4761 18.1125 46.8478 18.4276 47.2 18.7625C47.2782 18.8413 47.3565 18.9201 47.4347 18.9989C47.9434 19.5111 48.3934 20.0627 48.8043 20.6536C49.0586 21.0279 49.2934 21.4219 49.5086 21.8159C49.8999 22.5448 50.1934 23.313 50.4086 24.101C50.4477 24.2586 50.4868 24.4162 50.526 24.5738C51.4651 28.356 50.4477 32.5322 47.4739 35.5068Z" fill="black"></path> <path d="M13.2958 38.5603V37.0041V34.1871V32.6309V29.8139V28.2577V25.421V23.8648V21.0478V19.4916V16.6746V15.1184V12.3014V10.7452V8.67676H11.9655H9.2851H8.11122C8.11122 8.67676 2.33964 10.8437 0.167969 11.7104L0.735344 13.6606L1.12664 15.0002L1.8114 17.4035L1.90922 17.7777C2.96571 17.5216 4.98087 17.0883 4.98087 17.0883V17.1277V19.9446V21.5009V24.3178V25.8741V28.691V30.2473V33.0642V34.6205V37.4374V38.9937V41.8106V43.3669V45.5141H6.13519H8.83511H13.2958V42.9532V41.3773V38.5603Z" fill="black"></path> <path d="M68.3322 13.1118C60.5455 20.9127 60.5455 33.5792 68.3322 41.38C71.58 44.6501 75.6885 46.5412 79.9341 47.0731L75.669 51.3478L81.1275 56.8241L96.5053 41.3997C104.292 33.5989 104.292 20.9324 96.5053 13.1315C88.7382 5.311 76.0994 5.311 68.3322 13.1118ZM90.6555 35.5097C86.1165 40.0602 78.7406 40.0602 74.2016 35.5097C69.6626 30.9592 69.6626 23.5721 74.2016 19.0019C78.7406 14.4514 86.1165 14.4514 90.6555 19.0019C95.1945 23.5721 95.1945 30.9592 90.6555 35.5097Z" fill="black"></path> <defs> <clipPath id="clip0"> <rect width="176.037" height="64.0134" fill="white" transform="translate(180.559 0.808594)"></rect> </clipPath> </defs> </svg> 