<?xml version="1.0" encoding="utf-8"?>
<!-- Generator: Adobe Illustrator 24.3.0, SVG Export Plug-In . SVG Version: 6.00 Build 0)  -->
<svg version="1.1" id="Layer_1" xmlns="http://www.w3.org/2000/svg" xmlns:xlink="http://www.w3.org/1999/xlink" x="0px" y="0px"
	 viewBox="0 0 501.4 212.5" style="enable-background:new 0 0 501.4 212.5;" xml:space="preserve">
<style type="text/css">
	.st0{fill:none;}
	.st1{fill:#EE858D;}
	.st2{fill:#80262E;}
	.st3{fill:#DABE00;}
	.st4{fill:#3F2C4B;}
	.st5{fill:#8BCBBD;}
	.st6{fill:#FFFFFF;}
</style>
<g>
	<polygon class="st0" points="182,79.3 181.9,79.3 181.9,79.3 182.2,79.4 	"/>
	<polygon class="st1" points="88.5,79.5 77.5,79.5 77.5,109.3 88.5,102.8 	"/>
	<rect x="54.4" y="1" class="st1" width="11.2" height="55.6"/>
	<polygon class="st1" points="131.8,56.6 143,56.6 143,46.7 131.8,37.3 	"/>
	<polygon class="st1" points="53.8,79.5 42.5,79.5 42.5,130 53.5,123.5 53.5,97.4 65.6,116.3 73.8,111.4 	"/>
	<polygon class="st1" points="96.5,79.5 96.5,89.5 109.5,89.5 109.5,90.3 127.8,79.5 	"/>
	<rect x="21.4" y="79.5" class="st1" width="11.2" height="55.4"/>
	<polygon class="st1" points="98.6,43.4 84.4,1 72.1,1 92.6,56.6 104.7,56.6 116.5,24.6 107.5,17 	"/>
	<path class="st1" d="M29,57.6c8.1,0,13.7-2.8,17-5.2l-3.2-9.8c-2.6,1.8-7.8,4.5-13.8,4.5c-10.1,0-17.3-7.7-17.3-18.3
		c0-10.5,7.2-18.3,17.3-18.3c5.6,0,10.6,2.5,13.3,4.4l3.2-9.8C41.9,2.5,36.4,0,29,0C12.2,0,0,12.5,0,28.8C0,45.2,11.6,57.6,29,57.6z
		"/>
	<polygon class="st2" points="88.5,102.8 77.5,109.3 77.5,117.3 73.8,111.4 65.6,116.3 77.4,134.9 88.5,134.9 	"/>
	<polygon class="st2" points="86.9,201.5 68.8,201.5 68.8,188.3 83.7,188.3 83.7,178.3 68.8,178.3 68.8,166 86.2,166 86.2,155.9 
		57.6,155.9 57.6,211.5 86.9,211.5 	"/>
	<path class="st2" d="M49.3,183.7c0-17.4-11.3-27.8-29.5-27.8H5.1v55.6h14.8C37.9,211.5,49.3,201.5,49.3,183.7z M16.3,165.6h4
		c10.6,0,17.4,6.4,17.4,18c0,12-6.8,18.1-17.4,18.1h-4V165.6z"/>
	<path class="st2" d="M103.3,195l-9.4,4.6c1.1,3.1,3.7,7.9,9,10.7l4.6-9.9C105.5,199,104.1,197.1,103.3,195z"/>
	<path class="st2" d="M113,154.8c-10.6,0-17.5,6.4-17.5,15.8c0,11.5,10,14.9,17.1,18.4l4.5-9.8c-5.4-2.6-10.4-4.6-10.4-8.8
		c0-3,2.2-5.3,6-5.3c4.8,0,6.9,3.4,8.1,6l5.1-11.1C123.2,157.2,119.1,154.8,113,154.8z"/>
	<polygon class="st2" points="153,89.3 158.5,89.3 163.2,79.3 141.8,79.3 141.8,125.7 153,101.4 	"/>
	<polygon class="st2" points="120.6,134.9 120.6,89.5 133.5,89.5 133.5,79.5 127.8,79.5 109.5,90.3 109.5,134.9 	"/>
	<polygon class="st2" points="42.5,134.9 53.5,134.9 53.5,123.5 42.5,130 	"/>
	<polygon class="st3" points="226.1,134.9 237.4,134.9 239.8,127.6 231.2,120.4 	"/>
	<polygon class="st3" points="235.1,173.8 259.1,211.5 270.2,211.5 270.2,155.9 259.2,155.9 259.2,193.8 235.4,155.9 224.1,155.9 
		224.1,211.5 235.1,211.5 	"/>
	<path class="st3" d="M198.4,103.6h-5.2V89h0.5l-11.4-9.5l-0.3-0.2v55.6h11.2v-21.8h6l10.8,21.8h12.4l-13.2-24.4
		c2-1.1,3.7-2.6,5.1-4.3l-8.6-7.2C204.5,102,201.6,103.6,198.4,103.6z"/>
	<rect x="140.5" y="155.9" class="st3" width="11.2" height="55.6"/>
	<polygon class="st3" points="170.4,89.3 170.4,79.3 163.2,79.3 158.5,89.3 	"/>
	<polygon class="st3" points="171.1,124.9 153,124.9 153,111.7 167.9,111.7 167.9,101.7 153,101.7 153,101.4 141.8,125.7 
		141.8,134.9 171.1,134.9 	"/>
	<path class="st3" d="M120.8,171.2l9.3-4.2c-0.6-1.8-1.9-4.5-4.2-6.9L120.8,171.2L120.8,171.2z"/>
	<path class="st3" d="M190.2,212.5c11.7,0,18.3-4,24.3-9.1v-22h-21.1v9.5H204v6.8c-1.2,1.2-5.6,4.4-13.3,4.4c-10,0-17.6-7-17.6-18.3
		c0-10.3,6.8-18.4,17.6-18.4c7.9,0,12.7,4.3,14.4,6.1l7.1-7.3c-2.9-3.4-10.2-9.2-21.9-9.2c-16.9,0-28.8,12.9-28.8,28.8
		C161.3,201.2,174.5,212.5,190.2,212.5z"/>
	<path class="st3" d="M119.5,196.4c0,3.6-2.5,5.7-6.6,5.7c-2.2,0-4-0.7-5.5-1.7l-4.6,9.9c2.5,1.3,5.6,2.2,9.4,2.2
		c11.6,0,18.6-7.2,18.6-16.9c0-9.4-7.2-13.3-13.7-16.3l-4.5,9.8C116.5,191,119.5,193,119.5,196.4z"/>
	<path class="st4" d="M245.8,79.3l-14.6,41.1l8.6,7.2l2.4-7h18.9l4.8,14.3h11.3l-19.7-55.6H245.8z M245.2,111.3l6.4-20l6.5,20H245.2
		z"/>
	<path class="st4" d="M305.8,135.9c8.1,0,13.7-2.8,17-5.2l-3.2-9.8c-2.6,1.8-7.8,4.5-13.8,4.5c-10.1,0-17.3-7.7-17.3-18.4
		c0-10.5,7.2-18.4,17.3-18.4c5.6,0,10.6,2.5,13.3,4.4l3.2-9.9c-3.6-2.6-9.1-5.1-16.5-5.1c-16.8,0-29,12.5-29,28.8
		C276.8,123.4,288.4,135.9,305.8,135.9z"/>
	<polygon class="st4" points="107.5,17 116.5,24.6 125.1,1 112.8,1 	"/>
	<polygon class="st4" points="341,134.9 352.2,134.9 352.2,124.1 341,108.3 	"/>
	<polygon class="st4" points="131.8,37.3 143,46.7 143,1 131.8,1 	"/>
	<path class="st4" d="M198.7,79.3H182l0.2,0.2l11.4,9.5h4.2c5.1,0,8.2,2.8,8.2,7.2c0,1-0.2,1.9-0.5,2.7l8.6,7.2
		c2.1-2.8,3.3-6.3,3.3-10.4C217.5,86.6,210.8,79.3,198.7,79.3z"/>
	<path class="st4" d="M179.7,57.6c8.1,0,13.7-2.8,17-5.2l-3.2-9.8c-2.6,1.8-7.8,4.5-13.8,4.5c-10.1,0-17.3-7.7-17.3-18.3
		c0-10.5,7.2-18.3,17.3-18.3c5.6,0,10.6,2.5,13.3,4.4l3.2-9.8c-3.6-2.6-9.1-5.1-16.5-5.1c-16.7,0-29,12.5-29,28.8
		C150.7,45.2,162.3,57.6,179.7,57.6z"/>
	<polygon class="st5" points="490.3,117.2 466.6,79.3 455.2,79.3 455.2,134.9 466.3,134.9 466.3,97.2 490.2,134.9 501.4,134.9 
		501.4,79.3 490.3,79.3 	"/>
	<path class="st5" d="M448.2,107.1c0-16.2-11.8-28.8-28.9-28.8c-17.1,0-28.9,12.6-28.9,28.8c0,16.4,11.8,28.8,28.9,28.8
		C436.4,135.9,448.2,123.4,448.2,107.1z M402.1,107.1c0-10.5,7.2-18.4,17.2-18.4c10,0,17.2,7.9,17.2,18.4c0,10.6-7.2,18.4-17.2,18.4
		C409.3,125.4,402.1,117.7,402.1,107.1z"/>
	<rect x="372.1" y="79.3" class="st5" width="11.2" height="55.6"/>
	<polygon class="st5" points="352.2,124.1 352.2,89.3 365.2,89.3 365.2,79.3 328,79.3 328,89.3 341,89.3 341,108.3 	"/>
	<path class="st6" d="M37.6,183.7c0-11.7-6.8-18-17.4-18h-4v36.1h4C30.8,201.8,37.6,195.7,37.6,183.7z"/>
	<path class="st6" d="M436.5,107.1c0-10.5-7.2-18.4-17.2-18.4c-10,0-17.2,7.9-17.2,18.4c0,10.6,7.2,18.4,17.2,18.4
		C429.3,125.4,436.5,117.7,436.5,107.1z"/>
	<path class="st6" d="M193.1,103.6h5.2c3.2,0,6.1-1.6,7.2-4.7c0.3-0.8,0.5-1.7,0.5-2.7c0-4.4-3.1-7.2-8.2-7.2h-4.2h-0.5V103.6z"/>
	<polygon class="st6" points="245.2,111.3 258.2,111.3 251.7,91.3 	"/>
</g>
</svg>
