<svg xmlns="http://www.w3.org/2000/svg" width="800" height="200" viewBox="0 0 800 200"><g fill="none" fill-rule="evenodd"><rect width="800" height="200" fill="#F9FCFD"/><g transform="translate(34 32)"><rect width="206" height="130" x="1" y="1" stroke="#787696" stroke-width="2" rx="8"/><rect width="208" height="2" y="16" fill="#787696"/><g fill="#787696" transform="translate(7 6)"><circle cx="3" cy="3" r="3"/><circle cx="13" cy="3" r="3"/><circle cx="23" cy="3" r="3"/></g><rect width="163" height="8" x="40" y="5" fill="#8330FF" rx="4"/><g fill="#787696" fill-rule="nonzero" opacity=".248" transform="translate(66 35)"><path d="M38 57.3930625C34.2 57.3930625 30.6621406 56.3447969 27.5171953 54.2482656 24.3723984 52.1517344 22.0137266 49.5310703 20.4413281 46.2552031L4.71719531 19C1.44132813 24.8965312 0 31.3171953 0 38 0 47.5654609 3.14479687 55.8206641 9.30346875 62.8965312 15.4621406 69.9723984 23.1930625 74.1654609 32.3656094 75.6069375L43.3725469 56.4758672C42.3241328 56.8689297 40.3586719 57.3930625 38 57.3930625M26.0758672 22.2758672C29.6137266 19.5241328 33.5447969 18.3447969 38 18.3447969L70.6276016 18.3447969C67.2206641 12.5793359 62.6345391 8.386125 56.8689297 5.11025781 51.1034687 1.70346875 44.8137266 0 38 0 32.1034687 0 26.4689297 1.31040625 21.3586719 3.8 16.2484141 6.28959375 11.4 9.95867188 7.9930625 14.6758672L19 32.7586719C20.0482656 28.5654609 22.5378594 25.0276016 26.0758672 22.2758672"/><path d="M73.1171953,23.7171953 L51.1034688,23.7171953 C54.9034688,27.5171953 57.5241328,32.4965313 57.5241328,38 C57.5241328,42.0621406 56.3447969,45.7310703 54.1171953,49.1378594 L38.3930625,76 C48.7447969,75.8689297 57.6552031,72.2 64.9930625,64.7310703 C72.3309219,57.2621406 76,48.3517344 76,38 C76,33.1517344 75.2137266,28.0413281 73.1171953,23.7171953"/><path d="M38,23.5862734 C45.8621406,23.5862734 52.4137266,30.1380078 52.4137266,38 C52.4137266,45.8619922 45.8621406,52.4137266 38,52.4137266 C30.1378594,52.4137266 23.5862734,45.8621406 23.5862734,38 C23.5862734,30.1378594 30.1378594,23.5862734 38,23.5862734"/></g><g transform="translate(234 17)"><path fill="#787696" fill-rule="nonzero" d="M348.379991,-7.12802262 L349.250883,-6.6365484 L361.241473,0.130152062 L362.789726,1.003884 L361.239047,1.87330145 L349.229661,8.6065879 L348.357403,9.09563521 L347.379309,7.35112069 L348.251566,6.86207338 L356.93,1.995 L348.750669,1.98433907 L0.868172967,1.49999903 L-0.131826064,1.49860678 L-0.129041563,-0.501391281 L0.870957468,-0.499999031 L348.753454,-0.0156589934 L356.936,-0.004 L348.267934,-4.89476415 L347.397042,-5.38623837 L348.379991,-7.12802262 Z" opacity=".503" transform="translate(0 20)"/><g transform="translate(79.37)"><rect width="203" height="40" fill="#F9FCFD"/><text fill="#8330FF" fill-rule="nonzero" font-family="SpaceGrotesk-Light_Medium, Space Grotesk" font-size="20" font-weight="400" transform="translate(11.5 7)">
                            <tspan x=".19" y="20">/posts/hello-world</tspan>
                        </text></g></g><g transform="translate(620.5)"><g stroke="#787696" stroke-linejoin="round" stroke-width="2"><path d="M106,8.5 L106,123.5 C106,128.19442 82.2710917,132 53,132 C23.7289083,132 0,128.19442 0,123.5 L0,123.5 L0,8.5 C1.98951966e-13,13.1944204 23.7289083,17 53,17 C81.9783808,17 105.524868,13.2701514 105.9929,8.64056304 L106,8.5 L106,8.5 Z"/><ellipse cx="53" cy="8.5" stroke-linecap="round" rx="53" ry="8.5"/><path stroke-linecap="round" d="M0 37.5C0 42.1944204 23.7289083 46 53 46 82.2710917 46 106 42.1944204 106 37.5M0 66.5C0 71.1944204 23.7289083 75 53 75 82.2710917 75 106 71.1944204 106 66.5M0 95.5C0 100.19442 23.7289083 104 53 104 82.2710917 104 106 100.19442 106 95.5"/></g><g transform="translate(12.5 54.75)"><rect width="81" height="40" fill="#F9FCFD"/><text fill="#8330FF" fill-rule="nonzero" font-family="SpaceGrotesk-Light_Medium, Space Grotesk" font-size="20" font-weight="400" transform="translate(11.5 7)">
                            <tspan x=".103" y="20">NGINX</tspan>
                        </text></g></g></g><path fill="#100C53" d="M231,100 L622,100 C626.418278,100 630,103.581722 630,108 L630,127.08184 L630,127.08184 C640.633959,129.15559 653.833836,125.799691 669.599629,117.014144 C660.581104,133.906321 647.381228,143.703428 630,146.405463 L630,156 C630,160.418278 626.418278,164 622,164 L231,164 C226.581722,164 223,160.418278 223,156 L223,108 C223,103.581722 226.581722,100 231,100 Z"/><text fill="#46ECA1" font-family="SpaceMono-Bold, Space Mono" font-size="20" font-weight="bold">
            <tspan x="278.5" y="138">posts -&gt;</tspan>
        </text><text fill="#46ECA1" font-family="SpaceMono-Bold, Space Mono" font-size="20" font-weight="bold">
            <tspan x="413.5" y="138">hello-world.html</tspan>
        </text><g transform="translate(238 114)"><rect width="36" height="36"/><path fill="#46ECA1" fill-rule="nonzero" d="M15.75 11.37 8.58 11.37C7.85499416 11.3580268 7.14525187 11.5788355 6.555 12 7.13970542 11.5628166 7.84992564 11.3260765 8.58 11.325L15.75 11.325 15.75 11.37ZM29.4450021 14.745 29.4450021 25.365C29.4457841 25.8971831 29.2290256 26.4065657 28.845 26.775 28.4711421 27.1492176 27.9639692 27.3596404 27.435 27.36L8.58 27.36C8.02124401 27.3771383 7.47961926 27.1659046 7.08 26.775 6.70578236 26.4011421 6.49535959 25.8939692 6.49497966 25.365L6.49497966 14.745C6.49381054 14.4825794 6.54479863 14.2225401 6.645 13.98 6.74917331 13.7401181 6.89663247 13.5214718 7.08 13.335 7.26928884 13.1480524 7.49356087 13.0002368 7.74 12.9 7.98277999 12.8020904 8.2433719 12.7561036 8.505 12.765L27.435 12.765C27.9605994 12.767691 28.4651892 12.9716741 28.845 13.335 29.2290256 13.7034343 29.4457841 14.2128169 29.4450021 14.745Z"/><path fill="#46ECA1" fill-rule="nonzero" d="M15.75,11.37 L8.58,11.37 C7.85499416,11.3580268 7.14525187,11.5788355 6.555,12 L6.555,10.65 C6.55979856,10.3881817 6.61057073,10.1292436 6.705,9.885 C6.81235071,9.63876387 6.96499716,9.4148824 7.155,9.225 C7.3414718,9.04163247 7.56011815,8.89417331 7.8,8.79 C8.04947125,8.69562933 8.31332075,8.64488905 8.58,8.64 L13.725,8.64 L15.75,11.37 Z"/></g><g transform="translate(373 114)"><rect width="36" height="36"/><polygon fill="#46ECA1" fill-rule="nonzero" points="26.805 15.75 18.195 15.75 18.195 7.125"/><path fill="#46ECA1" fill-rule="nonzero" d="M27.69,17.13 L27.69,27.63 C27.701424,28.1906287 27.484913,28.7319061 27.09,29.13 C26.6924747,29.5275138 26.152163,29.7490416 25.59,29.7450543 L10.38,29.7450543 C9.81783699,29.7490416 9.2775253,29.5275138 8.88,29.13 C8.48508699,28.7319061 8.26857601,28.1906287 8.28,27.63 L8.28,8.31 C8.26857601,7.74937132 8.48508699,7.20809388 8.88,6.81 C9.2775253,6.4124862 9.81783699,6.19095841 10.38,6.19494565 L16.815,6.19494565 L16.815,17.1 L27.69,17.13 Z"/></g></g></svg>