<svg xmlns="http://www.w3.org/2000/svg" xmlns:xlink="http://www.w3.org/1999/xlink" width="800" height="200" viewBox="0 0 800 200"><defs><path id="a" d="M0,0 L156,0 L156,100 C156,101.104569 155.104569,102 154,102 L2,102 C0.8954305,102 1.91162759e-15,101.104569 0,100 L0,0 L0,0 Z"/><path id="b" d="M0,0 L156,0 L156,100 C156,101.104569 155.104569,102 154,102 L2,102 C0.8954305,102 1.91162759e-15,101.104569 0,100 L0,0 L0,0 Z"/></defs><g fill="none" fill-rule="evenodd"><rect width="800" height="200" fill="#F9FCFD"/><g transform="translate(34 32)"><rect width="204" height="60" x="2" y="16" fill="#8330FF" opacity=".283"/><polygon fill="#FFF" points="32.5 77 57 41.719 68.069 53.253 76 46 89.334 59.36 108 38.485 134 74"/><circle cx="151" cy="48" r="8" fill="#FFF"/><path fill="#FFF" d="M20 66 188 66C190.209139 66 192 67.790861 192 70L192 132 192 132 16 132 16 70C16 67.790861 17.790861 66 20 66ZM16 16 192 16 192 26C192 28.209139 190.209139 30 188 30L20 30C17.790861 30 16 28.209139 16 26L16 16 16 16Z"/><g transform="translate(0 16)"><path stroke="#8330FF" stroke-width="2" d="M191 1 191 10C191 10.8284271 190.664214 11.5784271 190.12132 12.1213203 189.578427 12.6642136 188.828427 13 188 13L188 13 20 13C19.1715729 13 18.4215729 12.6642136 17.8786797 12.1213203 17.3357864 11.5784271 17 10.8284271 17 10L17 10 17 1 191 1ZM188 51C188.828427 51 189.578427 51.3357864 190.12132 51.8786797 190.664214 52.4215729 191 53.1715729 191 54L191 54 191 115 17 115 17 54C17 53.1715729 17.3357864 52.4215729 17.8786797 51.8786797 18.4215729 51.3357864 19.1715729 51 20 51L20 51Z"/><rect width="18" height="2" y="60" fill="#8330FF"/><rect width="2" height="66" x="55" y="50" fill="#8330FF"/><rect width="21" height="4" x="22" y="5" fill="#8330FF" rx="2"/><rect width="21" height="2" x="76" y="6" fill="#8330FF"/><rect width="29" height="6" x="22" y="56" fill="#8330FF"/><rect width="94" height="6" x="65" y="56" fill="#8330FF"/><rect width="66" height="6" x="65" y="65" fill="#8330FF"/><rect width="24" height="2" x="22" y="66" fill="#8330FF"/><polygon fill="#8330FF" points="65 75 151 75 151 77 65 77"/><rect width="24" height="2" x="22" y="76" fill="#8330FF"/><polygon fill="#8330FF" points="65 85 151 85 151 87 65 87"/><rect width="24" height="2" x="22" y="96" fill="#8330FF"/><rect width="24" height="2" x="22" y="86" fill="#8330FF"/><polygon fill="#8330FF" points="65 95 151 95 151 97 65 97"/><rect width="29" height="2" x="22" y="71" fill="#8330FF"/><polygon fill="#8330FF" points="65 80 156 80 156 82 65 82"/><rect width="29" height="2" x="22" y="81" fill="#8330FF"/><polygon fill="#8330FF" points="65 90 156 90 156 92 65 92"/><rect width="29" height="2" x="22" y="91" fill="#8330FF"/><polygon fill="#8330FF" points="65 104 156 104 156 106 65 106"/><rect width="21" height="2" x="105" y="6" fill="#8330FF"/><rect width="21" height="2" x="134" y="6" fill="#8330FF"/><rect width="21" height="2" x="163" y="6" fill="#8330FF"/><rect width="18" height="2" x="190" y="60" fill="#8330FF"/><polygon fill="#8330FF" points="65 109 151 109 151 111 65 111"/></g><rect width="206" height="130" x="1" y="1" stroke="#787696" stroke-width="2" rx="8"/><rect width="208" height="2" y="16" fill="#787696"/><g fill="#787696" transform="translate(7 6)"><circle cx="3" cy="3" r="3"/><circle cx="13" cy="3" r="3"/><circle cx="23" cy="3" r="3"/></g><g transform="translate(234 17)"><path fill="#787696" fill-rule="nonzero" d="M243.884621,-7.13463811 L244.755233,-6.64266806 L256.741969,0.130859138 L258.289723,1.00547256 L256.738549,1.87400686 L244.725331,8.60045369 L243.852795,9.08900423 L242.875694,7.34393304 L243.74823,6.8553825 L252.429,1.994 L244.250943,1.97793481 L0.615188077,1.49999808 L-0.384809999,1.49803639 L-0.380886636,-0.501959758 L0.61911144,-0.499998076 L244.254866,-0.0220613401 L252.435,-0.005 L243.771293,-4.90144381 L242.900681,-5.39341386 L243.884621,-7.13463811 Z" opacity=".503" transform="translate(0 20)"/><g transform="translate(30.867)"><rect width="195" height="40" fill="#F9FCFD"/><text fill="#8330FF" fill-rule="nonzero" font-family="SpaceGrotesk-Light_Medium, Space Grotesk" font-size="20" font-weight="400" transform="translate(11.5 7)">
                            <tspan x=".007" y="20">Nutzerinteraktion</tspan>
                        </text></g></g></g><path fill="#F9FCFD" fill-rule="nonzero" d="M255.44,83.3 L250.24,74.46 C253.95954,70.423041 254.593445,64.4253233 251.8,59.7 C249.226847,55.2656063 244.236533,52.8170804 239.154735,53.4955289 C234.072937,54.1739774 229.899735,57.845884 228.58,62.8 C228.160733,64.3980317 228.058811,66.0627567 228.28,67.7 C228.496732,69.3383239 229.040861,70.9162991 229.88,72.34 C232.194049,76.2493479 236.417364,78.6278213 240.96,78.58 C241.874869,78.5790444 242.786913,78.4784513 243.68,78.28 L248.86,87.12 C249.253729,87.7711918 249.884612,88.244354 250.62,88.44 C251.35773,88.6325015 252.14169,88.5246171 252.8,88.14 L254.5,87.18 C255.813484,86.3554415 256.230467,84.6342786 255.44,83.3 L255.44,83.3 Z"/><g fill="#0000C2" fill-rule="nonzero" transform="translate(228.166 53.384)"><path d="M27.2737954,29.9163734 L22.0737954,21.0763734 C25.7933353,17.0394144 26.4272404,11.0416966 23.6337954,6.31637339 C21.0606423,1.88197967 16.0703283,-0.566546186 10.9885301,0.111902316 C5.906732,0.790350819 1.73352997,4.46225737 0.413795446,9.41637339 C-0.00547194493,11.0144051 -0.107393885,12.6791301 0.113795446,14.3163734 C0.330527364,15.9546973 0.874656725,17.5326725 1.71379545,18.9563734 C4.02784487,22.8657213 8.25115975,25.2441947 12.7937954,25.1963734 C13.7086647,25.1954178 14.6207088,25.0948247 15.5137954,24.8963734 L20.6937954,33.7363734 C21.0875243,34.3875652 21.7184073,34.8607274 22.4537954,35.0563734 C23.1915254,35.2488749 23.9754855,35.1409904 24.6337954,34.7563734 L26.3337954,33.7963734 C27.6472796,32.9718149 28.0642623,31.250652 27.2737954,29.9163734 L27.2737954,29.9163734 Z M3.27379545,18.0763734 C2.56019129,16.8444897 2.09158578,15.4862129 1.89379545,14.0763734 C1.70957337,12.6926255 1.79789955,11.2862009 2.15379545,9.93637339 C2.51622606,8.59110908 3.13412556,7.32814967 3.97379545,6.21637339 C4.82683624,5.09165326 5.89399704,4.14684211 7.11379545,3.43637339 C8.75963948,2.49669102 10.6186721,1.99406368 12.5137954,1.97637339 C16.341896,1.97964639 19.8844313,4.00178027 21.8337954,7.29637339 C24.2595058,11.4942173 23.553251,16.799341 20.1137954,20.2163734 C19.4519996,20.8586359 18.7130124,21.4162353 17.9137954,21.8763734 C17.125416,22.3275358 16.2861928,22.6833664 15.4137954,22.9363734 C10.7134721,24.2046323 5.73924408,22.2263387 3.19379545,18.0763734 L3.27379545,18.0763734 Z M25.2737954,32.2563734 L23.5737954,33.2163734 C23.3321764,33.3581531 23.0428797,33.3943152 22.7737954,33.3163734 C22.5064842,33.2571217 22.275159,33.0908567 22.1337954,32.8563734 L17.0937954,24.3963734 C17.4007222,24.2867823 17.7012024,24.1599129 17.9937954,24.0163734 L18.8937954,23.5563734 C19.4888532,23.2231177 20.0513197,22.834748 20.5737954,22.3963734 L25.5537954,30.8563734 C25.6935543,31.083564 25.736756,31.3571745 25.6737954,31.6163734 C25.6374093,31.8670011 25.5090868,32.0951299 25.3137954,32.2563734 L25.2737954,32.2563734 Z"/><path d="M17.1937954,12.6763734 C17.1913187,12.9247247 17.0906552,13.1620028 16.9137954,13.3363734 C16.740017,13.5117996 16.5005298,13.606143 16.2537954,13.5963734 L13.4937954,13.5963734 L13.4937954,16.3363734 C13.4913187,16.5847247 13.3906552,16.8220028 13.2137954,16.9963734 C13.0423338,17.1628828 12.8128026,17.2561299 12.5737954,17.2563734 C12.329774,17.2514621 12.0956028,17.1592129 11.9137954,16.9963734 C11.7423877,16.8199741 11.6487521,16.5822837 11.6537954,16.3363734 L11.6537954,13.6163734 L8.81379545,13.6163734 C8.57304802,13.625496 8.33997233,13.530809 8.17379545,13.3563734 C7.96976597,13.1876952 7.84632032,12.9408039 7.83378085,12.6763734 C7.83237885,12.4330338 7.93411903,12.2004848 8.11379545,12.0363734 C8.28072759,11.8606765 8.5114641,11.7597293 8.75379545,11.7563734 L11.5337954,11.7563734 L11.5337954,9.03637339 C11.5368458,8.78404424 11.6456902,8.54458667 11.8337954,8.37637339 C12.0035583,8.19910959 12.2383533,8.09886837 12.4837954,8.09886837 C12.7292376,8.09886837 12.9640326,8.19910959 13.1337954,8.37637339 C13.2998377,8.55618769 13.3925857,8.79162506 13.3937954,9.03637339 L13.3937954,11.7563734 L16.1737954,11.7563734 L16.5337954,11.7563734 C16.6552239,11.7958439 16.7651061,11.8645203 16.8537954,11.9563734 C16.9486295,12.0386733 17.0238063,12.1411872 17.0737954,12.2563734 C17.1400314,12.3875111 17.1807532,12.5300375 17.1937954,12.6763734 L17.1937954,12.6763734 Z"/></g><g transform="translate(552.5 32)"><path fill="#8330FF" d="M2,16 L206,16 L206,129 C206,129.552285 205.552285,130 205,130 L3,130 C2.44771525,130 2,129.552285 2,129 L2,16 L2,16 Z" opacity=".93"/><g transform="translate(26 22)"><use xlink:href="#a" fill="#F9FCFD"/><mask id="c" fill="#fff"><use xlink:href="#b"/></mask><use xlink:href="#b" fill="#8330FF" opacity=".504"/><circle cx="132.871" cy="39.082" r="11.839" fill="#FFF" mask="url(#c)"/><polygon fill="#FFF" points="-18.5 108 17.758 32.887 34.139 57.441 45.877 42.001 65.61 70.443 93.234 26 135.298 108" mask="url(#c)"/></g><path stroke="#8330FF" stroke-linejoin="round" stroke-width="2" d="M26,22 L182,22 L182,122 C182,123.104569 181.104569,124 180,124 L28,124 C26.8954305,124 26,123.104569 26,122 L26,22 L26,22 Z"/><path fill="#F9FCFD" fill-rule="nonzero" d="M195.301071 84.0877687C195.273043 83.9679683 195.273043 83.843183 195.301071 83.7233826 195.341745 83.6126744 195.410651 83.5148802 195.500764 83.4399712L199.49462 79.3912371 190.208906 79.3912371C189.969034 79.4023017 189.735146 79.3133658 189.561625 79.1451089 189.388104 78.9768519 189.290071 78.7439347 189.290315 78.5005156 189.310697 77.995027 189.710269 77.5899644 190.208906 77.5693067L199.574497 77.5693067 195.580641 73.5205726C195.401241 73.3544617 195.299657 73.1190795 195.301071 72.8727751 195.298972 72.6204537 195.400206 72.3785526 195.580641 72.204734 195.671881 72.1090491 195.790766 72.0452456 195.920119 72.022541 196.031336 71.9924863 196.148379 71.9924863 196.259597 72.022541 196.377773 71.9941278 196.500867 71.9941278 196.619044 72.022541 196.736468 72.0584488 196.840723 72.1289076 196.918583 72.2249777L202.450073 77.8324744C202.616326 78.0060251 202.70943 78.2383528 202.70967 78.4802719 202.70477 78.7272664 202.612662 78.9642906 202.450073 79.148313L196.918583 84.7558098C196.837915 84.8534415 196.735145 84.9298412 196.619044 84.9784902 196.494154 85.0071699 196.364517 85.0071699 196.239627 84.9784902 196.114015 84.9996328 195.985823 84.9996328 195.860211 84.9784902 195.743934 84.9208682 195.641651 84.8379169 195.560672 84.7355661 195.386504 84.5673646 195.291963 84.3314492 195.301071 84.0877687ZM189.259597 23.022541C189.377773 22.9941278 189.500867 22.9941278 189.619044 23.022541 189.736468 23.0584488 189.840723 23.1289076 189.918583 23.2249777L194.49505 27.863 199.071138 23.2249777C199.129533 23.1529251 199.202775 23.0952789 199.285285 23.0558104L199.370677 23.022541C199.488854 22.9941278 199.611948 22.9941278 199.730124 23.022541 199.841341 22.9924863 199.958384 22.9924863 200.069602 23.022541 200.198955 23.0452456 200.317839 23.1090491 200.40908 23.204734 200.589515 23.3785526 200.690748 23.6204537 200.688649 23.8727751 200.690064 24.1190795 200.58848 24.3544617 200.40908 24.5205726L200.40908 24.5205726 195.707555 29.4180209C195.70894 29.4386792 195.70965 29.45944 195.70967 29.4802719L195.70105 29.576 200.488957 34.4399712C200.556541 34.496153 200.612197 34.5652076 200.65296 34.6429286L200.688649 34.7233826C200.716677 34.843183 200.716677 34.9679683 200.688649 35.0877687 200.697758 35.3314492 200.603217 35.5673646 200.429049 35.7355661 200.34807 35.8379169 200.245786 35.9208682 200.12951 35.9784902 200.003897 35.9996328 199.875706 35.9996328 199.750093 35.9784902 199.625203 36.0071699 199.495567 36.0071699 199.370677 35.9784902 199.254575 35.9298412 199.151806 35.8534415 199.071138 35.7558098L199.071138 35.7558098 194.49405 31.116 189.918583 35.7558098C189.837915 35.8534415 189.735145 35.9298412 189.619044 35.9784902 189.494154 36.0071699 189.364517 36.0071699 189.239627 35.9784902 189.114015 35.9996328 188.985823 35.9996328 188.860211 35.9784902 188.743934 35.9208682 188.641651 35.8379169 188.560672 35.7355661 188.386504 35.5673646 188.291963 35.3314492 188.301071 35.0877687 188.273043 34.9679683 188.273043 34.843183 188.301071 34.7233826 188.341745 34.6126744 188.410651 34.5148802 188.500764 34.4399712L193.28705 29.577 193.28005 29.4802719C193.280071 29.459104 193.280803 29.4380095 193.282233 29.4170214L188.580641 24.5205726C188.401241 24.3544617 188.299657 24.1190795 188.301071 23.8727751 188.298972 23.6204537 188.400206 23.3785526 188.580641 23.204734 188.671881 23.1090491 188.790766 23.0452456 188.920119 23.022541 189.031336 22.9924863 189.148379 22.9924863 189.259597 23.022541Z"/><path fill="#F9FCFD" fill-rule="nonzero" d="M11.3010712,84.0877687 C11.2730432,83.9679683 11.2730432,83.843183 11.3010712,83.7233826 C11.3417448,83.6126744 11.4106509,83.5148802 11.500764,83.4399712 L15.4946195,79.3912371 L6.20890566,79.3912371 C5.96903396,79.4023017 5.73514576,79.3133658 5.56162508,79.1451089 C5.3881044,78.9768519 5.29007069,78.7439347 5.29031517,78.5005156 C5.31069655,77.995027 5.71026871,77.5899644 6.20890566,77.5693067 L15.5744966,77.5693067 L11.5806411,73.5205726 C11.4012407,73.3544617 11.2996568,73.1190795 11.3010712,72.8727751 C11.2989722,72.6204537 11.4002059,72.3785526 11.5806411,72.204734 C11.6718814,72.1090491 11.7907656,72.0452456 11.9201188,72.022541 C12.0313362,71.9924863 12.1483792,71.9924863 12.2595965,72.022541 C12.3777731,71.9941278 12.500867,71.9941278 12.6190435,72.022541 C12.7364675,72.0584488 12.8407233,72.1289076 12.9185827,72.2249777 L18.4500726,77.8324744 C18.6163263,78.0060251 18.7094301,78.2383528 18.7096705,78.4802719 C18.7047695,78.7272664 18.612662,78.9642906 18.4500726,79.148313 L12.9185827,84.7558098 C12.8379147,84.8534415 12.7351454,84.9298412 12.6190435,84.9784902 C12.4941536,85.0071699 12.3645172,85.0071699 12.2396273,84.9784902 C12.114015,84.9996328 11.9858232,84.9996328 11.860211,84.9784902 C11.7439342,84.9208682 11.6416505,84.8379169 11.5606718,84.7355661 C11.3865041,84.5673646 11.2919626,84.3314492 11.3010712,84.0877687 Z" transform="matrix(-1 0 0 1 24 0)"/><rect width="206" height="130" x="1" y="1" stroke="#787696" stroke-width="2" rx="8"/><rect width="208" height="2" y="16" fill="#787696"/><g fill="#787696" transform="translate(7 6)"><circle cx="3" cy="3" r="3"/><circle cx="13" cy="3" r="3"/><circle cx="23" cy="3" r="3"/></g></g><text fill="#100C53" font-family="SpaceGrotesk-Light_Medium, Space Grotesk" font-size="16" font-weight="400">
            <tspan x="324.35" y="48">JavaScript hört auf</tspan>
        </text><text fill="#100C53" font-family="SpaceGrotesk-Light_Medium, Space Grotesk" font-size="16" font-weight="400">
            <tspan x="298.05" y="105">Und wandelt das HTML um</tspan>
        </text></g></svg>