<svg xmlns="http://www.w3.org/2000/svg" width="800" height="200" viewBox="0 0 800 200"><g fill="none" fill-rule="evenodd"><rect width="800" height="200" fill="#F9FCFD"/><g transform="translate(34 32)"><rect width="206" height="130" x="1" y="1" stroke="#787696" stroke-width="2" rx="8"/><rect width="208" height="2" y="16" fill="#787696"/><g fill="#787696" transform="translate(7 6)"><circle cx="3" cy="3" r="3"/><circle cx="13" cy="3" r="3"/><circle cx="23" cy="3" r="3"/></g><g transform="translate(6 22)"><rect width="39" height="4" fill="#8330FF"/><rect width="39" height="4" y="48" fill="#8330FF"/><rect width="39" height="4" y="98" fill="#8330FF" transform="matrix(1 0 0 -1 0 200)"/><rect width="4" height="4" x="1" y="57" stroke="#8330FF" stroke-width="2"/><rect width="55" height="4" y="90" fill="#8330FF" transform="matrix(1 0 0 -1 0 184)"/><rect width="39" height="4" y="82" fill="#8330FF" transform="matrix(1 0 0 -1 0 168)"/><rect width="39" height="4" x="12" y="24" fill="#8330FF"/><rect width="55" height="4" y="8" fill="#8330FF"/><rect width="55" height="4" y="66" fill="#8330FF"/><rect width="55" height="4" x="12" y="32" fill="#8330FF"/><rect width="31" height="4" y="16" fill="#8330FF"/><rect width="31" height="4" y="74" fill="#8330FF"/><rect width="31" height="4" x="12" y="40" fill="#8330FF"/></g><g transform="translate(234 76)"><path fill="#787696" fill-rule="nonzero" d="M348.379991,-7.12802262 L349.250883,-6.6365484 L361.241473,0.130152062 L362.789726,1.003884 L361.239047,1.87330145 L349.229661,8.6065879 L348.357403,9.09563521 L347.379309,7.35112069 L348.251566,6.86207338 L356.93,1.995 L348.750669,1.98433907 L0.868172967,1.49999903 L-0.131826064,1.49860678 L-0.129041563,-0.501391281 L0.870957468,-0.499999031 L348.753454,-0.0156589934 L356.936,-0.004 L348.267934,-4.89476415 L347.397042,-5.38623837 L348.379991,-7.12802262 Z" opacity=".503" transform="matrix(-1 0 0 1 360 20)"/><g transform="translate(43.87)"><rect width="274" height="40" fill="#F9FCFD"/><text fill="#8330FF" fill-rule="nonzero" font-family="SpaceGrotesk-Light_Medium, Space Grotesk" font-size="20" font-weight="400" transform="translate(11.5 7)">
                            <tspan x=".117" y="20">CSS, FONTS, MEDIEN, USW.</tspan>
                        </text></g></g><g transform="translate(620.5)"><g stroke="#787696" stroke-linejoin="round" stroke-width="2"><path d="M106,8.5 L106,123.5 C106,128.19442 82.2710917,132 53,132 C23.7289083,132 0,128.19442 0,123.5 L0,123.5 L0,8.5 C1.98951966e-13,13.1944204 23.7289083,17 53,17 C81.9783808,17 105.524868,13.2701514 105.9929,8.64056304 L106,8.5 L106,8.5 Z"/><ellipse cx="53" cy="8.5" stroke-linecap="round" rx="53" ry="8.5"/><path stroke-linecap="round" d="M0 37.5C0 42.1944204 23.7289083 46 53 46 82.2710917 46 106 42.1944204 106 37.5M0 66.5C0 71.1944204 23.7289083 75 53 75 82.2710917 75 106 71.1944204 106 66.5M0 95.5C0 100.19442 23.7289083 104 53 104 82.2710917 104 106 100.19442 106 95.5"/></g><g transform="translate(10.95 54.75)"><rect width="84.099" height="40" fill="#F9FCFD"/><text fill="#8330FF" fill-rule="nonzero" font-family="SpaceGrotesk-Light_Medium, Space Grotesk" font-size="20" font-weight="400" transform="translate(5.55 7)">
                            <tspan x=".414" y="20">SERVER</tspan>
                        </text></g></g></g></g></svg>