<svg xmlns="http://www.w3.org/2000/svg" width="800" height="200" viewBox="0 0 800 200"><g fill="none" fill-rule="evenodd"><rect width="800" height="200" fill="#F9FCFD"/><g transform="translate(34 32)"><rect width="204" height="60" x="2" y="16" fill="#8330FF" opacity=".283"/><polygon fill="#FFF" points="32.5 77 57 41.719 68.069 53.253 76 46 89.334 59.36 108 38.485 134 74"/><circle cx="151" cy="48" r="8" fill="#FFF"/><path fill="#FFF" d="M20 66 188 66C190.209139 66 192 67.790861 192 70L192 132 192 132 16 132 16 70C16 67.790861 17.790861 66 20 66ZM16 16 192 16 192 26C192 28.209139 190.209139 30 188 30L20 30C17.790861 30 16 28.209139 16 26L16 16 16 16Z"/><g transform="translate(0 16)"><path stroke="#8330FF" stroke-width="2" d="M191 1 191 10C191 10.8284271 190.664214 11.5784271 190.12132 12.1213203 189.578427 12.6642136 188.828427 13 188 13L188 13 20 13C19.1715729 13 18.4215729 12.6642136 17.8786797 12.1213203 17.3357864 11.5784271 17 10.8284271 17 10L17 10 17 1 191 1ZM188 51C188.828427 51 189.578427 51.3357864 190.12132 51.8786797 190.664214 52.4215729 191 53.1715729 191 54L191 54 191 115 17 115 17 54C17 53.1715729 17.3357864 52.4215729 17.8786797 51.8786797 18.4215729 51.3357864 19.1715729 51 20 51L20 51Z"/><rect width="18" height="2" y="60" fill="#8330FF"/><rect width="2" height="66" x="55" y="50" fill="#8330FF"/><rect width="21" height="4" x="22" y="5" fill="#8330FF" rx="2"/><rect width="21" height="2" x="76" y="6" fill="#8330FF"/><rect width="29" height="6" x="22" y="56" fill="#8330FF"/><rect width="94" height="6" x="65" y="56" fill="#8330FF"/><rect width="66" height="6" x="65" y="65" fill="#8330FF"/><rect width="24" height="2" x="22" y="66" fill="#8330FF"/><polygon fill="#8330FF" points="65 75 151 75 151 77 65 77"/><rect width="24" height="2" x="22" y="76" fill="#8330FF"/><polygon fill="#8330FF" points="65 85 151 85 151 87 65 87"/><rect width="24" height="2" x="22" y="96" fill="#8330FF"/><rect width="24" height="2" x="22" y="86" fill="#8330FF"/><polygon fill="#8330FF" points="65 95 151 95 151 97 65 97"/><rect width="29" height="2" x="22" y="71" fill="#8330FF"/><polygon fill="#8330FF" points="65 80 156 80 156 82 65 82"/><rect width="29" height="2" x="22" y="81" fill="#8330FF"/><polygon fill="#8330FF" points="65 90 156 90 156 92 65 92"/><rect width="29" height="2" x="22" y="91" fill="#8330FF"/><polygon fill="#8330FF" points="65 104 156 104 156 106 65 106"/><rect width="21" height="2" x="105" y="6" fill="#8330FF"/><rect width="21" height="2" x="134" y="6" fill="#8330FF"/><rect width="21" height="2" x="163" y="6" fill="#8330FF"/><rect width="18" height="2" x="190" y="60" fill="#8330FF"/><polygon fill="#8330FF" points="65 109 151 109 151 111 65 111"/></g><rect width="206" height="130" x="1" y="1" stroke="#787696" stroke-width="2" rx="8"/><rect width="208" height="2" y="16" fill="#787696"/><g fill="#787696" transform="translate(7 6)"><circle cx="3" cy="3" r="3"/><circle cx="13" cy="3" r="3"/><circle cx="23" cy="3" r="3"/></g><g transform="translate(234 76)"><path fill="#787696" fill-rule="nonzero" d="M348.379991,-7.12802262 L349.250883,-6.6365484 L361.241473,0.130152062 L362.789726,1.003884 L361.239047,1.87330145 L349.229661,8.6065879 L348.357403,9.09563521 L347.379309,7.35112069 L348.251566,6.86207338 L356.93,1.995 L348.750669,1.98433907 L0.868172967,1.49999903 L-0.131826064,1.49860678 L-0.129041563,-0.501391281 L0.870957468,-0.499999031 L348.753454,-0.0156589934 L356.936,-0.004 L348.267934,-4.89476415 L347.397042,-5.38623837 L348.379991,-7.12802262 Z" opacity=".503" transform="matrix(-1 0 0 1 360 20)"/><g transform="translate(118.37)"><rect width="125" height="40" fill="#F9FCFD"/><text fill="#8330FF" fill-rule="nonzero" font-family="SpaceGrotesk-Light_Medium, Space Grotesk" font-size="20" font-weight="400" transform="translate(11.5 7)">
                            <tspan x=".413" y="20">Ressource</tspan>
                        </text></g></g><g transform="translate(234 17)"><path fill="#787696" fill-rule="nonzero" d="M348.379991,-7.12802262 L349.250883,-6.6365484 L361.241473,0.130152062 L362.789726,1.003884 L361.239047,1.87330145 L349.229661,8.6065879 L348.357403,9.09563521 L347.379309,7.35112069 L348.251566,6.86207338 L356.93,1.995 L348.750669,1.98433907 L0.868172967,1.49999903 L-0.131826064,1.49860678 L-0.129041563,-0.501391281 L0.870957468,-0.499999031 L348.753454,-0.0156589934 L356.936,-0.004 L348.267934,-4.89476415 L347.397042,-5.38623837 L348.379991,-7.12802262 Z" opacity=".503" transform="translate(0 20)"/><g transform="translate(131.87)"><rect width="98" height="40" fill="#F9FCFD"/><text fill="#8330FF" fill-rule="nonzero" font-family="SpaceGrotesk-Light_Medium, Space Grotesk" font-size="20" font-weight="400" transform="translate(11.5 7)">
                            <tspan x=".349" y="20">fetch( )</tspan>
                        </text></g></g><g transform="translate(620.5)"><g stroke="#787696" stroke-linejoin="round" stroke-width="2"><path d="M106,8.5 L106,123.5 C106,128.19442 82.2710917,132 53,132 C23.7289083,132 0,128.19442 0,123.5 L0,123.5 L0,8.5 C1.98951966e-13,13.1944204 23.7289083,17 53,17 C81.9783808,17 105.524868,13.2701514 105.9929,8.64056304 L106,8.5 L106,8.5 Z"/><ellipse cx="53" cy="8.5" stroke-linecap="round" rx="53" ry="8.5"/><path stroke-linecap="round" d="M0 37.5C0 42.1944204 23.7289083 46 53 46 82.2710917 46 106 42.1944204 106 37.5M0 66.5C0 71.1944204 23.7289083 75 53 75 82.2710917 75 106 71.1944204 106 66.5M0 95.5C0 100.19442 23.7289083 104 53 104 82.2710917 104 106 100.19442 106 95.5"/></g><g transform="translate(10.95 54.75)"><rect width="84.099" height="40" fill="#F9FCFD"/><text fill="#8330FF" fill-rule="nonzero" font-family="SpaceGrotesk-Light_Medium, Space Grotesk" font-size="20" font-weight="400" transform="translate(5.55 7)">
                            <tspan x=".414" y="20">SERVER</tspan>
                        </text></g></g></g></g></svg>