<svg xmlns="http://www.w3.org/2000/svg" width="249" height="176" viewBox="0 0 249 176"><g fill="none" fill-rule="evenodd" transform="translate(1.444 .5)"><polyline stroke="#787696" stroke-width="2" points="84.511 132 84.511 168.543 70.859 172.792"/><polyline stroke="#787696" stroke-width="2" points="166.511 132 166.511 168.543 152.859 172.792" transform="matrix(-1 0 0 1 319.37 0)"/><g transform="translate(14.556)"><rect width="206" height="130" x="1" y="1" stroke="#787696" stroke-width="2" rx="8"/><rect width="208" height="2" y="16" fill="#787696"/><g fill="#787696" transform="translate(7 6)"><circle cx="3" cy="3" r="3"/><circle cx="13" cy="3" r="3"/><circle cx="23" cy="3" r="3"/></g></g><g transform="translate(1.775 13.57)"><circle cx="83.781" cy="41.93" r="17" stroke="#100C53" stroke-width="2"/><path stroke="#100C53" stroke-linecap="round" stroke-linejoin="round" stroke-width="2" d="M100.780798,42.6818852 C102.640278,35.3486688 109.20136,29.9299129 117.009936,29.9299129 L116.551661,29.9299129 C124.360237,29.9299129 130.921319,35.3486688 132.780798,42.6818852"/><circle cx="148.781" cy="41.93" r="16" stroke="#100C53" stroke-width="2"/><ellipse cx="76.781" cy="48.43" fill="#100C53" rx="7" ry="9.5" transform="rotate(-45 76.78 48.43)"/><ellipse cx="141.781" cy="48.43" fill="#100C53" rx="7" ry="9.5" transform="rotate(-45 141.78 48.43)"/><path stroke="#100C53" stroke-linecap="round" stroke-linejoin="round" stroke-width="2" d="M66.7807983,42.6818852 C45.1453343,26.0077312 28.8106831,13.3713271 17.7768446,4.77267279 C1.22608693,-8.12530861 0,8.38604159 0,15.9079773"/><path stroke="#100C53" stroke-linecap="round" stroke-linejoin="round" stroke-width="2" d="M231.780798,42.6818852 C210.145334,26.0077312 193.810683,13.3713271 182.776845,4.77267279 C166.226087,-8.12530861 165,8.38604159 165,15.9079773" transform="matrix(-1 0 0 1 396.78 0)"/></g><path fill="#FFF" stroke="#100C53" stroke-linecap="round" stroke-linejoin="round" stroke-width="2" d="M42.9413269,117.834366 C42.9413269,117.834366 54.9118658,120.490443 67.0226208,123.711215 L68.1072262,124.001096 C68.6494016,124.146736 69.1911501,124.293383 69.7314097,124.440849 L70.809629,124.736817 C75.4705827,126.0236 79.9665213,127.362515 83.606104,128.631347 C95.1294438,132.648616 102.699068,141.053243 101.467291,157.632132 L59.6735012,146.432866 C61.2751649,129.868087 54.5156664,121.869414 42.9413269,117.834366 Z"/><path fill="#FFF" stroke="#100C53" stroke-linecap="round" stroke-linejoin="round" stroke-width="2" d="M33.6027103,115.727114 C19.0396829,112.954227 6.80011028,118.5 0,143 L42,154 C48.8001103,129.5 61.0396829,123.303724 75.6027103,126.07661 C75.6027103,126.07661 48.1657377,118.5 33.6027103,115.727114 Z"/><text fill="#100C53" font-family="SpaceMono-Bold, Space Mono" font-size="12" font-weight="bold" transform="rotate(-165 26.556 140)">
                <tspan x="11.556" y="144.5">HTML</tspan>
            </text><line x1="43.056" x2="24.556" y1="137" y2="131.5" stroke="#100C53" stroke-linecap="round" stroke-width="2"/><line x1="45.056" x2="19.056" y1="133" y2="126" stroke="#100C53" stroke-linecap="round" stroke-width="2"/><line x1="48.056" x2="31.556" y1="129" y2="124.5" stroke="#100C53" stroke-linecap="round" stroke-width="2"/><path stroke="#100C53" stroke-linecap="round" stroke-width="2" d="M71.5561369,96.2890186 C78.420616,104.800112 88.420616,109.032426 101.556137,108.985958"/><path stroke="#787696" stroke-width="2" d="M15.0561369,91.881384 C-6.29479961,111.339326 16.3061369,112.318855 28.0561369,115.07661 C31.2228035,109.632854 35.5561369,110.552106 41.0561369,117.834366"/><path stroke="#787696" stroke-linecap="round" stroke-linejoin="round" stroke-width="2" d="M222.556137,91.881384 C238.728303,104.857875 257.762986,148 233.556137,141 C228.811086,138.333333 226.438561,136 226.438561,134"/><rect width="13" height="13" x="185.556" y="99.5" fill="#46ECA1"/><rect width="13" height="13" x="172.556" y="99.5" fill="#0000C2"/><rect width="13" height="13" x="198.556" y="86.5" fill="#0000C2"/><rect width="13" height="13" x="172.556" y="112.5" fill="#46ECA1"/><rect width="13" height="13" x="185.556" y="86.5" fill="#8330FF"/><rect width="13" height="13" x="198.556" y="99.5" fill="#8330FF"/><path fill="#100C53" d="M207.7671,122.21222 C195.142346,123.842696 203.323649,111.622197 190.778939,106.986337 C206.976526,106.986337 214.058962,111.242133 212.026248,119.753726 L207.7671,122.21222 Z" transform="scale(1 -1) rotate(-85 76.428 0)"/><rect width="4" height="52" x="222.556" y="112.5" fill="#FFF" stroke="#100C53" stroke-width="2" rx="2" transform="rotate(-45 224.556 138.5)"/><path stroke="#787696" stroke-linecap="round" stroke-width="2" d="M233.809823,141 C230.013397,138.333333 226.262168,138.333333 222.556137,141"/><path stroke="#787696" stroke-linecap="round" stroke-width="2" d="M233.809823,141 C230.689935,139 227.570047,140.102887 224.450159,144.308661"/><path stroke="#787696" stroke-linecap="round" stroke-width="2" d="M233.809823,141 C230.689935,139 228.814321,140.745569 228.18298,146.236707"/></g></svg>