<svg xmlns="http://www.w3.org/2000/svg" width="249" height="176" viewBox="0 0 249 176"><g fill="none" fill-rule="evenodd" transform="translate(3.22 .5)"><polyline stroke="#787696" stroke-width="2" points="82.736 132 82.736 168.543 69.083 172.792"/><polyline stroke="#787696" stroke-width="2" points="164.736 132 164.736 168.543 151.083 172.792" transform="matrix(-1 0 0 1 315.82 0)"/><g transform="translate(12.78)"><rect width="206" height="130" x="1" y="1" stroke="#787696" stroke-width="2" rx="8"/><rect width="208" height="2" y="16" fill="#787696"/><g fill="#787696" transform="translate(7 6)"><circle cx="3" cy="3" r="3"/><circle cx="13" cy="3" r="3"/><circle cx="23" cy="3" r="3"/></g></g><g transform="translate(0 13.57)"><circle cx="83.781" cy="41.93" r="17" stroke="#100C53" stroke-width="2"/><path stroke="#100C53" stroke-linecap="round" stroke-linejoin="round" stroke-width="2" d="M100.780798,42.6818852 C102.640278,35.3486688 109.20136,29.9299129 117.009936,29.9299129 L116.551661,29.9299129 C124.360237,29.9299129 130.921319,35.3486688 132.780798,42.6818852"/><circle cx="148.781" cy="41.93" r="16" stroke="#100C53" stroke-width="2"/><ellipse cx="76.781" cy="48.43" fill="#100C53" rx="7" ry="9.5" transform="rotate(-45 76.78 48.43)"/><ellipse cx="141.781" cy="48.43" fill="#100C53" rx="7" ry="9.5" transform="rotate(-45 141.78 48.43)"/><path stroke="#100C53" stroke-linecap="round" stroke-linejoin="round" stroke-width="2" d="M66.7807983,42.6818852 C45.1453343,26.0077312 28.8106831,13.3713271 17.7768446,4.77267279 C1.22608693,-8.12530861 0,8.38604159 0,15.9079773"/><path stroke="#100C53" stroke-linecap="round" stroke-linejoin="round" stroke-width="2" d="M231.780798,42.6818852 C210.145334,26.0077312 193.810683,13.3713271 182.776845,4.77267279 C166.226087,-8.12530861 165,8.38604159 165,15.9079773" transform="matrix(-1 0 0 1 396.78 0)"/></g><path fill="#FFF" stroke="#100C53" stroke-linecap="round" stroke-linejoin="round" stroke-width="2" d="M36.1659883,119.834366 C36.1659883,119.834366 48.1365273,122.490443 60.2472823,125.711215 L61.3318877,126.001096 C61.8740631,126.146736 62.4158116,126.293383 62.9560712,126.440849 L64.0342905,126.736817 C68.6952442,128.0236 73.1911828,129.362515 76.8307655,130.631347 C88.2598229,134.615748 95.7995975,142.916006 94.7204224,159.226832 L52.5257857,151.460903 C55.2820781,132.827496 48.4244574,124.107916 36.1659883,119.834366 Z"/><path fill="#FFF" stroke="#100C53" stroke-linecap="round" stroke-linejoin="round" stroke-width="2" d="M41.1659883,117.834366 C41.1659883,117.834366 53.1365273,120.490443 65.2472823,123.711215 L66.3318877,124.001096 C66.8740631,124.146736 67.4158116,124.293383 67.9560712,124.440849 L69.0342905,124.736817 C73.6952442,126.0236 78.1911828,127.362515 81.8307655,128.631347 C93.3541053,132.648616 100.92373,141.053243 99.6919526,157.632132 L57.8981626,146.432866 C59.4998264,129.868087 52.7403279,121.869414 41.1659883,117.834366 Z"/><path fill="#FFF" stroke="#100C53" stroke-linecap="round" stroke-linejoin="round" stroke-width="2" d="M48.8273718,119.727114 C34.2643443,116.954227 23.0809086,119.212784 16.2807983,143.712784 L58.2807983,154.712784 C65.0809086,130.212784 70.2177709,126.946192 84.7807983,129.719078 C84.7807983,129.719078 76.9717546,127.083592 67.5779763,124.385759 C61.4246033,122.61855 54.5912405,120.824588 48.8273718,119.727114 Z"/><text fill="#100C53" font-family="SpaceMono-Bold, Space Mono" font-size="12" font-weight="bold" transform="rotate(-165 42.78 141)">
                <tspan x="27.781" y="145.5">HTML</tspan>
            </text><line x1="59.281" x2="40.781" y1="138" y2="132.5" stroke="#100C53" stroke-linecap="round" stroke-width="2"/><line x1="61.281" x2="35.281" y1="134" y2="127" stroke="#100C53" stroke-linecap="round" stroke-width="2"/><line x1="64.281" x2="47.781" y1="130" y2="125.5" stroke="#100C53" stroke-linecap="round" stroke-width="2"/><path fill="#FFF" stroke="#100C53" stroke-linecap="round" stroke-linejoin="round" stroke-width="2" d="M33.8273718,115.727114 C19.2643443,112.954227 7.02477176,118.5 0.224661481,143 L42.2246615,154 C49.0247718,129.5 61.3466521,124.727114 75.9096795,127.5 C75.9096795,127.5 48.3903992,118.5 33.8273718,115.727114 Z"/><path stroke="#100C53" stroke-linecap="round" stroke-width="2" d="M69.7807983,96.2890186 C76.6452775,104.800112 86.6452775,109.032426 99.7807983,108.985958"/><text fill="#100C53" font-family="SpaceMono-Bold, Space Mono" font-size="12" font-weight="bold" transform="rotate(-165 30.162 140.906)">
                <tspan x="18.662" y="145.406">CSS</tspan>
            </text><path stroke="#787696" stroke-width="2" d="M13.2807983,91.881384 C-8.07013813,111.339326 14.5307983,112.318855 26.2807983,115.07661 C29.447465,109.632854 33.7807983,110.552106 39.2807983,117.834366"/><line x1="46.281" x2="27.781" y1="133" y2="127.5" stroke="#100C53" stroke-linecap="round" stroke-width="2"/><line x1="43.281" x2="24.781" y1="136" y2="130.5" stroke="#100C53" stroke-linecap="round" stroke-width="2"/><path stroke="#787696" stroke-linecap="round" stroke-linejoin="round" stroke-width="2" d="M220.780798,91.881384 C236.952964,104.857875 255.987647,148 231.780798,141 C227.035748,138.333333 224.663223,136 224.663223,134"/><line x1="49.281" x2="23.281" y1="129" y2="122" stroke="#100C53" stroke-linecap="round" stroke-width="2"/><g transform="rotate(180 104.89 62.75)"><rect width="13" height="13" x="13" y="13" fill="#46ECA1"/><rect width="13" height="13" y="13" fill="#0000C2"/><rect width="13" height="13" x="26" fill="#0000C2"/><rect width="13" height="13" y="26" fill="#46ECA1"/><rect width="13" height="13" x="13" fill="#8330FF"/><rect width="13" height="13" x="26" y="13" fill="#8330FF"/></g><line x1="52.281" x2="35.781" y1="126" y2="121.5" stroke="#100C53" stroke-linecap="round" stroke-width="2"/><path fill="#100C53" d="M205.991762,122.21222 C193.367007,123.842696 201.548311,111.622197 189.0036,106.986337 C205.201187,106.986337 212.283624,111.242133 210.25091,119.753726 L205.991762,122.21222 Z" transform="scale(1 -1) rotate(-85 74.653 0)"/><rect width="4" height="52" x="220.781" y="112.5" fill="#FFF" stroke="#100C53" stroke-width="2" rx="2" transform="rotate(-45 222.78 138.5)"/><path stroke="#787696" stroke-linecap="round" stroke-width="2" d="M232.034485,141 C228.238058,138.333333 224.48683,138.333333 220.780798,141"/><path stroke="#787696" stroke-linecap="round" stroke-width="2" d="M232.034485,141 C228.914596,139 225.794708,140.102887 222.67482,144.308661"/><path stroke="#787696" stroke-linecap="round" stroke-width="2" d="M232.034485,141 C228.914596,139 227.038982,140.745569 226.407641,146.236707"/></g></svg>