<svg xmlns="http://www.w3.org/2000/svg" width="478" height="343" viewBox="0 0 478 343"><g fill="none" fill-rule="evenodd"><rect width="478" height="343" fill="#F9FCFD"/><rect width="162" height="36" x="81" y="88" stroke="#100C53" stroke-width="2"/><g fill="#100C53" fill-rule="nonzero" transform="translate(80.828 57.578)"><path d="M8.97 5.244C8.97 4.6 8.72083333 4.04033333 8.2225 3.565 7.72416667 3.08966667 7.02266667 2.852 6.118 2.852 5.35133333 2.852 4.74566667 3.00916667 4.301 3.3235 3.85633333 3.63783333 3.634 4.06333333 3.634 4.6 3.634 4.876 3.68766667 5.12516667 3.795 5.3475 3.90233333 5.56983333 4.09016667 5.76916667 4.3585 5.9455 4.62683333 6.12183333 4.9795 6.279 5.4165 6.417 5.8535 6.555 6.40933333 6.68533333 7.084 6.808 8.77066667 7.11466667 10.0586667 7.62833333 10.948 8.349 11.8373333 9.06966667 12.282 10.1353333 12.282 11.546L12.282 11.822C12.282 12.5733333 12.1478333 13.2518333 11.8795 13.8575 11.6111667 14.4631667 11.224 14.9806667 10.718 15.41 10.212 15.8393333 9.59866667 16.169 8.878 16.399 8.15733333 16.629 7.34466667 16.744 6.44 16.744 5.382 16.744 4.4505 16.5945 3.6455 16.2955 2.8405 15.9965 2.16966667 15.5825 1.633 15.0535 1.09633333 14.5245.69 13.9035.414 13.1905.138 12.4775 0 11.6993333 0 10.856L0 10.166 3.036 10.166 3.036 10.718C3.036 11.684 3.31583333 12.4545 3.8755 13.0295 4.43516667 13.6045 5.30533333 13.892 6.486 13.892 7.406 13.892 8.08833333 13.6926667 8.533 13.294 8.97766667 12.8953333 9.2 12.42 9.2 11.868 9.2 11.6073333 9.154 11.3581667 9.062 11.1205 8.97 10.8828333 8.809 10.6681667 8.579 10.4765 8.349 10.2848333 8.03466667 10.1123333 7.636 9.959 7.23733333 9.80566667 6.73133333 9.67533333 6.118 9.568 5.30533333 9.43 4.56166667 9.24983333 3.887 9.0275 3.21233333 8.80516667 2.62583333 8.51 2.1275 8.142 1.62916667 7.774 1.242 7.314.966 6.762.69 6.21.552 5.53533333.552 4.738L.552 4.6C.552 3.94066667.686166667 3.33116667.9545 2.7715 1.22283333 2.21183333 1.5985 1.725 2.0815 1.311 2.5645.897 3.14716667.575 3.8295.345 4.51183333.115 5.27466667 0 6.118 0 7.06866667 0 7.912.134166667 8.648.4025 9.384.670833333 10.0011667 1.035 10.4995 1.495 10.9978333 1.955 11.3735 2.484 11.6265 3.082 11.8795 3.68 12.006 4.30866667 12.006 4.968L12.006 5.796 8.97 5.796 8.97 5.244ZM17.595 11.661C17.6103333 11.9983333 17.6908333 12.3088333 17.8365 12.5925 17.9821667 12.8761667 18.1815 13.1215 18.4345 13.3285 18.6875 13.5355 18.9788333 13.6965 19.3085 13.8115 19.6381667 13.9265 19.987 13.984 20.355 13.984 21.0756667 13.984 21.6276667 13.8575 22.011 13.6045 22.3943333 13.3515 22.6703333 13.0486667 22.839 12.696L25.323 14.076C25.185 14.3673333 24.9933333 14.6701667 24.748 14.9845 24.5026667 15.2988333 24.1845 15.5863333 23.7935 15.847 23.4025 16.1076667 22.9271667 16.3223333 22.3675 16.491 21.8078333 16.6596667 21.1523333 16.744 20.401 16.744 19.5423333 16.744 18.7603333 16.606 18.055 16.33 17.3496667 16.054 16.7401667 15.6553333 16.2265 15.134 15.7128333 14.6126667 15.3141667 13.9763333 15.0305 13.225 14.7468333 12.4736667 14.605 11.6226667 14.605 10.672L14.605 10.534C14.605 9.66 14.7545 8.86266667 15.0535 8.142 15.3525 7.42133333 15.7626667 6.808 16.284 6.302 16.8053333 5.796 17.4148333 5.40116667 18.1125 5.1175 18.8101667 4.83383333 19.5576667 4.692 20.355 4.692 21.3363333 4.692 22.1796667 4.8645 22.885 5.2095 23.5903333 5.5545 24.173 5.9915 24.633 6.5205 25.093 7.0495 25.4303333 7.63216667 25.645 8.2685 25.8596667 8.90483333 25.967 9.522 25.967 10.12L25.967 11.661 17.595 11.661ZM20.332 7.314C19.596 7.314 18.998 7.50183333 18.538 7.8775 18.078 8.25316667 17.779 8.68633333 17.641 9.177L23.023 9.177C22.931 8.64033333 22.6435 8.19566667 22.1605 7.843 21.6775 7.49033333 21.068 7.314 20.332 7.314Z"/><polygon points="29.049 13.662 33.051 13.662 33.051 3.082 29.187 3.082 29.187 .322 35.949 .322 35.949 13.662 39.675 13.662 39.675 16.422 29.049 16.422"/><path d="M45.747 11.661C45.7623333 11.9983333 45.8428333 12.3088333 45.9885 12.5925 46.1341667 12.8761667 46.3335 13.1215 46.5865 13.3285 46.8395 13.5355 47.1308333 13.6965 47.4605 13.8115 47.7901667 13.9265 48.139 13.984 48.507 13.984 49.2276667 13.984 49.7796667 13.8575 50.163 13.6045 50.5463333 13.3515 50.8223333 13.0486667 50.991 12.696L53.475 14.076C53.337 14.3673333 53.1453333 14.6701667 52.9 14.9845 52.6546667 15.2988333 52.3365 15.5863333 51.9455 15.847 51.5545 16.1076667 51.0791667 16.3223333 50.5195 16.491 49.9598333 16.6596667 49.3043333 16.744 48.553 16.744 47.6943333 16.744 46.9123333 16.606 46.207 16.33 45.5016667 16.054 44.8921667 15.6553333 44.3785 15.134 43.8648333 14.6126667 43.4661667 13.9763333 43.1825 13.225 42.8988333 12.4736667 42.757 11.6226667 42.757 10.672L42.757 10.534C42.757 9.66 42.9065 8.86266667 43.2055 8.142 43.5045 7.42133333 43.9146667 6.808 44.436 6.302 44.9573333 5.796 45.5668333 5.40116667 46.2645 5.1175 46.9621667 4.83383333 47.7096667 4.692 48.507 4.692 49.4883333 4.692 50.3316667 4.8645 51.037 5.2095 51.7423333 5.5545 52.325 5.9915 52.785 6.5205 53.245 7.0495 53.5823333 7.63216667 53.797 8.2685 54.0116667 8.90483333 54.119 9.522 54.119 10.12L54.119 11.661 45.747 11.661ZM48.484 7.314C47.748 7.314 47.15 7.50183333 46.69 7.8775 46.23 8.25316667 45.931 8.68633333 45.793 9.177L51.175 9.177C51.083 8.64033333 50.7955 8.19566667 50.3125 7.843 49.8295 7.49033333 49.22 7.314 48.484 7.314ZM68.402 12.236C68.1413333 13.5853333 67.5241667 14.674 66.5505 15.502 65.5768333 16.33 64.2773333 16.744 62.652 16.744 61.8086667 16.744 61.0228333 16.6136667 60.2945 16.353 59.5661667 16.0923333 58.9336667 15.7166667 58.397 15.226 57.8603333 14.7353333 57.4386667 14.1296667 57.132 13.409 56.8253333 12.6883333 56.672 11.868 56.672 10.948L56.672 10.672C56.672 9.752 56.8253333 8.924 57.132 8.188 57.4386667 7.452 57.8641667 6.82333333 58.4085 6.302 58.9528333 5.78066667 59.5891667 5.382 60.3175 5.106 61.0458333 4.83 61.824 4.692 62.652 4.692 64.2466667 4.692 65.5385 5.106 66.5275 5.934 67.5165 6.762 68.1413333 7.85066667 68.402 9.2L65.55 9.936C65.458 9.26133333 65.1666667 8.67866667 64.676 8.188 64.1853333 7.69733333 63.4953333 7.452 62.606 7.452 62.192 7.452 61.801 7.52866667 61.433 7.682 61.065 7.83533333 60.743 8.05383333 60.467 8.3375 60.191 8.62116667 59.9725 8.96616667 59.8115 9.3725 59.6505 9.77883333 59.57 10.235 59.57 10.741L59.57 10.879C59.57 11.385 59.6505 11.8335 59.8115 12.2245 59.9725 12.6155 60.191 12.9413333 60.467 13.202 60.743 13.4626667 61.065 13.6581667 61.433 13.7885 61.801 13.9188333 62.192 13.984 62.606 13.984 63.4953333 13.984 64.1738333 13.7616667 64.6415 13.317 65.1091667 12.8723333 65.412 12.2743333 65.55 11.523L68.402 12.236ZM71.024 5.014 74.405 5.014 74.405.322 77.303.322 77.303 5.014 81.42 5.014 81.42 7.774 77.303 7.774 77.303 12.972C77.303 13.432 77.51 13.662 77.924 13.662L81.006 13.662 81.006 16.422 76.176 16.422C75.6546667 16.422 75.2291667 16.2533333 74.8995 15.916 74.5698333 15.5786667 74.405 15.1493333 74.405 14.628L74.405 7.774 71.024 7.774 71.024 5.014ZM96.6 10.856C96.6 11.8066667 96.439 12.6461667 96.117 13.3745 95.795 14.1028333 95.358 14.7161667 94.806 15.2145 94.254 15.7128333 93.6215 16.0923333 92.9085 16.353 92.1955 16.6136667 91.448 16.744 90.666 16.744 89.884 16.744 89.1365 16.6136667 88.4235 16.353 87.7105 16.0923333 87.078 15.7128333 86.526 15.2145 85.974 14.7161667 85.537 14.1028333 85.215 13.3745 84.893 12.6461667 84.732 11.8066667 84.732 10.856L84.732 10.58C84.732 9.64466667 84.893 8.81283333 85.215 8.0845 85.537 7.35616667 85.974 6.739 86.526 6.233 87.078 5.727 87.7105 5.34366667 88.4235 5.083 89.1365 4.82233333 89.884 4.692 90.666 4.692 91.448 4.692 92.1955 4.82233333 92.9085 5.083 93.6215 5.34366667 94.254 5.727 94.806 6.233 95.358 6.739 95.795 7.35616667 96.117 8.0845 96.439 8.81283333 96.6 9.64466667 96.6 10.58L96.6 10.856ZM90.666 13.984C91.08 13.984 91.471 13.915 91.839 13.777 92.207 13.639 92.529 13.4396667 92.805 13.179 93.081 12.9183333 93.2995 12.6001667 93.4605 12.2245 93.6215 11.8488333 93.702 11.4233333 93.702 10.948L93.702 10.488C93.702 10.0126667 93.6215 9.58716667 93.4605 9.2115 93.2995 8.83583333 93.081 8.51766667 92.805 8.257 92.529 7.99633333 92.207 7.797 91.839 7.659 91.471 7.521 91.08 7.452 90.666 7.452 90.252 7.452 89.861 7.521 89.493 7.659 89.125 7.797 88.803 7.99633333 88.527 8.257 88.251 8.51766667 88.0325 8.83583333 87.8715 9.2115 87.7105 9.58716667 87.63 10.0126667 87.63 10.488L87.63 10.948C87.63 11.4233333 87.7105 11.8488333 87.8715 12.2245 88.0325 12.6001667 88.251 12.9183333 88.527 13.179 88.803 13.4396667 89.125 13.639 89.493 13.777 89.861 13.915 90.252 13.984 90.666 13.984ZM98.946 5.014 103.776 5.014 103.776 6.67 104.19 6.67C104.404667 6.04133333 104.768833 5.5545 105.2825 5.2095 105.796167 4.8645 106.413333 4.692 107.134 4.692 108.268667 4.692 109.181 5.0485 109.871 5.7615 110.561 6.4745 110.906 7.55933333 110.906 9.016L110.906 9.522 107.916 9.798 107.916 9.476C107.916 8.84733333 107.755 8.34516667 107.433 7.9695 107.111 7.59383333 106.628 7.406 105.984 7.406 105.34 7.406 104.834 7.62833333 104.466 8.073 104.098 8.51766667 103.914 9.154 103.914 9.982L103.914 13.662 106.536 13.662 106.536 16.422 98.67 16.422 98.67 13.662 101.016 13.662 101.016 7.774 98.946 7.774 98.946 5.014Z"/></g><g fill-rule="nonzero" transform="translate(91.828 93.312)"><path fill="#8330FF" d="M12.42 19.688 9.522 19.688 9.522 11.684C9.522 11.362 9.4415 11.1205 9.2805 10.9595 9.1195 10.7985 8.90866667 10.718 8.648 10.718 8.34133333 10.718 8.09983333 10.81 7.9235 10.994 7.74716667 11.178 7.659 11.454 7.659 11.822L7.659 19.688 4.761 19.688 4.761 11.684C4.761 11.362 4.67283333 11.1205 4.4965 10.9595 4.32016667 10.7985 4.10933333 10.718 3.864 10.718 3.588 10.718 3.358 10.81 3.174 10.994 2.99 11.178 2.898 11.454 2.898 11.822L2.898 19.688 0 19.688 0 8.28 2.898 8.28 2.898 9.384 3.312 9.384C3.404 8.97 3.61483333 8.62883333 3.9445 8.3605 4.27416667 8.09216667 4.70733333 7.958 5.244 7.958 5.75 7.958 6.17933333 8.09216667 6.532 8.3605 6.88466667 8.62883333 7.12233333 8.97 7.245 9.384L7.659 9.384C7.78166667 8.97 8.0385 8.62883333 8.4295 8.3605 8.8205 8.09216667 9.30733333 7.958 9.89 7.958 10.6566667 7.958 11.27 8.21483333 11.73 8.7285 12.19 9.24216667 12.42 9.95133333 12.42 10.856L12.42 19.688ZM22.425 18.032C22.1183333 18.7526667 21.689 19.2625 21.137 19.5615 20.585 19.8605 19.941 20.01 19.205 20.01 18.515 20.01 17.8671667 19.8796667 17.2615 19.619 16.6558333 19.3583333 16.123 18.975 15.663 18.469 15.203 17.963 14.8388333 17.3496667 14.5705 16.629 14.3021667 15.9083333 14.168 15.088 14.168 14.168L14.168 13.8C14.168 12.8953333 14.2983333 12.0826667 14.559 11.362 14.8196667 10.6413333 15.1723333 10.028 15.617 9.522 16.0616667 9.016 16.5791667 8.62883333 17.1695 8.3605 17.7598333 8.09216667 18.3923333 7.958 19.067 7.958 19.8796667 7.958 20.5351667 8.096 21.0335 8.372 21.5318333 8.648 21.9266667 9.07733333 22.218 9.66L22.632 9.66 22.632 8.28 25.53 8.28 25.53 16.238C25.53 16.698 25.737 16.928 26.151 16.928L26.588 16.928 26.588 19.688 24.61 19.688C24.0886667 19.688 23.6631667 19.5346667 23.3335 19.228 23.0038333 18.9213333 22.839 18.5226667 22.839 18.032L22.425 18.032ZM19.849 17.25C20.6923333 17.25 21.367 16.9701667 21.873 16.4105 22.379 15.8508333 22.632 15.088 22.632 14.122L22.632 13.846C22.632 12.88 22.379 12.1171667 21.873 11.5575 21.367 10.9978333 20.6923333 10.718 19.849 10.718 19.0056667 10.718 18.331 10.9978333 17.825 11.5575 17.319 12.1171667 17.066 12.88 17.066 13.846L17.066 14.122C17.066 15.088 17.319 15.8508333 17.825 16.4105 18.331 16.9701667 19.0056667 17.25 19.849 17.25ZM29.325 16.928 33.189 16.928 33.189 11.04 29.601 11.04 29.601 8.28 36.087 8.28 36.087 16.928 39.399 16.928 39.399 19.688 29.325 19.688 29.325 16.928ZM36.8 4.899C36.8 5.20566667 36.7425 5.49316667 36.6275 5.7615 36.5125 6.02983333 36.3553333 6.25983333 36.156 6.4515 35.9566667 6.64316667 35.7228333 6.7965 35.4545 6.9115 35.1861667 7.0265 34.9063333 7.084 34.615 7.084 34.3083333 7.084 34.0246667 7.0265 33.764 6.9115 33.5033333 6.7965 33.2733333 6.64316667 33.074 6.4515 32.8746667 6.25983333 32.7175 6.02983333 32.6025 5.7615 32.4875 5.49316667 32.43 5.20566667 32.43 4.899 32.43 4.59233333 32.4875 4.30483333 32.6025 4.0365 32.7175 3.76816667 32.8746667 3.53816667 33.074 3.3465 33.2733333 3.15483333 33.5033333 3.0015 33.764 2.8865 34.0246667 2.7715 34.3083333 2.714 34.615 2.714 34.9063333 2.714 35.1861667 2.7715 35.4545 2.8865 35.7228333 3.0015 35.9566667 3.15483333 36.156 3.3465 36.3553333 3.53816667 36.5125 3.76816667 36.6275 4.0365 36.7425 4.30483333 36.8 4.59233333 36.8 4.899ZM46.092 19.688 43.194 19.688 43.194 8.28 46.092 8.28 46.092 9.982 46.506 9.982C46.7666667 9.338 47.1883333 8.83966667 47.771 8.487 48.3536667 8.13433333 49.036 7.958 49.818 7.958 50.37 7.958 50.8875 8.04616667 51.3705 8.2225 51.8535 8.39883333 52.279 8.671 52.647 9.039 53.015 9.407 53.3025 9.87466667 53.5095 10.442 53.7165 11.0093333 53.82 11.684 53.82 12.466L53.82 19.688 50.922 19.688 50.922 13.202C50.922 12.3893333 50.7265 11.7491667 50.3355 11.2815 49.9445 10.8138333 49.381 10.58 48.645 10.58 47.7863333 10.58 47.1461667 10.8675 46.7245 11.4425 46.3028333 12.0175 46.092 12.788 46.092 13.754L46.092 19.688ZM79.074 8.28 81.972 8.28 81.972 19.688 79.074 19.688 79.074 18.032 78.66 18.032C78.154 19.3506667 77.0653333 20.01 75.394 20.01 74.8266667 20.01 74.2976667 19.918 73.807 19.734 73.3163333 19.55 72.887 19.2663333 72.519 18.883 72.151 18.4996667 71.8635 18.0205 71.6565 17.4455 71.4495 16.8705 71.346 16.192 71.346 15.41L71.346 8.28 74.244 8.28 74.244 14.812C74.244 15.6246667 74.4356667 16.2571667 74.819 16.7095 75.2023333 17.1618333 75.7773333 17.388 76.544 17.388 77.418 17.388 78.0581667 17.1081667 78.4645 16.5485 78.8708333 15.9888333 79.074 15.226 79.074 14.26L79.074 8.28Z"/><polygon fill="#8330FF" points="85.353 16.928 89.355 16.928 89.355 6.348 85.491 6.348 85.491 3.588 92.253 3.588 92.253 16.928 95.979 16.928 95.979 19.688 85.353 19.688"/><polygon fill="#8330FF" points="113.505 16.928 117.507 16.928 117.507 6.348 113.643 6.348 113.643 3.588 120.405 3.588 120.405 16.928 124.131 16.928 124.131 19.688 113.505 19.688"/><path fill="#8330FF" d="M127.857,16.928 L131.721,16.928 L131.721,11.04 L128.133,11.04 L128.133,8.28 L134.619,8.28 L134.619,16.928 L137.931,16.928 L137.931,19.688 L127.857,19.688 L127.857,16.928 Z M135.332,4.899 C135.332,5.20566667 135.2745,5.49316667 135.1595,5.7615 C135.0445,6.02983333 134.887333,6.25983333 134.688,6.4515 C134.488667,6.64316667 134.254833,6.7965 133.9865,6.9115 C133.718167,7.0265 133.438333,7.084 133.147,7.084 C132.840333,7.084 132.556667,7.0265 132.296,6.9115 C132.035333,6.7965 131.805333,6.64316667 131.606,6.4515 C131.406667,6.25983333 131.2495,6.02983333 131.1345,5.7615 C131.0195,5.49316667 130.962,5.20566667 130.962,4.899 C130.962,4.59233333 131.0195,4.30483333 131.1345,4.0365 C131.2495,3.76816667 131.406667,3.53816667 131.606,3.3465 C131.805333,3.15483333 132.035333,3.0015 132.296,2.8865 C132.556667,2.7715 132.840333,2.714 133.147,2.714 C133.438333,2.714 133.718167,2.7715 133.9865,2.8865 C134.254833,3.0015 134.488667,3.15483333 134.688,3.3465 C134.887333,3.53816667 135.0445,3.76816667 135.1595,4.0365 C135.2745,4.30483333 135.332,4.59233333 135.332,4.899 Z"/><path fill="#787696" d="M160.402,1.794 C160.402,1.27266667 160.566833,0.843333333 160.8965,0.506 C161.226167,0.168666667 161.651667,0 162.173,0 L164.404,0 L164.404,1.656 L162.817,1.656 C162.403,1.656 162.196,1.886 162.196,2.346 L162.196,9.706 C162.196,10.2273333 162.031167,10.6566667 161.7015,10.994 C161.371833,11.3313333 160.938667,11.5 160.402,11.5 L160.126,11.5 L160.126,11.776 L160.402,11.776 C160.938667,11.776 161.371833,11.9446667 161.7015,12.282 C162.031167,12.6193333 162.196,13.0486667 162.196,13.57 L162.196,20.93 C162.196,21.39 162.403,21.62 162.817,21.62 L164.404,21.62 L164.404,23.276 L162.173,23.276 C161.651667,23.276 161.226167,23.1073333 160.8965,22.77 C160.566833,22.4326667 160.402,22.0033333 160.402,21.482 L160.402,13.547 C160.402,13.1023333 160.195,12.88 159.781,12.88 L158.608,12.88 L158.608,10.396 L159.781,10.396 C160.195,10.396 160.402,10.1736667 160.402,9.729 L160.402,1.794 Z"/><path fill="#0000C2" d="M29.21 42.28 32.729 42.28 32.729 39.382C32.729 38.8606667 32.8938333 38.4313333 33.2235 38.094 33.5531667 37.7566667 33.9786667 37.588 34.5 37.588L39.008 37.588 39.008 39.244 35.144 39.244C34.73 39.244 34.523 39.474 34.523 39.934L34.523 42.28 39.284 42.28 39.284 43.936 34.523 43.936 34.523 53.688 32.729 53.688 32.729 43.936 29.21 43.936 29.21 42.28ZM54.165 48.122C54.165 49.0726667 54.0078333 49.9121667 53.6935 50.6405 53.3791667 51.3688333 52.9613333 51.9821667 52.44 52.4805 51.9186667 52.9788333 51.3091667 53.3583333 50.6115 53.619 49.9138333 53.8796667 49.1893333 54.01 48.438 54.01 47.6713333 54.01 46.943 53.8796667 46.253 53.619 45.563 53.3583333 44.9573333 52.9788333 44.436 52.4805 43.9146667 51.9821667 43.4968333 51.3688333 43.1825 50.6405 42.8681667 49.9121667 42.711 49.0726667 42.711 48.122L42.711 47.846C42.711 46.9106667 42.8681667 46.0788333 43.1825 45.3505 43.4968333 44.6221667 43.9185 44.005 44.4475 43.499 44.9765 42.993 45.586 42.6096667 46.276 42.349 46.966 42.0883333 47.6866667 41.958 48.438 41.958 49.1893333 41.958 49.91 42.0883333 50.6 42.349 51.29 42.6096667 51.8995 42.993 52.4285 43.499 52.9575 44.005 53.3791667 44.6221667 53.6935 45.3505 54.0078333 46.0788333 54.165 46.9106667 54.165 47.846L54.165 48.122ZM48.438 52.308C48.99 52.308 49.4998333 52.2121667 49.9675 52.0205 50.4351667 51.8288333 50.8453333 51.549 51.198 51.181 51.5506667 50.813 51.8266667 50.3721667 52.026 49.8585 52.2253333 49.3448333 52.325 48.766 52.325 48.122L52.325 47.846C52.325 47.2326667 52.2253333 46.6691667 52.026 46.1555 51.8266667 45.6418333 51.5506667 45.201 51.198 44.833 50.8453333 44.465 50.4313333 44.1775 49.956 43.9705 49.4806667 43.7635 48.9746667 43.66 48.438 43.66 47.9013333 43.66 47.3953333 43.7635 46.92 43.9705 46.4446667 44.1775 46.0306667 44.465 45.678 44.833 45.3253333 45.201 45.0493333 45.6418333 44.85 46.1555 44.6506667 46.6691667 44.551 47.2326667 44.551 47.846L44.551 48.122C44.551 48.766 44.6506667 49.3448333 44.85 49.8585 45.0493333 50.3721667 45.3253333 50.813 45.678 51.181 46.0306667 51.549 46.4408333 51.8288333 46.9085 52.0205 47.3761667 52.2121667 47.886 52.308 48.438 52.308ZM59.271 53.688 57.477 53.688 57.477 42.28 59.271 42.28 59.271 44.212 59.547 44.212C60.2523333 42.7093333 61.479 41.958 63.227 41.958 64.5456667 41.958 65.596 42.3681667 66.378 43.1885 67.16 44.0088333 67.551 45.2393333 67.551 46.88L67.551 53.688 65.757 53.688 65.757 47.248C65.757 46.052 65.4886667 45.155 64.952 44.557 64.4153333 43.959 63.687 43.66 62.767 43.66 61.6783333 43.66 60.8235 44.0318333 60.2025 44.7755 59.5815 45.5191667 59.271 46.512 59.271 47.754L59.271 53.688ZM71.162 42.28 74.75 42.28 74.75 37.588 76.544 37.588 76.544 42.28 80.96 42.28 80.96 43.936 76.544 43.936 76.544 51.342C76.544 51.802 76.751 52.032 77.165 52.032L80.408 52.032 80.408 53.688 76.521 53.688C75.9996667 53.688 75.5741667 53.5193333 75.2445 53.182 74.9148333 52.8446667 74.75 52.4153333 74.75 51.894L74.75 43.936 71.162 43.936 71.162 42.28Z"/><polygon fill="#0000C2" points="87.216 46.88 94.116 46.88 94.116 48.536 87.216 48.536"/><path fill="#0000C2" d="M99.59 42.28 103.109 42.28 103.109 39.382C103.109 38.8606667 103.273833 38.4313333 103.6035 38.094 103.933167 37.7566667 104.358667 37.588 104.88 37.588L109.388 37.588 109.388 39.244 105.524 39.244C105.11 39.244 104.903 39.474 104.903 39.934L104.903 42.28 109.664 42.28 109.664 43.936 104.903 43.936 104.903 53.688 103.109 53.688 103.109 43.936 99.59 43.936 99.59 42.28ZM122.061 51.756 121.785 51.756C121.417 52.5226667 120.907167 53.09 120.2555 53.458 119.603833 53.826 118.917667 54.01 118.197 54.01 117.445667 54.01 116.748 53.8835 116.104 53.6305 115.46 53.3775 114.8965 53.0018333 114.4135 52.5035 113.9305 52.0051667 113.551 51.3956667 113.275 50.675 112.999 49.9543333 112.861 49.1186667 112.861 48.168L112.861 47.8C112.861 46.8646667 112.999 46.0366667 113.275 45.316 113.551 44.5953333 113.9305 43.9858333 114.4135 43.4875 114.8965 42.9891667 115.46 42.6096667 116.104 42.349 116.748 42.0883333 117.430333 41.958 118.151 41.958 118.933 41.958 119.642167 42.1305 120.2785 42.4755 120.914833 42.8205 121.417 43.3533333 121.785 44.074L122.061 44.074 122.061 42.28 123.855 42.28 123.855 51.342C123.855 51.802 124.062 52.032 124.476 52.032L125.051 52.032 125.051 53.688 123.832 53.688C123.310667 53.688 122.885167 53.5193333 122.5555 53.182 122.225833 52.8446667 122.061 52.4153333 122.061 51.894L122.061 51.756ZM118.381 52.308C118.917667 52.308 119.412167 52.2083333 119.8645 52.009 120.316833 51.8096667 120.704 51.526 121.026 51.158 121.348 50.79 121.601 50.3491667 121.785 49.8355 121.969 49.3218333 122.061 48.7506667 122.061 48.122L122.061 47.846C122.061 47.2326667 121.969 46.6691667 121.785 46.1555 121.601 45.6418333 121.344167 45.201 121.0145 44.833 120.684833 44.465 120.293833 44.1775 119.8415 43.9705 119.389167 43.7635 118.902333 43.66 118.381 43.66 117.844333 43.66 117.353667 43.7596667 116.909 43.959 116.464333 44.1583333 116.077167 44.4381667 115.7475 44.7985 115.417833 45.1588333 115.161 45.5958333 114.977 46.1095 114.793 46.6231667 114.701 47.1866667 114.701 47.8L114.701 48.168C114.701 49.4713333 115.042167 50.4871667 115.7245 51.2155 116.406833 51.9438333 117.292333 52.308 118.381 52.308ZM138.828 53.688 137.034 53.688 137.034 45.5C137.034 44.9633333 136.911333 44.5225 136.666 44.1775 136.420667 43.8325 136.029667 43.66 135.493 43.66 134.987 43.66 134.576833 43.8478333 134.2625 44.2235 133.948167 44.5991667 133.791 45.178 133.791 45.96L133.791 53.688 131.997 53.688 131.997 45.408C131.997 44.902 131.859 44.4841667 131.583 44.1545 131.307 43.8248333 130.939 43.66 130.479 43.66 129.927 43.66 129.5015 43.8593333 129.2025 44.258 128.9035 44.6566667 128.754 45.178 128.754 45.822L128.754 53.688 126.96 53.688 126.96 42.28 128.754 42.28 128.754 43.522 129.03 43.522C129.229333 42.9853333 129.520667 42.5905 129.904 42.3375 130.287333 42.0845 130.739667 41.958 131.261 41.958 131.813 41.958 132.269167 42.1036667 132.6295 42.395 132.989833 42.6863333 133.239 43.062 133.377 43.522L133.653 43.522C134.174333 42.4793333 135.002333 41.958 136.137 41.958 136.995667 41.958 137.658833 42.2301667 138.1265 42.7745 138.594167 43.3188333 138.828 44.028 138.828 44.902L138.828 53.688ZM145.475 38.876C145.475 38.4313333 145.632167 38.0518333 145.9465 37.7375 146.260833 37.4231667 146.640333 37.266 147.085 37.266 147.529667 37.266 147.909167 37.4231667 148.2235 37.7375 148.537833 38.0518333 148.695 38.4313333 148.695 38.876 148.695 39.3206667 148.537833 39.7001667 148.2235 40.0145 147.909167 40.3288333 147.529667 40.486 147.085 40.486 146.640333 40.486 146.260833 40.3288333 145.9465 40.0145 145.632167 39.7001667 145.475 39.3206667 145.475 38.876ZM142.209 52.032 146.211 52.032 146.211 43.936 142.623 43.936 142.623 42.28 148.005 42.28 148.005 52.032 151.731 52.032 151.731 53.688 142.209 53.688 142.209 52.032Z"/><polygon fill="#0000C2" points="156.009 52.032 160.149 52.032 160.149 39.244 156.147 39.244 156.147 37.588 161.943 37.588 161.943 52.032 166.083 52.032 166.083 53.688 156.009 53.688"/><path fill="#0000C2" d="M178.365,51.618 L178.089,51.618 C177.721,52.354 177.238,52.9366667 176.64,53.366 C176.042,53.7953333 175.283,54.01 174.363,54.01 C173.734333,54.01 173.1555,53.9065 172.6265,53.6995 C172.0975,53.4925 171.645167,53.182 171.2695,52.768 C170.893833,52.354 170.6025,51.8403333 170.3955,51.227 C170.1885,50.6136667 170.085,49.9006667 170.085,49.088 L170.085,42.28 L171.879,42.28 L171.879,48.858 C171.879,50.054 172.124333,50.928 172.615,51.48 C173.105667,52.032 173.857,52.308 174.869,52.308 C175.957667,52.308 176.8125,51.9361667 177.4335,51.1925 C178.0545,50.4488333 178.365,49.456 178.365,48.214 L178.365,42.28 L180.159,42.28 L180.159,56.494 C180.159,57.0153333 179.994167,57.4446667 179.6645,57.782 C179.334833,58.1193333 178.909333,58.288 178.388,58.288 L171.879,58.288 L171.879,56.632 L177.744,56.632 C178.158,56.632 178.365,56.402 178.365,55.942 L178.365,51.618 Z"/><path fill="#787696" d="M187.588,52.4 C187.588,51.9553333 187.745167,51.5758333 188.0595,51.2615 C188.373833,50.9471667 188.753333,50.79 189.198,50.79 C189.642667,50.79 190.022167,50.9471667 190.3365,51.2615 C190.650833,51.5758333 190.808,51.9553333 190.808,52.4 C190.808,52.8446667 190.650833,53.2241667 190.3365,53.5385 C190.022167,53.8528333 189.642667,54.01 189.198,54.01 C188.753333,54.01 188.373833,53.8528333 188.0595,53.5385 C187.745167,53.2241667 187.588,52.8446667 187.588,52.4 Z M187.588,43.568 C187.588,43.1233333 187.745167,42.7438333 188.0595,42.4295 C188.373833,42.1151667 188.753333,41.958 189.198,41.958 C189.642667,41.958 190.022167,42.1151667 190.3365,42.4295 C190.650833,42.7438333 190.808,43.1233333 190.808,43.568 C190.808,44.0126667 190.650833,44.3921667 190.3365,44.7065 C190.022167,45.0208333 189.642667,45.178 189.198,45.178 C188.753333,45.178 188.373833,45.0208333 188.0595,44.7065 C187.745167,44.3921667 187.588,44.0126667 187.588,43.568 Z"/><path fill="#8330FF" d="M220.8 49.686 213.9 49.686 212.727 53.688 210.657 53.688 215.533 37.588 219.167 37.588 224.043 53.688 221.973 53.688 220.8 49.686ZM217.212 38.416 214.429 47.892 220.271 47.892 217.488 38.416 217.212 38.416ZM225.745 42.28 229.885 42.28 229.885 43.798 230.161 43.798C230.452333 43.1693333 230.866333 42.7055 231.403 42.4065 231.939667 42.1075 232.553 41.958 233.243 41.958 234.393 41.958 235.320667 42.3336667 236.026 43.085 236.731333 43.8363333 237.107 44.9326667 237.153 46.374L235.267 46.65C235.267 45.592 235.014 44.8291667 234.508 44.3615 234.002 43.8938333 233.381 43.66 232.645 43.66 232.169667 43.66 231.7595 43.752 231.4145 43.936 231.0695 44.12 230.782 44.373 230.552 44.695 230.322 45.017 230.153333 45.3926667 230.046 45.822 229.938667 46.2513333 229.885 46.7113333 229.885 47.202L229.885 52.032 232.783 52.032 232.783 53.688 225.469 53.688 225.469 52.032 228.091 52.032 228.091 43.936 225.745 43.936 225.745 42.28ZM244.007 38.876C244.007 38.4313333 244.164167 38.0518333 244.4785 37.7375 244.792833 37.4231667 245.172333 37.266 245.617 37.266 246.061667 37.266 246.441167 37.4231667 246.7555 37.7375 247.069833 38.0518333 247.227 38.4313333 247.227 38.876 247.227 39.3206667 247.069833 39.7001667 246.7555 40.0145 246.441167 40.3288333 246.061667 40.486 245.617 40.486 245.172333 40.486 244.792833 40.3288333 244.4785 40.0145 244.164167 39.7001667 244.007 39.3206667 244.007 38.876ZM240.741 52.032 244.743 52.032 244.743 43.936 241.155 43.936 241.155 42.28 246.537 42.28 246.537 52.032 250.263 52.032 250.263 53.688 240.741 53.688 240.741 52.032ZM262.821 51.756 262.545 51.756C262.177 52.5226667 261.667167 53.09 261.0155 53.458 260.363833 53.826 259.677667 54.01 258.957 54.01 258.205667 54.01 257.508 53.8835 256.864 53.6305 256.22 53.3775 255.6565 53.0018333 255.1735 52.5035 254.6905 52.0051667 254.311 51.3956667 254.035 50.675 253.759 49.9543333 253.621 49.1186667 253.621 48.168L253.621 47.8C253.621 46.8646667 253.759 46.0366667 254.035 45.316 254.311 44.5953333 254.6905 43.9858333 255.1735 43.4875 255.6565 42.9891667 256.22 42.6096667 256.864 42.349 257.508 42.0883333 258.190333 41.958 258.911 41.958 259.693 41.958 260.402167 42.1305 261.0385 42.4755 261.674833 42.8205 262.177 43.3533333 262.545 44.074L262.821 44.074 262.821 42.28 264.615 42.28 264.615 51.342C264.615 51.802 264.822 52.032 265.236 52.032L265.811 52.032 265.811 53.688 264.592 53.688C264.070667 53.688 263.645167 53.5193333 263.3155 53.182 262.985833 52.8446667 262.821 52.4153333 262.821 51.894L262.821 51.756ZM259.141 52.308C259.677667 52.308 260.172167 52.2083333 260.6245 52.009 261.076833 51.8096667 261.464 51.526 261.786 51.158 262.108 50.79 262.361 50.3491667 262.545 49.8355 262.729 49.3218333 262.821 48.7506667 262.821 48.122L262.821 47.846C262.821 47.2326667 262.729 46.6691667 262.545 46.1555 262.361 45.6418333 262.104167 45.201 261.7745 44.833 261.444833 44.465 261.053833 44.1775 260.6015 43.9705 260.149167 43.7635 259.662333 43.66 259.141 43.66 258.604333 43.66 258.113667 43.7596667 257.669 43.959 257.224333 44.1583333 256.837167 44.4381667 256.5075 44.7985 256.177833 45.1588333 255.921 45.5958333 255.737 46.1095 255.553 46.6231667 255.461 47.1866667 255.461 47.8L255.461 48.168C255.461 49.4713333 255.802167 50.4871667 256.4845 51.2155 257.166833 51.9438333 258.052333 52.308 259.141 52.308Z"/><polygon fill="#8330FF" points="268.617 52.032 272.757 52.032 272.757 39.244 268.755 39.244 268.755 37.588 274.551 37.588 274.551 52.032 278.691 52.032 278.691 53.688 268.617 53.688"/><path fill="#787696" d="M286.12,52.4 C286.12,51.9553333 286.277167,51.5758333 286.5915,51.2615 C286.905833,50.9471667 287.285333,50.79 287.73,50.79 C288.174667,50.79 288.554167,50.9471667 288.8685,51.2615 C289.182833,51.5758333 289.34,51.9553333 289.34,52.4 L289.34,54.654 C289.34,55.1753333 289.175167,55.6046667 288.8455,55.942 C288.515833,56.2793333 288.090333,56.448 287.569,56.448 L286.396,56.448 L286.396,55.206 L287.477,55.206 C287.891,55.206 288.098,54.976 288.098,54.516 L288.098,53.941 C287.975333,53.987 287.845,54.01 287.707,54.01 C287.277667,54.01 286.905833,53.8528333 286.5915,53.5385 C286.277167,53.2241667 286.12,52.8446667 286.12,52.4 Z M286.12,43.568 C286.12,43.1233333 286.277167,42.7438333 286.5915,42.4295 C286.905833,42.1151667 287.285333,41.958 287.73,41.958 C288.174667,41.958 288.554167,42.1151667 288.8685,42.4295 C289.182833,42.7438333 289.34,43.1233333 289.34,43.568 C289.34,44.0126667 289.182833,44.3921667 288.8685,44.7065 C288.554167,45.0208333 288.174667,45.178 287.73,45.178 C287.285333,45.178 286.905833,45.0208333 286.5915,44.7065 C286.277167,44.3921667 286.12,44.0126667 286.12,43.568 Z"/><path fill="#0000C2" d="M29.21 76.28 32.729 76.28 32.729 73.382C32.729 72.8606667 32.8938333 72.4313333 33.2235 72.094 33.5531667 71.7566667 33.9786667 71.588 34.5 71.588L39.008 71.588 39.008 73.244 35.144 73.244C34.73 73.244 34.523 73.474 34.523 73.934L34.523 76.28 39.284 76.28 39.284 77.936 34.523 77.936 34.523 87.688 32.729 87.688 32.729 77.936 29.21 77.936 29.21 76.28ZM54.165 82.122C54.165 83.0726667 54.0078333 83.9121667 53.6935 84.6405 53.3791667 85.3688333 52.9613333 85.9821667 52.44 86.4805 51.9186667 86.9788333 51.3091667 87.3583333 50.6115 87.619 49.9138333 87.8796667 49.1893333 88.01 48.438 88.01 47.6713333 88.01 46.943 87.8796667 46.253 87.619 45.563 87.3583333 44.9573333 86.9788333 44.436 86.4805 43.9146667 85.9821667 43.4968333 85.3688333 43.1825 84.6405 42.8681667 83.9121667 42.711 83.0726667 42.711 82.122L42.711 81.846C42.711 80.9106667 42.8681667 80.0788333 43.1825 79.3505 43.4968333 78.6221667 43.9185 78.005 44.4475 77.499 44.9765 76.993 45.586 76.6096667 46.276 76.349 46.966 76.0883333 47.6866667 75.958 48.438 75.958 49.1893333 75.958 49.91 76.0883333 50.6 76.349 51.29 76.6096667 51.8995 76.993 52.4285 77.499 52.9575 78.005 53.3791667 78.6221667 53.6935 79.3505 54.0078333 80.0788333 54.165 80.9106667 54.165 81.846L54.165 82.122ZM48.438 86.308C48.99 86.308 49.4998333 86.2121667 49.9675 86.0205 50.4351667 85.8288333 50.8453333 85.549 51.198 85.181 51.5506667 84.813 51.8266667 84.3721667 52.026 83.8585 52.2253333 83.3448333 52.325 82.766 52.325 82.122L52.325 81.846C52.325 81.2326667 52.2253333 80.6691667 52.026 80.1555 51.8266667 79.6418333 51.5506667 79.201 51.198 78.833 50.8453333 78.465 50.4313333 78.1775 49.956 77.9705 49.4806667 77.7635 48.9746667 77.66 48.438 77.66 47.9013333 77.66 47.3953333 77.7635 46.92 77.9705 46.4446667 78.1775 46.0306667 78.465 45.678 78.833 45.3253333 79.201 45.0493333 79.6418333 44.85 80.1555 44.6506667 80.6691667 44.551 81.2326667 44.551 81.846L44.551 82.122C44.551 82.766 44.6506667 83.3448333 44.85 83.8585 45.0493333 84.3721667 45.3253333 84.813 45.678 85.181 46.0306667 85.549 46.4408333 85.8288333 46.9085 86.0205 47.3761667 86.2121667 47.886 86.308 48.438 86.308ZM59.271 87.688 57.477 87.688 57.477 76.28 59.271 76.28 59.271 78.212 59.547 78.212C60.2523333 76.7093333 61.479 75.958 63.227 75.958 64.5456667 75.958 65.596 76.3681667 66.378 77.1885 67.16 78.0088333 67.551 79.2393333 67.551 80.88L67.551 87.688 65.757 87.688 65.757 81.248C65.757 80.052 65.4886667 79.155 64.952 78.557 64.4153333 77.959 63.687 77.66 62.767 77.66 61.6783333 77.66 60.8235 78.0318333 60.2025 78.7755 59.5815 79.5191667 59.271 80.512 59.271 81.754L59.271 87.688ZM71.162 76.28 74.75 76.28 74.75 71.588 76.544 71.588 76.544 76.28 80.96 76.28 80.96 77.936 76.544 77.936 76.544 85.342C76.544 85.802 76.751 86.032 77.165 86.032L80.408 86.032 80.408 87.688 76.521 87.688C75.9996667 87.688 75.5741667 87.5193333 75.2445 87.182 74.9148333 86.8446667 74.75 86.4153333 74.75 85.894L74.75 77.936 71.162 77.936 71.162 76.28Z"/><polygon fill="#0000C2" points="87.216 80.88 94.116 80.88 94.116 82.536 87.216 82.536"/><path fill="#0000C2" d="M102.074 79.224C102.074 79.776 102.307833 80.1976667 102.7755 80.489 103.243167 80.7803333 104.098 80.972 105.34 81.064 106.674 81.1713333 107.689833 81.4895 108.3875 82.0185 109.085167 82.5475 109.434 83.318 109.434 84.33L109.434 84.468C109.434 85.02 109.322833 85.5145 109.1005 85.9515 108.878167 86.3885 108.5715 86.7603333 108.1805 87.067 107.7895 87.3736667 107.314167 87.6075 106.7545 87.7685 106.194833 87.9295 105.585333 88.01 104.926 88.01 104.036667 88.01 103.273833 87.8911667 102.6375 87.6535 102.001167 87.4158333 101.472167 87.1015 101.0505 86.7105 100.628833 86.3195 100.310667 85.8748333 100.096 85.3765 99.8813333 84.8781667 99.7586667 84.376 99.728 83.87L101.43 83.456C101.506667 84.33 101.844 85.0315 102.442 85.5605 103.04 86.0895 103.837333 86.354 104.834 86.354 105.677333 86.354 106.355833 86.1891667 106.8695 85.8595 107.383167 85.5298333 107.64 85.066 107.64 84.468 107.64 83.824 107.387 83.364 106.881 83.088 106.375 82.812 105.554667 82.6356667 104.42 82.559 103.101333 82.467 102.089333 82.1603333 101.384 81.639 100.678667 81.1176667 100.326 80.3586667 100.326 79.362L100.326 79.224C100.326 78.6873333 100.441 78.2158333 100.671 77.8095 100.901 77.4031667 101.2115 77.062 101.6025 76.786 101.9935 76.51 102.434333 76.303 102.925 76.165 103.415667 76.027 103.929333 75.958 104.466 75.958 105.217333 75.958 105.876667 76.0615 106.444 76.2685 107.011333 76.4755 107.486667 76.7438333 107.87 77.0735 108.253333 77.4031667 108.5485 77.7826667 108.7555 78.212 108.9625 78.6413333 109.096667 79.0706667 109.158 79.5L107.456 79.914C107.379333 79.178 107.084167 78.603 106.5705 78.189 106.056833 77.775 105.386 77.568 104.558 77.568 104.236 77.568 103.9255 77.6025 103.6265 77.6715 103.3275 77.7405 103.063 77.844 102.833 77.982 102.603 78.12 102.419 78.2925 102.281 78.4995 102.143 78.7065 102.074 78.948 102.074 79.224ZM117.323 72.876C117.323 72.4313333 117.480167 72.0518333 117.7945 71.7375 118.108833 71.4231667 118.488333 71.266 118.933 71.266 119.377667 71.266 119.757167 71.4231667 120.0715 71.7375 120.385833 72.0518333 120.543 72.4313333 120.543 72.876 120.543 73.3206667 120.385833 73.7001667 120.0715 74.0145 119.757167 74.3288333 119.377667 74.486 118.933 74.486 118.488333 74.486 118.108833 74.3288333 117.7945 74.0145 117.480167 73.7001667 117.323 73.3206667 117.323 72.876ZM114.057 86.032 118.059 86.032 118.059 77.936 114.471 77.936 114.471 76.28 119.853 76.28 119.853 86.032 123.579 86.032 123.579 87.688 114.057 87.688 114.057 86.032Z"/><polygon fill="#0000C2" points="137.885 86.032 137.885 87.688 127.949 87.688 127.949 84.836 136.091 78.212 136.091 77.936 128.087 77.936 128.087 76.28 137.609 76.28 137.609 79.04 129.421 85.756 129.421 86.032"/><path fill="#0000C2" d="M143.244,82.536 C143.29,83.6706667 143.642667,84.583 144.302,85.273 C144.961333,85.963 145.881333,86.308 147.062,86.308 C147.598667,86.308 148.066333,86.2466667 148.465,86.124 C148.863667,86.0013333 149.204833,85.8326667 149.4885,85.618 C149.772167,85.4033333 150.002167,85.1541667 150.1785,84.8705 C150.354833,84.5868333 150.496667,84.284 150.604,83.962 L152.306,84.422 C151.984,85.48 151.389833,86.3425 150.5235,87.0095 C149.657167,87.6765 148.488,88.01 147.016,88.01 C146.203333,88.01 145.455833,87.8681667 144.7735,87.5845 C144.091167,87.3008333 143.504667,86.8983333 143.014,86.377 C142.523333,85.8556667 142.14,85.2346667 141.864,84.514 C141.588,83.7933333 141.45,82.996 141.45,82.122 L141.45,81.57 C141.45,80.7726667 141.591833,80.029 141.8755,79.339 C142.159167,78.649 142.554,78.0548333 143.06,77.5565 C143.566,77.0581667 144.160167,76.6671667 144.8425,76.3835 C145.524833,76.0998333 146.264667,75.958 147.062,75.958 C147.997333,75.958 148.806167,76.1305 149.4885,76.4755 C150.170833,76.8205 150.7305,77.246 151.1675,77.752 C151.6045,78.258 151.9265,78.81 152.1335,79.408 C152.3405,80.006 152.444,80.558 152.444,81.064 L152.444,82.536 L143.244,82.536 Z M147.062,77.66 C146.556,77.66 146.0845,77.7405 145.6475,77.9015 C145.2105,78.0625 144.827167,78.2886667 144.4975,78.58 C144.167833,78.8713333 143.8995,79.2125 143.6925,79.6035 C143.4855,79.9945 143.351333,80.42 143.29,80.88 L150.65,80.88 C150.619333,80.3893333 150.5005,79.9446667 150.2935,79.546 C150.0865,79.1473333 149.818167,78.81 149.4885,78.534 C149.158833,78.258 148.783167,78.0433333 148.3615,77.89 C147.939833,77.7366667 147.506667,77.66 147.062,77.66 Z"/><path fill="#787696" d="M159.436,86.4 C159.436,85.9553333 159.593167,85.5758333 159.9075,85.2615 C160.221833,84.9471667 160.601333,84.79 161.046,84.79 C161.490667,84.79 161.870167,84.9471667 162.1845,85.2615 C162.498833,85.5758333 162.656,85.9553333 162.656,86.4 C162.656,86.8446667 162.498833,87.2241667 162.1845,87.5385 C161.870167,87.8528333 161.490667,88.01 161.046,88.01 C160.601333,88.01 160.221833,87.8528333 159.9075,87.5385 C159.593167,87.2241667 159.436,86.8446667 159.436,86.4 Z M159.436,77.568 C159.436,77.1233333 159.593167,76.7438333 159.9075,76.4295 C160.221833,76.1151667 160.601333,75.958 161.046,75.958 C161.490667,75.958 161.870167,76.1151667 162.1845,76.4295 C162.498833,76.7438333 162.656,77.1233333 162.656,77.568 C162.656,78.0126667 162.498833,78.3921667 162.1845,78.7065 C161.870167,79.0208333 161.490667,79.178 161.046,79.178 C160.601333,79.178 160.221833,79.0208333 159.9075,78.7065 C159.593167,78.3921667 159.436,78.0126667 159.436,77.568 Z"/><polygon fill="#8330FF" points="188.347 85.894 188.347 72.439 188.071 72.439 185.426 78.488 183.517 78.488 183.517 78.35 186.53 71.588 190.279 71.588 190.279 85.894 194.833 85.894 194.833 87.688 183.793 87.688 183.793 85.894"/><path fill="#8330FF" d="M201.664 86.4C201.664 85.9553333 201.821167 85.5758333 202.1355 85.2615 202.449833 84.9471667 202.829333 84.79 203.274 84.79 203.718667 84.79 204.098167 84.9471667 204.4125 85.2615 204.726833 85.5758333 204.884 85.9553333 204.884 86.4 204.884 86.8446667 204.726833 87.2241667 204.4125 87.5385 204.098167 87.8528333 203.718667 88.01 203.274 88.01 202.829333 88.01 202.449833 87.8528333 202.1355 87.5385 201.821167 87.2241667 201.664 86.8446667 201.664 86.4ZM222.824 85.894 222.824 87.688 211.922 87.688 211.922 84.928C211.922 84.192 212.044667 83.5518333 212.29 83.0075 212.535333 82.4631667 212.884167 81.9955 213.3365 81.6045 213.788833 81.2135 214.337 80.8876667 214.981 80.627 215.625 80.3663333 216.353333 80.144 217.166 79.96 218.530667 79.6533333 219.515833 79.2163333 220.1215 78.649 220.727167 78.0816667 221.03 77.384 221.03 76.556L221.03 76.418C221.03 76.004 220.961 75.5976667 220.823 75.199 220.685 74.8003333 220.470333 74.44 220.179 74.118 219.887667 73.796 219.515833 73.5391667 219.0635 73.3475 218.611167 73.1558333 218.070667 73.06 217.442 73.06 216.261333 73.06 215.345167 73.4203333 214.6935 74.141 214.041833 74.8616667 213.716 75.82 213.716 77.016L213.716 78.028 211.784 78.028 211.784 76.878C211.784 76.142 211.906667 75.4366667 212.152 74.762 212.397333 74.0873333 212.757667 73.4893333 213.233 72.968 213.708333 72.4466667 214.298667 72.0326667 215.004 71.726 215.709333 71.4193333 216.522 71.266 217.442 71.266 218.377333 71.266 219.19 71.4078333 219.88 71.6915 220.57 71.9751667 221.145 72.3508333 221.605 72.8185 222.065 73.2861667 222.406167 73.8151667 222.6285 74.4055 222.850833 74.9958333 222.962 75.5976667 222.962 76.211L222.962 76.625C222.962 77.8516667 222.578667 78.8981667 221.812 79.7645 221.045333 80.6308333 219.818667 81.248 218.132 81.616 216.66 81.938 215.579 82.3635 214.889 82.8925 214.199 83.4215 213.854 84.192 213.854 85.204L213.854 85.894 222.824 85.894ZM227.7 82.536C227.746 83.6706667 228.098667 84.583 228.758 85.273 229.417333 85.963 230.337333 86.308 231.518 86.308 232.054667 86.308 232.522333 86.2466667 232.921 86.124 233.319667 86.0013333 233.660833 85.8326667 233.9445 85.618 234.228167 85.4033333 234.458167 85.1541667 234.6345 84.8705 234.810833 84.5868333 234.952667 84.284 235.06 83.962L236.762 84.422C236.44 85.48 235.845833 86.3425 234.9795 87.0095 234.113167 87.6765 232.944 88.01 231.472 88.01 230.659333 88.01 229.911833 87.8681667 229.2295 87.5845 228.547167 87.3008333 227.960667 86.8983333 227.47 86.377 226.979333 85.8556667 226.596 85.2346667 226.32 84.514 226.044 83.7933333 225.906 82.996 225.906 82.122L225.906 81.57C225.906 80.7726667 226.047833 80.029 226.3315 79.339 226.615167 78.649 227.01 78.0548333 227.516 77.5565 228.022 77.0581667 228.616167 76.6671667 229.2985 76.3835 229.980833 76.0998333 230.720667 75.958 231.518 75.958 232.453333 75.958 233.262167 76.1305 233.9445 76.4755 234.626833 76.8205 235.1865 77.246 235.6235 77.752 236.0605 78.258 236.3825 78.81 236.5895 79.408 236.7965 80.006 236.9 80.558 236.9 81.064L236.9 82.536 227.7 82.536ZM231.518 77.66C231.012 77.66 230.5405 77.7405 230.1035 77.9015 229.6665 78.0625 229.283167 78.2886667 228.9535 78.58 228.623833 78.8713333 228.3555 79.2125 228.1485 79.6035 227.9415 79.9945 227.807333 80.42 227.746 80.88L235.106 80.88C235.075333 80.3893333 234.9565 79.9446667 234.7495 79.546 234.5425 79.1473333 234.274167 78.81 233.9445 78.534 233.614833 78.258 233.239167 78.0433333 232.8175 77.89 232.395833 77.7366667 231.962667 77.66 231.518 77.66ZM251.436 87.688 249.642 87.688 249.642 79.5C249.642 78.9633333 249.519333 78.5225 249.274 78.1775 249.028667 77.8325 248.637667 77.66 248.101 77.66 247.595 77.66 247.184833 77.8478333 246.8705 78.2235 246.556167 78.5991667 246.399 79.178 246.399 79.96L246.399 87.688 244.605 87.688 244.605 79.408C244.605 78.902 244.467 78.4841667 244.191 78.1545 243.915 77.8248333 243.547 77.66 243.087 77.66 242.535 77.66 242.1095 77.8593333 241.8105 78.258 241.5115 78.6566667 241.362 79.178 241.362 79.822L241.362 87.688 239.568 87.688 239.568 76.28 241.362 76.28 241.362 77.522 241.638 77.522C241.837333 76.9853333 242.128667 76.5905 242.512 76.3375 242.895333 76.0845 243.347667 75.958 243.869 75.958 244.421 75.958 244.877167 76.1036667 245.2375 76.395 245.597833 76.6863333 245.847 77.062 245.985 77.522L246.261 77.522C246.782333 76.4793333 247.610333 75.958 248.745 75.958 249.603667 75.958 250.266833 76.2301667 250.7345 76.7745 251.202167 77.3188333 251.436 78.028 251.436 78.902L251.436 87.688Z"/><path fill="#787696" d="M257.968,86.4 C257.968,85.9553333 258.125167,85.5758333 258.4395,85.2615 C258.753833,84.9471667 259.133333,84.79 259.578,84.79 C260.022667,84.79 260.402167,84.9471667 260.7165,85.2615 C261.030833,85.5758333 261.188,85.9553333 261.188,86.4 L261.188,88.654 C261.188,89.1753333 261.023167,89.6046667 260.6935,89.942 C260.363833,90.2793333 259.938333,90.448 259.417,90.448 L258.244,90.448 L258.244,89.206 L259.325,89.206 C259.739,89.206 259.946,88.976 259.946,88.516 L259.946,87.941 C259.823333,87.987 259.693,88.01 259.555,88.01 C259.125667,88.01 258.753833,87.8528333 258.4395,87.5385 C258.125167,87.2241667 257.968,86.8446667 257.968,86.4 Z M257.968,77.568 C257.968,77.1233333 258.125167,76.7438333 258.4395,76.4295 C258.753833,76.1151667 259.133333,75.958 259.578,75.958 C260.022667,75.958 260.402167,76.1151667 260.7165,76.4295 C261.030833,76.7438333 261.188,77.1233333 261.188,77.568 C261.188,78.0126667 261.030833,78.3921667 260.7165,78.7065 C260.402167,79.0208333 260.022667,79.178 259.578,79.178 C259.133333,79.178 258.753833,79.0208333 258.4395,78.7065 C258.125167,78.3921667 257.968,78.0126667 257.968,77.568 Z"/><path fill="#0000C2" d="M39.997 117.64C39.8743333 118.268667 39.6635 118.851333 39.3645 119.388 39.0655 119.924667 38.686 120.3885 38.226 120.7795 37.766 121.1705 37.2293333 121.473333 36.616 121.688 36.0026667 121.902667 35.3203333 122.01 34.569 122.01 33.7716667 122.01 33.0165 121.879667 32.3035 121.619 31.5905 121.358333 30.9656667 120.978833 30.429 120.4805 29.8923333 119.982167 29.4668333 119.372667 29.1525 118.652 28.8381667 117.931333 28.681 117.103333 28.681 116.168L28.681 115.892C28.681 114.972 28.8381667 114.144 29.1525 113.408 29.4668333 112.672 29.8923333 112.051 30.429 111.545 30.9656667 111.039 31.5905 110.648 32.3035 110.372 33.0165 110.096 33.7716667 109.958 34.569 109.958 35.2896667 109.958 35.9566667 110.065333 36.57 110.28 37.1833333 110.494667 37.7238333 110.7975 38.1915 111.1885 38.6591667 111.5795 39.0425 112.043333 39.3415 112.58 39.6405 113.116667 39.8436667 113.699333 39.951 114.328L38.157 114.742C38.111 114.343333 37.9998333 113.956167 37.8235 113.5805 37.6471667 113.204833 37.4095 112.875167 37.1105 112.5915 36.8115 112.307833 36.4473333 112.081667 36.018 111.913 35.5886667 111.744333 35.0903333 111.66 34.523 111.66 33.971 111.66 33.4535 111.7635 32.9705 111.9705 32.4875 112.1775 32.062 112.468833 31.694 112.8445 31.326 113.220167 31.0385 113.668667 30.8315 114.19 30.6245 114.711333 30.521 115.278667 30.521 115.892L30.521 116.168C30.521 116.812 30.6245 117.390833 30.8315 117.9045 31.0385 118.418167 31.326 118.851333 31.694 119.204 32.062 119.556667 32.4913333 119.828833 32.982 120.0205 33.4726667 120.212167 34.0016667 120.308 34.569 120.308 35.1363333 120.308 35.6308333 120.219833 36.0525 120.0435 36.4741667 119.867167 36.8345 119.637167 37.1335 119.3535 37.4325 119.069833 37.6701667 118.744 37.8465 118.376 38.0228333 118.008 38.1416667 117.624667 38.203 117.226L39.997 117.64ZM54.165 116.122C54.165 117.072667 54.0078333 117.912167 53.6935 118.6405 53.3791667 119.368833 52.9613333 119.982167 52.44 120.4805 51.9186667 120.978833 51.3091667 121.358333 50.6115 121.619 49.9138333 121.879667 49.1893333 122.01 48.438 122.01 47.6713333 122.01 46.943 121.879667 46.253 121.619 45.563 121.358333 44.9573333 120.978833 44.436 120.4805 43.9146667 119.982167 43.4968333 119.368833 43.1825 118.6405 42.8681667 117.912167 42.711 117.072667 42.711 116.122L42.711 115.846C42.711 114.910667 42.8681667 114.078833 43.1825 113.3505 43.4968333 112.622167 43.9185 112.005 44.4475 111.499 44.9765 110.993 45.586 110.609667 46.276 110.349 46.966 110.088333 47.6866667 109.958 48.438 109.958 49.1893333 109.958 49.91 110.088333 50.6 110.349 51.29 110.609667 51.8995 110.993 52.4285 111.499 52.9575 112.005 53.3791667 112.622167 53.6935 113.3505 54.0078333 114.078833 54.165 114.910667 54.165 115.846L54.165 116.122ZM48.438 120.308C48.99 120.308 49.4998333 120.212167 49.9675 120.0205 50.4351667 119.828833 50.8453333 119.549 51.198 119.181 51.5506667 118.813 51.8266667 118.372167 52.026 117.8585 52.2253333 117.344833 52.325 116.766 52.325 116.122L52.325 115.846C52.325 115.232667 52.2253333 114.669167 52.026 114.1555 51.8266667 113.641833 51.5506667 113.201 51.198 112.833 50.8453333 112.465 50.4313333 112.1775 49.956 111.9705 49.4806667 111.7635 48.9746667 111.66 48.438 111.66 47.9013333 111.66 47.3953333 111.7635 46.92 111.9705 46.4446667 112.1775 46.0306667 112.465 45.678 112.833 45.3253333 113.201 45.0493333 113.641833 44.85 114.1555 44.6506667 114.669167 44.551 115.232667 44.551 115.846L44.551 116.122C44.551 116.766 44.6506667 117.344833 44.85 117.8585 45.0493333 118.372167 45.3253333 118.813 45.678 119.181 46.0306667 119.549 46.4408333 119.828833 46.9085 120.0205 47.3761667 120.212167 47.886 120.308 48.438 120.308Z"/><polygon fill="#0000C2" points="57.477 120.032 61.617 120.032 61.617 107.244 57.615 107.244 57.615 105.588 63.411 105.588 63.411 120.032 67.551 120.032 67.551 121.688 57.477 121.688"/><path fill="#0000C2" d="M82.317 116.122C82.317 117.072667 82.1598333 117.912167 81.8455 118.6405 81.5311667 119.368833 81.1133333 119.982167 80.592 120.4805 80.0706667 120.978833 79.4611667 121.358333 78.7635 121.619 78.0658333 121.879667 77.3413333 122.01 76.59 122.01 75.8233333 122.01 75.095 121.879667 74.405 121.619 73.715 121.358333 73.1093333 120.978833 72.588 120.4805 72.0666667 119.982167 71.6488333 119.368833 71.3345 118.6405 71.0201667 117.912167 70.863 117.072667 70.863 116.122L70.863 115.846C70.863 114.910667 71.0201667 114.078833 71.3345 113.3505 71.6488333 112.622167 72.0705 112.005 72.5995 111.499 73.1285 110.993 73.738 110.609667 74.428 110.349 75.118 110.088333 75.8386667 109.958 76.59 109.958 77.3413333 109.958 78.062 110.088333 78.752 110.349 79.442 110.609667 80.0515 110.993 80.5805 111.499 81.1095 112.005 81.5311667 112.622167 81.8455 113.3505 82.1598333 114.078833 82.317 114.910667 82.317 115.846L82.317 116.122ZM76.59 120.308C77.142 120.308 77.6518333 120.212167 78.1195 120.0205 78.5871667 119.828833 78.9973333 119.549 79.35 119.181 79.7026667 118.813 79.9786667 118.372167 80.178 117.8585 80.3773333 117.344833 80.477 116.766 80.477 116.122L80.477 115.846C80.477 115.232667 80.3773333 114.669167 80.178 114.1555 79.9786667 113.641833 79.7026667 113.201 79.35 112.833 78.9973333 112.465 78.5833333 112.1775 78.108 111.9705 77.6326667 111.7635 77.1266667 111.66 76.59 111.66 76.0533333 111.66 75.5473333 111.7635 75.072 111.9705 74.5966667 112.1775 74.1826667 112.465 73.83 112.833 73.4773333 113.201 73.2013333 113.641833 73.002 114.1555 72.8026667 114.669167 72.703 115.232667 72.703 115.846L72.703 116.122C72.703 116.766 72.8026667 117.344833 73.002 117.8585 73.2013333 118.372167 73.4773333 118.813 73.83 119.181 74.1826667 119.549 74.5928333 119.828833 75.0605 120.0205 75.5281667 120.212167 76.038 120.308 76.59 120.308ZM84.985 110.28 89.125 110.28 89.125 111.798 89.401 111.798C89.6923333 111.169333 90.1063333 110.7055 90.643 110.4065 91.1796667 110.1075 91.793 109.958 92.483 109.958 93.633 109.958 94.5606667 110.333667 95.266 111.085 95.9713333 111.836333 96.347 112.932667 96.393 114.374L94.507 114.65C94.507 113.592 94.254 112.829167 93.748 112.3615 93.242 111.893833 92.621 111.66 91.885 111.66 91.4096667 111.66 90.9995 111.752 90.6545 111.936 90.3095 112.12 90.022 112.373 89.792 112.695 89.562 113.017 89.3933333 113.392667 89.286 113.822 89.1786667 114.251333 89.125 114.711333 89.125 115.202L89.125 120.032 92.023 120.032 92.023 121.688 84.709 121.688 84.709 120.032 87.331 120.032 87.331 111.936 84.985 111.936 84.985 110.28Z"/><path fill="#787696" d="M103.132,120.4 C103.132,119.955333 103.289167,119.575833 103.6035,119.2615 C103.917833,118.947167 104.297333,118.79 104.742,118.79 C105.186667,118.79 105.566167,118.947167 105.8805,119.2615 C106.194833,119.575833 106.352,119.955333 106.352,120.4 C106.352,120.844667 106.194833,121.224167 105.8805,121.5385 C105.566167,121.852833 105.186667,122.01 104.742,122.01 C104.297333,122.01 103.917833,121.852833 103.6035,121.5385 C103.289167,121.224167 103.132,120.844667 103.132,120.4 Z M103.132,111.568 C103.132,111.123333 103.289167,110.743833 103.6035,110.4295 C103.917833,110.115167 104.297333,109.958 104.742,109.958 C105.186667,109.958 105.566167,110.115167 105.8805,110.4295 C106.194833,110.743833 106.352,111.123333 106.352,111.568 C106.352,112.012667 106.194833,112.392167 105.8805,112.7065 C105.566167,113.020833 105.186667,113.178 104.742,113.178 C104.297333,113.178 103.917833,113.020833 103.6035,112.7065 C103.289167,112.392167 103.132,112.012667 103.132,111.568 Z"/><path fill="#8330FF" d="M134.136 119.342 134.136 116.536 131.652 116.536 131.652 119.342 129.996 119.342 129.996 116.536 127.466 116.536 127.466 114.88 129.996 114.88 129.996 112.396 127.466 112.396 127.466 110.74 129.996 110.74 129.996 107.934 131.652 107.934 131.652 110.74 134.136 110.74 134.136 107.934 135.792 107.934 135.792 110.74 138.322 110.74 138.322 112.396 135.792 112.396 135.792 114.88 138.322 114.88 138.322 116.536 135.792 116.536 135.792 119.342 134.136 119.342ZM134.136 112.396 131.652 112.396 131.652 114.88 134.136 114.88 134.136 112.396ZM145.383 113.684 145.383 111.016 150.627 107.658 150.627 107.382 141.519 107.382 141.519 105.588 152.283 105.588 152.283 108.532 147.039 111.89 147.039 112.166 147.959 112.166C148.572333 112.166 149.162667 112.265667 149.73 112.465 150.297333 112.664333 150.7995 112.955667 151.2365 113.339 151.6735 113.722333 152.026167 114.193833 152.2945 114.7535 152.562833 115.313167 152.697 115.961 152.697 116.697L152.697 117.111C152.697 117.801 152.559 118.445 152.283 119.043 152.007 119.641 151.623667 120.1585 151.133 120.5955 150.642333 121.0325 150.0635 121.3775 149.3965 121.6305 148.7295 121.8835 148.005 122.01 147.223 122.01 146.318333 122.01 145.505667 121.872 144.785 121.596 144.064333 121.32 143.451 120.9405 142.945 120.4575 142.439 119.9745 142.051833 119.407167 141.7835 118.7555 141.515167 118.103833 141.381 117.41 141.381 116.674L141.381 115.432 143.313 115.432 143.313 116.536C143.313 117.118667 143.408833 117.636167 143.6005 118.0885 143.792167 118.540833 144.0605 118.924167 144.4055 119.2385 144.7505 119.552833 145.160667 119.794333 145.636 119.963 146.111333 120.131667 146.625 120.216 147.177 120.216 147.683 120.216 148.1545 120.131667 148.5915 119.963 149.0285 119.794333 149.408 119.5605 149.73 119.2615 150.052 118.9625 150.305 118.609833 150.489 118.2035 150.673 117.797167 150.765 117.364 150.765 116.904L150.765 116.766C150.765 115.8 150.458333 115.044833 149.845 114.5005 149.231667 113.956167 148.465 113.684 147.545 113.684L145.383 113.684ZM159.459 113.684 159.459 111.016 164.703 107.658 164.703 107.382 155.595 107.382 155.595 105.588 166.359 105.588 166.359 108.532 161.115 111.89 161.115 112.166 162.035 112.166C162.648333 112.166 163.238667 112.265667 163.806 112.465 164.373333 112.664333 164.8755 112.955667 165.3125 113.339 165.7495 113.722333 166.102167 114.193833 166.3705 114.7535 166.638833 115.313167 166.773 115.961 166.773 116.697L166.773 117.111C166.773 117.801 166.635 118.445 166.359 119.043 166.083 119.641 165.699667 120.1585 165.209 120.5955 164.718333 121.0325 164.1395 121.3775 163.4725 121.6305 162.8055 121.8835 162.081 122.01 161.299 122.01 160.394333 122.01 159.581667 121.872 158.861 121.596 158.140333 121.32 157.527 120.9405 157.021 120.4575 156.515 119.9745 156.127833 119.407167 155.8595 118.7555 155.591167 118.103833 155.457 117.41 155.457 116.674L155.457 115.432 157.389 115.432 157.389 116.536C157.389 117.118667 157.484833 117.636167 157.6765 118.0885 157.868167 118.540833 158.1365 118.924167 158.4815 119.2385 158.8265 119.552833 159.236667 119.794333 159.712 119.963 160.187333 120.131667 160.701 120.216 161.253 120.216 161.759 120.216 162.2305 120.131667 162.6675 119.963 163.1045 119.794333 163.484 119.5605 163.806 119.2615 164.128 118.9625 164.381 118.609833 164.565 118.2035 164.749 117.797167 164.841 117.364 164.841 116.904L164.841 116.766C164.841 115.8 164.534333 115.044833 163.921 114.5005 163.307667 113.956167 162.541 113.684 161.621 113.684L159.459 113.684ZM173.535 113.684 173.535 111.016 178.779 107.658 178.779 107.382 169.671 107.382 169.671 105.588 180.435 105.588 180.435 108.532 175.191 111.89 175.191 112.166 176.111 112.166C176.724333 112.166 177.314667 112.265667 177.882 112.465 178.449333 112.664333 178.9515 112.955667 179.3885 113.339 179.8255 113.722333 180.178167 114.193833 180.4465 114.7535 180.714833 115.313167 180.849 115.961 180.849 116.697L180.849 117.111C180.849 117.801 180.711 118.445 180.435 119.043 180.159 119.641 179.775667 120.1585 179.285 120.5955 178.794333 121.0325 178.2155 121.3775 177.5485 121.6305 176.8815 121.8835 176.157 122.01 175.375 122.01 174.470333 122.01 173.657667 121.872 172.937 121.596 172.216333 121.32 171.603 120.9405 171.097 120.4575 170.591 119.9745 170.203833 119.407167 169.9355 118.7555 169.667167 118.103833 169.533 117.41 169.533 116.674L169.533 115.432 171.465 115.432 171.465 116.536C171.465 117.118667 171.560833 117.636167 171.7525 118.0885 171.944167 118.540833 172.2125 118.924167 172.5575 119.2385 172.9025 119.552833 173.312667 119.794333 173.788 119.963 174.263333 120.131667 174.777 120.216 175.329 120.216 175.835 120.216 176.3065 120.131667 176.7435 119.963 177.1805 119.794333 177.56 119.5605 177.882 119.2615 178.204 118.9625 178.457 118.609833 178.641 118.2035 178.825 117.797167 178.917 117.364 178.917 116.904L178.917 116.766C178.917 115.8 178.610333 115.044833 177.997 114.5005 177.383667 113.956167 176.617 113.684 175.697 113.684L173.535 113.684Z"/><path fill="#787696" d="M187.588 120.4C187.588 119.955333 187.745167 119.575833 188.0595 119.2615 188.373833 118.947167 188.753333 118.79 189.198 118.79 189.642667 118.79 190.022167 118.947167 190.3365 119.2615 190.650833 119.575833 190.808 119.955333 190.808 120.4L190.808 122.654C190.808 123.175333 190.643167 123.604667 190.3135 123.942 189.983833 124.279333 189.558333 124.448 189.037 124.448L187.864 124.448 187.864 123.206 188.945 123.206C189.359 123.206 189.566 122.976 189.566 122.516L189.566 121.941C189.443333 121.987 189.313 122.01 189.175 122.01 188.745667 122.01 188.373833 121.852833 188.0595 121.5385 187.745167 121.224167 187.588 120.844667 187.588 120.4ZM187.588 111.568C187.588 111.123333 187.745167 110.743833 188.0595 110.4295 188.373833 110.115167 188.753333 109.958 189.198 109.958 189.642667 109.958 190.022167 110.115167 190.3365 110.4295 190.650833 110.743833 190.808 111.123333 190.808 111.568 190.808 112.012667 190.650833 112.392167 190.3365 112.7065 190.022167 113.020833 189.642667 113.178 189.198 113.178 188.753333 113.178 188.373833 113.020833 188.0595 112.7065 187.745167 112.392167 187.588 112.012667 187.588 111.568ZM6.854 145.729C6.854 146.173667 7.061 146.396 7.475 146.396L8.648 146.396 8.648 148.88 7.475 148.88C7.061 148.88 6.854 149.102333 6.854 149.547L6.854 157.482C6.854 158.003333 6.68916667 158.432667 6.3595 158.77 6.02983333 159.107333 5.60433333 159.276 5.083 159.276L2.852 159.276 2.852 157.62 4.439 157.62C4.853 157.62 5.06 157.39 5.06 156.93L5.06 149.57C5.06 149.048667 5.22483333 148.619333 5.5545 148.282 5.88416667 147.944667 6.31733333 147.776 6.854 147.776L7.13 147.776 7.13 147.5 6.854 147.5C6.31733333 147.5 5.88416667 147.331333 5.5545 146.994 5.22483333 146.656667 5.06 146.227333 5.06 145.706L5.06 138.346C5.06 137.886 4.853 137.656 4.439 137.656L2.852 137.656 2.852 136 5.083 136C5.60433333 136 6.02983333 136.168667 6.3595 136.506 6.68916667 136.843333 6.854 137.272667 6.854 137.794L6.854 145.729Z"/></g></g></svg>