<svg xmlns="http://www.w3.org/2000/svg" width="800" height="200" viewBox="0 0 800 200"><g fill="none" fill-rule="evenodd"><rect width="800" height="200" fill="#F9FCFD"/><g transform="translate(34 32)"><rect width="206" height="130" x="1" y="1" stroke="#787696" stroke-width="2" rx="8"/><rect width="208" height="2" y="16" fill="#787696"/><g fill="#787696" transform="translate(7 6)"><circle cx="3" cy="3" r="3"/><circle cx="13" cy="3" r="3"/><circle cx="23" cy="3" r="3"/></g><text fill="#8330FF" font-family="SpaceMono-BoldItalic, Space Mono" font-size="23" font-style="italic" font-weight="bold">
                    <tspan x="68.81" y="75">#root</tspan>
                </text><g transform="translate(620.5)"><g stroke="#787696" stroke-linejoin="round" stroke-width="2"><path d="M106,8.5 L106,123.5 C106,128.19442 82.2710917,132 53,132 C23.7289083,132 0,128.19442 0,123.5 L0,123.5 L0,8.5 C1.98951966e-13,13.1944204 23.7289083,17 53,17 C81.9783808,17 105.524868,13.2701514 105.9929,8.64056304 L106,8.5 L106,8.5 Z"/><ellipse cx="53" cy="8.5" stroke-linecap="round" rx="53" ry="8.5"/><path stroke-linecap="round" d="M0 37.5C0 42.1944204 23.7289083 46 53 46 82.2710917 46 106 42.1944204 106 37.5M0 66.5C0 71.1944204 23.7289083 75 53 75 82.2710917 75 106 71.1944204 106 66.5M0 95.5C0 100.19442 23.7289083 104 53 104 82.2710917 104 106 100.19442 106 95.5"/></g><g transform="translate(10.95 54.75)"><rect width="84.099" height="40" fill="#F9FCFD"/><text fill="#8330FF" fill-rule="nonzero" font-family="SpaceGrotesk-Light_Medium, Space Grotesk" font-size="20" font-weight="400" transform="translate(5.55 7)">
                            <tspan x=".414" y="20">SERVER</tspan>
                        </text></g></g></g><rect width="191" height="200" x="609" fill="#F9FCFD" opacity=".591"/><line x1="630.5" x2="778.5" y1="22.5" y2="170.5" stroke="#8330FF" stroke-linecap="round" stroke-linejoin="round" stroke-width="2"/><line x1="630.5" x2="778.5" y1="22.5" y2="170.5" stroke="#8330FF" stroke-linecap="round" stroke-linejoin="round" stroke-width="2" transform="matrix(-1 0 0 1 1409 0)"/><path fill="#787696" fill-rule="nonzero" d="M312,60 C316.881803,60 320.855791,63.8868137 320.996163,68.7346377 L321,69 L321,128 C321,132.881803 317.113186,136.855791 312.265362,136.996163 L312,137 L255.067,137 L263.740261,141.878424 C264.187236,142.129848 264.366366,142.673531 264.172887,143.135319 L264.121576,143.240261 C263.870152,143.687236 263.326469,143.866366 262.864681,143.672887 L262.759739,143.621576 L250.759739,136.871576 L249.210271,136 L250.759739,135.128424 L262.759739,128.378424 C263.241097,128.107661 263.850812,128.278381 264.121576,128.759739 C264.372999,129.206714 264.243755,129.764364 263.838607,130.058537 L263.740261,130.121576 L255.067,135 L312,135 C315.785452,135 318.869099,131.995217 318.995941,128.24065 L319,128 L319,69 C319,65.2145483 315.995217,62.1309013 312.24065,62.004059 L312,62 L252,62 C251.447715,62 251,61.5522847 251,61 C251,60.4871642 251.38604,60.0644928 251.883379,60.0067277 L252,60 L312,60 Z"/><g transform="translate(264 80)"><rect width="112" height="40" fill="#F9FCFD"/><text fill="#8330FF" fill-rule="nonzero" font-family="SpaceGrotesk-Light_Medium, Space Grotesk" font-size="20" font-weight="400" transform="translate(11.5 7)">
                    <tspan x=".412" y="20">bundle.js</tspan>
                </text></g></g></svg>